<svg width="70" height="32" viewBox="0 0 70 32" fill="none" xmlns="http://www.w3.org/2000/svg">
<g clip-path="url(#clip0_1297_200)">
<mask id="mask0_1297_200" style="mask-type:luminance" maskUnits="userSpaceOnUse" x="-3" y="-15" width="98" height="62">
<path d="M-2.98657 46.22H94.1352V-14.4243H-2.98657V46.22Z" fill="white"/>
</mask>
<g mask="url(#mask0_1297_200)">
<mask id="mask1_1297_200" style="mask-type:luminance" maskUnits="userSpaceOnUse" x="0" y="0" width="71" height="32">
<path d="M0 31.7717H70.0001V-6.10352e-05H0V31.7717Z" fill="white"/>
</mask>
<g mask="url(#mask1_1297_200)">
<path d="M61.1685 29.0034V28.2605H61.714C62.0769 28.2605 62.1751 28.3724 62.1751 28.5896C62.1751 28.812 62.0769 28.9913 61.6494 29.0034H61.1685ZM61.5512 29.4568C61.708 29.4705 61.8588 29.4568 61.9726 29.5756C62.1028 29.7136 62.1028 29.9445 62.1355 30.1945C62.1562 30.3651 62.2019 30.5495 62.2346 30.7133H62.8137C62.7146 30.4513 62.6819 30.148 62.6423 29.8722C62.5958 29.5567 62.5508 29.3792 62.1493 29.2998V29.2861C62.538 29.2068 62.7414 28.9448 62.7414 28.6086C62.7414 27.9519 62.188 27.8071 61.6562 27.8071H60.715V30.7133H61.1685V29.4568H61.5512ZM61.6951 31.7717C63.0646 31.7717 64.1617 30.6685 64.1617 29.2929C64.1617 27.9312 63.0646 26.8263 61.6951 26.8263C60.3204 26.8263 59.2155 27.9312 59.2155 29.2929C59.2155 30.6685 60.3204 31.7717 61.6951 31.7717ZM61.6951 31.339C60.5642 31.339 59.6508 30.4238 59.6508 29.2929C59.6508 28.176 60.5642 27.2607 61.6951 27.2607C62.8207 27.2607 63.729 28.176 63.729 29.2929C63.729 30.4238 62.8207 31.339 61.6951 31.339Z" fill="#000F08"/>
<path d="M57.5142 6.80995H53.542V10.778H57.5142C58.4571 10.778 59.2155 11.5459 59.2155 12.4831C59.2155 13.4269 58.4571 14.1853 57.5142 14.1853H53.542V18.1568H57.5142C60.6489 18.1568 63.188 15.6152 63.188 12.4831C63.188 9.35027 60.6489 6.80995 57.5142 6.80995ZM34.8766 27.8071C39.6315 27.8071 43.7296 25.0224 45.6439 20.9923H50.7073V27.8071H53.542V20.9923H57.5142C62.2175 20.9923 66.0277 17.1821 66.0277 12.4831C66.0277 7.78304 62.2175 3.97141 57.5142 3.97141H50.7073V14.1853H46.6676C45.8438 8.41301 40.8786 3.97141 34.8766 3.97141H20.9075L7.01212 27.8071H10.3269L14.2984 20.9923H28.578V27.8071H34.8766ZM70 12.4831C70 19.3764 64.4091 24.9638 57.5142 24.9638V31.7717H46.7366V26.4608C43.821 29.7204 39.5918 31.7717 34.8766 31.7717H24.6058V24.9638H16.5784L12.607 31.7717H0L18.531 -6.10352e-05H34.8766C39.5918 -6.10352e-05 43.821 2.05682 46.7366 5.31677V-6.10352e-05H57.5142C64.4091 -6.10352e-05 70 5.59176 70 12.4831ZM24.6058 6.80995V14.1853H18.2698L15.9557 18.1568H28.578V6.80995H24.6058ZM43.9572 15.8858C43.9572 20.9001 39.89 24.9638 34.8766 24.9638H31.4144V20.9923H34.8766C37.6992 20.9923 39.9865 18.7093 39.9865 15.8858C39.9865 13.0684 37.6992 10.778 34.8766 10.778H31.4144V6.80995H34.8766C39.89 6.80995 43.9572 10.8736 43.9572 15.8858Z" fill="#000F08"/>
<path d="M57.5142 6.80995H53.542V10.778H57.5142C58.4571 10.778 59.2155 11.5459 59.2155 12.4831C59.2155 13.4269 58.4571 14.1853 57.5142 14.1853H53.542V18.1568H57.5142C60.6489 18.1568 63.188 15.6152 63.188 12.4831C63.188 9.35027 60.6489 6.80995 57.5142 6.80995ZM34.8766 27.8071C39.6315 27.8071 43.7296 25.0224 45.6439 20.9923H50.7073V27.8071H53.542V20.9923H57.5142C62.2175 20.9923 66.0277 17.1821 66.0277 12.4831C66.0277 7.78304 62.2175 3.97141 57.5142 3.97141H50.7073V14.1853H46.6676C45.8438 8.41301 40.8786 3.97141 34.8766 3.97141H20.9075L7.01212 27.8071H10.3269L14.2984 20.9923H28.578V27.8071H34.8766ZM70 12.4831C70 19.3764 64.4091 24.9638 57.5142 24.9638V31.7717H46.7366V26.4608C43.821 29.7204 39.5918 31.7717 34.8766 31.7717H24.6058V24.9638H16.5784L12.607 31.7717H0L18.531 -6.10352e-05H34.8766C39.5918 -6.10352e-05 43.821 2.05682 46.7366 5.31677V-6.10352e-05H57.5142C64.4091 -6.10352e-05 70 5.59176 70 12.4831ZM24.6058 6.80995V14.1853H18.2698L15.9557 18.1568H28.578V6.80995H24.6058ZM43.9572 15.8858C43.9572 20.9001 39.89 24.9638 34.8766 24.9638H31.4144V20.9923H34.8766C37.6992 20.9923 39.9865 18.7093 39.9865 15.8858C39.9865 13.0684 37.6992 10.778 34.8766 10.778H31.4144V6.80995H34.8766C39.89 6.80995 43.9572 10.8736 43.9572 15.8858Z" fill="#000F08"/>
<path d="M57.5142 6.80995H53.542V10.778H57.5142C58.4571 10.778 59.2155 11.5459 59.2155 12.4831C59.2155 13.4269 58.4571 14.1853 57.5142 14.1853H53.542V18.1568H57.5142C60.6489 18.1568 63.188 15.6152 63.188 12.4831C63.188 9.35027 60.6489 6.80995 57.5142 6.80995ZM34.8766 27.8071C39.6315 27.8071 43.7296 25.0224 45.6439 20.9923H50.7073V27.8071H53.542V20.9923H57.5142C62.2175 20.9923 66.0277 17.1821 66.0277 12.4831C66.0277 7.78304 62.2175 3.97141 57.5142 3.97141H50.7073V14.1853H46.6676C45.8438 8.41301 40.8786 3.97141 34.8766 3.97141H20.9075L7.01212 27.8071H10.3269L14.2984 20.9923H28.578V27.8071H34.8766ZM70 12.4831C70 19.3764 64.4091 24.9638 57.5142 24.9638V31.7717H46.7366V26.4608C43.821 29.7204 39.5918 31.7717 34.8766 31.7717H24.6058V24.9638H16.5784L12.607 31.7717H0L18.531 -6.10352e-05H34.8766C39.5918 -6.10352e-05 43.821 2.05682 46.7366 5.31677V-6.10352e-05H57.5142C64.4091 -6.10352e-05 70 5.59176 70 12.4831ZM24.6058 6.80995V14.1853H18.2698L15.9557 18.1568H28.578V6.80995H24.6058ZM43.9572 15.8858C43.9572 20.9001 39.89 24.9638 34.8766 24.9638H31.4144V20.9923H34.8766C37.6992 20.9923 39.9865 18.7093 39.9865 15.8858C39.9865 13.0684 37.6992 10.778 34.8766 10.778H31.4144V6.80995H34.8766C39.89 6.80995 43.9572 10.8736 43.9572 15.8858Z" fill="#000F08"/>
</g>
</g>
</g>
<defs>
<clipPath id="clip0_1297_200">
<rect width="70" height="31.7717" fill="white"/>
</clipPath>
</defs>
</svg>
