<svg width="39" height="32" viewBox="0 0 39 32" fill="none" xmlns="http://www.w3.org/2000/svg">
<circle cx="12.5" cy="16" r="12.5" fill="#F4D81A"/>
<path d="M24.2924 25.7076C24.1995 25.6147 24.1257 25.5044 24.0754 25.383C24.0251 25.2616 23.9992 25.1315 23.9992 25.0001C23.9992 24.8687 24.0251 24.7385 24.0754 24.6171C24.1257 24.4957 24.1995 24.3854 24.2924 24.2926L31.5862 17.0001L11.9999 17.0001C11.7347 17.0001 11.4804 16.8947 11.2928 16.7072C11.1053 16.5196 10.9999 16.2653 10.9999 16.0001C10.9999 15.7348 11.1053 15.4805 11.2928 15.293C11.4804 15.1054 11.7347 15.0001 11.9999 15.0001L31.5862 15.0001L24.2924 7.70757C24.1048 7.51993 23.9994 7.26543 23.9994 7.00007C23.9994 6.7347 24.1048 6.48021 24.2924 6.29257C24.4801 6.10493 24.7346 5.99951 24.9999 5.99951C25.2653 5.99951 25.5198 6.10493 25.7074 6.29257L34.7074 15.2926C34.8004 15.3854 34.8742 15.4957 34.9245 15.6171C34.9748 15.7385 35.0007 15.8687 35.0007 16.0001C35.0007 16.1315 34.9748 16.2616 34.9245 16.383C34.8742 16.5044 34.8004 16.6147 34.7074 16.7076L25.7074 25.7076C25.6146 25.8005 25.5043 25.8743 25.3829 25.9246C25.2615 25.975 25.1314 26.0009 24.9999 26.0009C24.8685 26.0009 24.7384 25.975 24.617 25.9246C24.4956 25.8743 24.3853 25.8005 24.2924 25.7076Z" fill="#000F08"/>
</svg>
