<svg width="120" height="20" viewBox="0 0 120 20" fill="none" xmlns="http://www.w3.org/2000/svg">
<path d="M75.1889 11.0439C75.1889 8.94974 74.0646 7.95774 70.9348 7.27441C69.1932 6.89964 68.7742 6.50291 68.7742 5.95179C68.7742 5.26845 69.3914 4.95983 70.5379 4.95983C71.9268 4.95983 73.2929 5.37866 74.5938 5.97384V3.21838C73.6898 2.75547 72.2794 2.40277 70.6259 2.40277C67.5175 2.40277 65.9083 3.74743 65.9083 5.97384C65.9083 7.73731 66.7243 9.14814 69.9428 9.76537C71.8603 10.1621 72.2572 10.4707 72.2572 11.11C72.2572 11.7272 71.8603 12.124 70.4935 12.124C68.9286 12.124 67.0548 11.595 65.8425 10.8675V13.7552C66.8123 14.2402 68.0911 14.7692 70.4714 14.7692C73.8665 14.7692 75.1889 13.2703 75.1889 11.0439Z" fill="#000F08"/>
<path d="M109.114 2.5791V14.5929H111.671V5.42273L112.751 7.8696L116.366 14.5929H119.585V2.5791H117.028V10.3385L116.058 8.09003L113.148 2.5791H109.114Z" fill="#000F08"/>
<path d="M92.8461 2.5791H90.0461V14.5708H92.8461V2.5791Z" fill="#000F08"/>
<path d="M86.8277 11.0439C86.8277 8.94974 85.704 7.95774 82.5735 7.27441C80.832 6.89964 80.4135 6.50291 80.4135 5.95179C80.4135 5.26845 81.0307 4.95983 82.1766 4.95983C83.5655 4.95983 84.9323 5.37866 86.2326 5.97384V3.21838C85.3292 2.75547 83.9181 2.40277 82.2652 2.40277C79.1569 2.40277 77.5477 3.74743 77.5477 5.97384C77.5477 7.73731 78.3631 9.14814 81.5815 9.76537C83.4997 10.1621 83.896 10.4707 83.896 11.11C83.896 11.7272 83.4997 12.124 82.1329 12.124C80.5674 12.124 78.6941 11.595 77.4812 10.8675V13.7552C78.4517 14.2402 79.7298 14.7692 82.1107 14.7692C85.5052 14.7692 86.8277 13.2703 86.8277 11.0439Z" fill="#000F08"/>
<path d="M44.2177 2.5791V14.5929H49.971L50.8748 11.9918H47.0393V2.5791H44.2177Z" fill="#000F08"/>
<path d="M32.8873 2.5791V5.18025H35.9734V14.5929H38.795V5.18025H42.1235V2.5791H32.8873Z" fill="#000F08"/>
<path d="M28.8092 2.5791H25.1279L20.9396 14.5708H24.1359L24.7311 12.5428C25.4365 12.7412 26.186 12.8735 26.9796 12.8735C27.7511 12.8735 28.5006 12.7633 29.228 12.5428L29.8232 14.5708H33.0195L28.8092 2.5791ZM26.9575 10.4046C26.4285 10.4046 25.8995 10.3164 25.4145 10.1842L26.9575 4.93777L28.5006 10.1842C28.0156 10.3164 27.4866 10.4046 26.9575 10.4046Z" fill="#000F08"/>
<path d="M59.8686 2.5791H56.1873L51.9991 14.5708H55.1954L55.7906 12.5428C56.4959 12.7412 57.2454 12.8735 58.039 12.8735C58.8105 12.8735 59.56 12.7633 60.2875 12.5428L60.8827 14.5708H64.0788L59.8686 2.5791ZM58.039 10.4046C57.51 10.4046 56.9809 10.3164 56.4959 10.1842L58.039 4.93777L59.5821 10.1842C59.0751 10.3164 58.5681 10.4046 58.039 10.4046Z" fill="#000F08"/>
<path d="M102.92 2.5791H99.2388L95.0505 14.5708H98.2468L98.8419 12.5428C99.5471 12.7412 100.297 12.8735 101.09 12.8735C101.862 12.8735 102.611 12.7633 103.338 12.5428L103.934 14.5708H107.13L102.92 2.5791ZM101.068 10.4046C100.539 10.4046 100.01 10.3164 99.5249 10.1842L101.068 4.93777L102.611 10.1842C102.126 10.3164 101.619 10.4046 101.068 10.4046Z" fill="#000F08"/>
<path d="M4.80364 6.81151C4.73751 6.72332 4.60525 6.6792 4.49503 6.6792C4.40685 6.70129 4.31868 6.76738 4.27459 6.85557L0.637396 14.13C0.549218 14.2842 0.615349 14.4826 0.769654 14.5488C0.81374 14.5708 0.857826 14.5929 0.901919 14.5929H5.97195C6.08217 14.5929 6.21444 14.5268 6.2585 14.4166C7.33863 12.2122 6.67733 8.79538 4.80364 6.81151Z" fill="#000F08"/>
<path d="M15.1862 14.13C15.098 13.9977 8.37468 0.507004 8.19838 0.176349C8.15425 0.0661311 8.06607 0 7.95585 0H7.93382C7.82361 0 7.71339 0.0661311 7.64724 0.176349C5.81764 3.06406 5.61926 6.56898 7.09616 9.52283L9.54299 14.3945C9.58711 14.5047 9.69733 14.5708 9.82958 14.5708H14.8996C15.076 14.5708 15.2082 14.4386 15.2082 14.2622C15.2082 14.2182 15.2082 14.174 15.1862 14.13Z" fill="#000F08"/>
</svg>
