<svg width="20" height="20" viewBox="0 0 20 20" fill="none" xmlns="http://www.w3.org/2000/svg">
<g clip-path="url(#clip0_1297_311)">
<path fill-rule="evenodd" clip-rule="evenodd" d="M5.58003 1.39158C5.33669 1.35679 5.09125 1.33873 4.84544 1.33752C4.59964 1.33873 4.3542 1.35679 4.11086 1.39158C2.84129 1.56621 1.93761 2.75263 1.85445 4.03191C1.80317 4.83441 1.74357 5.63413 1.68536 6.43385C1.47192 9.3403 1.25847 12.2343 1.37905 15.1546C1.37905 14.2356 1.74412 13.3543 2.39393 12.7044C3.04375 12.0546 3.92508 11.6896 4.84406 11.6896C5.76303 11.6896 6.64437 12.0546 7.29419 12.7044C7.944 13.3543 8.30906 14.2356 8.30906 15.1546C8.36034 13.9543 8.33262 12.8427 8.30352 11.6688C8.28204 10.8983 8.26956 10.1277 8.2661 9.35693C9.40209 8.95443 10.6427 8.95933 11.7755 9.37079C11.772 10.1369 11.7595 10.903 11.738 11.6688C11.7089 12.8427 11.6826 13.9557 11.7311 15.1546C11.7311 14.2356 12.0962 13.3543 12.746 12.7044C13.3958 12.0546 14.2771 11.6896 15.1961 11.6896C16.1151 11.6896 16.9964 12.0546 17.6462 12.7044C18.296 13.3543 18.6611 14.2356 18.6611 15.1546C18.7845 12.2343 18.571 9.3403 18.3562 6.43385C18.298 5.63413 18.2398 4.83441 18.1871 4.03191C18.1039 2.75263 17.2016 1.56621 15.9321 1.39158C15.6887 1.35679 15.4433 1.33873 15.1975 1.33752C14.9494 1.33752 14.7041 1.35831 14.4629 1.39158C13.1919 1.56621 12.2508 2.74986 12.1206 4.02498C12.0818 4.40752 12.0485 4.75956 12.0346 5.01874L12.0125 5.37772C10.7383 4.8471 9.30621 4.84112 8.0277 5.36109L8.00691 5.01874C7.98557 4.68736 7.95691 4.35649 7.92098 4.02637C7.79208 2.75125 6.85099 1.56621 5.57864 1.39296L5.58003 1.39158Z" fill="#F1EFFF"/>
<path d="M18.6625 14.9924C18.8191 11.2724 18.431 7.70897 18.1899 4.03191C18.1067 2.75263 17.203 1.56621 15.9334 1.39158C15.6901 1.35678 15.4447 1.33872 15.1989 1.33752C14.9531 1.33873 14.7076 1.35679 14.4643 1.39158C13.1933 1.56621 12.2522 2.74986 12.1219 4.02498C12.086 4.35556 12.0573 4.6869 12.036 5.01874" stroke="#3423A6" stroke-width="1.43" stroke-linecap="round" stroke-linejoin="round"/>
<path d="M11.7769 9.30701C11.7769 11.4636 11.6397 12.9841 11.7214 14.948" stroke="#3423A6" stroke-width="1.43" stroke-linecap="round" stroke-linejoin="round"/>
<path d="M18.6625 15.1546C18.6625 16.0736 18.2974 16.9549 17.6476 17.6047C16.9978 18.2545 16.1164 18.6196 15.1975 18.6196C14.2785 18.6196 13.3972 18.2545 12.7473 17.6047C12.0975 16.9549 11.7325 16.0736 11.7325 15.1546C11.7325 14.2356 12.0975 13.3543 12.7473 12.7045C13.3972 12.0546 14.2785 11.6896 15.1975 11.6896C16.1164 11.6896 16.9978 12.0546 17.6476 12.7045C18.2974 13.3543 18.6625 14.2356 18.6625 15.1546Z" fill="white"/>
<path d="M18.6625 15.1546C18.6625 16.0736 18.2974 16.9549 17.6476 17.6047C16.9978 18.2545 16.1164 18.6196 15.1975 18.6196C14.2785 18.6196 13.3972 18.2545 12.7473 17.6047C12.0975 16.9549 11.7325 16.0736 11.7325 15.1546C11.7325 14.2356 12.0975 13.3543 12.7473 12.7045C13.3972 12.0546 14.2785 11.6896 15.1975 11.6896C16.1164 11.6896 16.9978 12.0546 17.6476 12.7045C18.2974 13.3543 18.6625 14.2356 18.6625 15.1546Z" stroke="#3423A6" stroke-width="1.43" stroke-linecap="round" stroke-linejoin="round"/>
<path d="M1.3804 14.9924C1.22655 11.2723 1.61463 7.70893 1.85441 4.03187C1.93757 2.75259 2.84124 1.56617 4.10943 1.39292C4.35277 1.35814 4.59821 1.34008 4.84401 1.33887C5.09211 1.33887 5.33604 1.35966 5.57859 1.39292C6.84956 1.56756 7.79065 2.7512 7.92094 4.02632C7.95975 4.40886 7.99301 4.7609 8.00548 5.02009" stroke="#3423A6" stroke-width="1.43" stroke-linecap="round" stroke-linejoin="round"/>
<path d="M8.26746 9.30701C8.26746 11.4636 8.40467 12.9841 8.3229 14.948" stroke="#3423A6" stroke-width="1.43" stroke-linecap="round" stroke-linejoin="round"/>
<path d="M1.38049 15.1546C1.38049 15.6096 1.47012 16.0602 1.64425 16.4806C1.81838 16.901 2.07361 17.283 2.39537 17.6047C2.71712 17.9265 3.0991 18.1817 3.5195 18.3558C3.93989 18.53 4.39047 18.6196 4.8455 18.6196C5.30053 18.6196 5.7511 18.53 6.1715 18.3558C6.59189 18.1817 6.97387 17.9265 7.29562 17.6047C7.61738 17.283 7.87261 16.901 8.04674 16.4806C8.22087 16.0602 8.3105 15.6096 8.3105 15.1546C8.3105 14.2356 7.94544 13.3543 7.29562 12.7045C6.64581 12.0546 5.76447 11.6896 4.8455 11.6896C3.92652 11.6896 3.04518 12.0546 2.39537 12.7045C1.74555 13.3543 1.38049 14.2356 1.38049 15.1546Z" fill="white"/>
<path d="M1.38049 15.1546C1.38049 15.6096 1.47012 16.0602 1.64425 16.4806C1.81838 16.901 2.07361 17.283 2.39537 17.6047C2.71712 17.9265 3.0991 18.1817 3.5195 18.3558C3.93989 18.53 4.39047 18.6196 4.8455 18.6196C5.30053 18.6196 5.7511 18.53 6.1715 18.3558C6.59189 18.1817 6.97387 17.9265 7.29562 17.6047C7.61738 17.283 7.87261 16.901 8.04674 16.4806C8.22087 16.0602 8.3105 15.6096 8.3105 15.1546C8.3105 14.2356 7.94544 13.3543 7.29562 12.7045C6.64581 12.0546 5.76447 11.6896 4.8455 11.6896C3.92652 11.6896 3.04518 12.0546 2.39537 12.7045C1.74555 13.3543 1.38049 14.2356 1.38049 15.1546Z" stroke="#3423A6" stroke-width="1.43" stroke-linecap="round" stroke-linejoin="round"/>
<path d="M13.4816 6.16086C11.1171 4.58082 8.88283 4.58082 6.51831 6.16086" stroke="#3423A6" stroke-width="1.43" stroke-linecap="round" stroke-linejoin="round"/>
</g>
<defs>
<clipPath id="clip0_1297_311">
<rect width="20" height="20" fill="white"/>
</clipPath>
</defs>
</svg>
