<svg width="121" height="23" viewBox="0 0 121 23" fill="none" xmlns="http://www.w3.org/2000/svg">
<g clip-path="url(#clip0_1297_565)">
<path d="M71 5.47999H72.04L72.4 6.99999H72.52C73.4 5.93999 74.72 5.29999 76.1 5.23999C78.68 5.23999 80.5 7.45999 80.5 11.34C80.5 15.2 78.7 17.44 76.1 17.44C74.72 17.4 73.42 16.76 72.54 15.7H72.42V21.5H71.02L71 5.47999ZM72.4 14.1C73.58 15.58 74.64 16.32 75.96 16.32C77.9 16.32 79.06 14.58 79.06 11.38C79.06 8.17999 77.9 6.43999 75.96 6.43999C74.64 6.43999 73.58 7.13999 72.4 8.63999V14.1Z" fill="#000F08"/>
<path d="M83.24 5.44001H84.56V7.56001H84.7C85.48 5.98001 86.46 5.26001 87.92 5.26001H87.98V6.68001H87.78C86.22 6.68001 85.2 7.64001 84.54 9.92001V17.46H83.22L83.24 5.44001Z" fill="#000F08"/>
<path d="M92.02 5.26001H90.66V17.46H92.02V5.26001Z" fill="#000F08"/>
<path d="M98.8401 16.38C100.36 16.38 101.38 15.46 101.38 14.22C101.38 12.84 100.24 12.48 98.2001 11.76C95.7001 10.88 94.4201 10.2 94.4201 8.40001C94.4201 6.60001 95.9401 5.26001 98.4001 5.26001C100.06 5.28001 101.58 6.10001 102.48 7.42001L101.44 8.12001C100.72 7.02001 99.4801 6.36001 98.1401 6.36001C97.5801 6.30001 97.0001 6.48001 96.5801 6.86001C96.1601 7.24001 95.9201 7.76001 95.9401 8.30001C95.9401 9.56001 97.1401 9.86001 99.1801 10.6C101.62 11.48 102.88 12.2 102.88 14.08C102.88 15.96 101.24 17.46 98.7001 17.46C96.8401 17.5 95.1001 16.62 94.0601 15.14L95.1401 14.3C96.2001 15.7 97.4201 16.38 98.8401 16.38Z" fill="#000F08"/>
<path d="M105.66 5.48H106.94V7.34H107.02C108.26 5.94 109.56 5.28 110.8 5.28C112.08 5.24 113.22 6.1 113.6 7.34H113.76C115.04 5.94 116.28 5.28 117.54 5.28C119.52 5.28 120.5 6.56 120.5 9.12V17.48H119.18V9.64C119.18 7.52 118.82 6.52 117.16 6.52C116.08 6.52 114.92 7.22 113.76 8.74V17.48H112.38V9.64C112.38 7.52 112.02 6.52 110.36 6.52C109.28 6.52 108.14 7.22 106.96 8.74V17.48H105.58L105.66 5.48Z" fill="#000F08"/>
<path d="M31.9801 0.520001V6.48C32.6601 5.52 33.7801 4.96 34.9601 4.98C37.8801 4.98 39.8401 7.28 39.8401 11.14C39.8401 15.16 38.0001 17.46 34.9801 17.46C33.7001 17.5 32.4801 16.9 31.7401 15.86L31.4001 17.28H29.6801C29.8001 16.08 29.8201 14.96 29.8201 13.88V0.5H31.9801V0.520001ZM34.6201 15.64C36.4801 15.64 37.5601 14.14 37.5601 11.3C37.5601 8.32 36.4801 6.8 34.5401 6.8C33.5001 6.84 32.5401 7.38 31.9601 8.22V14.1C32.5601 15 33.5401 15.58 34.6201 15.64Z" fill="#000F08"/>
<path d="M43.88 1.20001V17.46H41.86V1.20001H43.88Z" fill="#000F08"/>
<path d="M49.36 5.26001V13.34C49.36 14.92 49.86 15.66 51.06 15.66C52.2 15.56 53.26 14.98 53.98 14.06V5.28001H56.08V17.28H54.12V15.68C52.82 16.88 51.7 17.5 50.4 17.5C48.42 17.5 47.26 16.24 47.26 13.98V5.30001H49.36V5.26001Z" fill="#000F08"/>
<path d="M60.9599 11.76V11.98C60.9599 14.36 62.0399 15.7 63.8999 15.7C65.1199 15.7 66.2399 14.98 66.7399 13.86L68.2999 14.8C67.4399 16.5 65.6799 17.54 63.7799 17.48C60.5799 17.48 58.8199 15.4 58.8199 11.5C58.8199 7.48 60.5999 5.28 63.6399 5.28C66.4399 5.28 68.2399 7.42 68.2399 11.14C68.2399 11.34 68.2399 11.54 68.2399 11.74L60.9599 11.76ZM63.5799 6.98C62.0399 6.98 61.0799 8.08 60.9799 10.1H66.0599C66.0199 8.1 65.0599 6.98 63.5799 6.98Z" fill="#000F08"/>
<path d="M118.8 0.519989C119.74 0.519989 120.5 1.27999 120.5 2.21999C120.5 3.15999 119.74 3.91999 118.8 3.91999C117.86 3.91999 117.1 3.15999 117.1 2.21999C117.12 1.27999 117.86 0.519989 118.8 0.519989ZM118.8 3.61999C119.18 3.61999 119.54 3.45999 119.78 3.19999C120.02 2.93999 120.18 2.55999 120.16 2.19999C120.2 1.67999 119.94 1.19999 119.5 0.919989C119.06 0.639989 118.5 0.659989 118.06 0.919989C117.62 1.17999 117.36 1.67999 117.4 2.19999C117.38 2.57999 117.5 2.95999 117.76 3.23999C118.02 3.51999 118.38 3.67999 118.76 3.67999V3.61999H118.8ZM118.16 1.21999H118.94C119.4 1.21999 119.62 1.39999 119.62 1.77999C119.64 1.91999 119.58 2.05999 119.48 2.17999C119.38 2.27999 119.24 2.33999 119.1 2.33999L119.66 3.21999H119.32L118.76 2.33999H118.48V3.21999H118.2L118.16 1.21999ZM118.5 2.07999H118.88C119.12 2.07999 119.3 2.01999 119.3 1.75999C119.3 1.49999 119.1 1.47999 118.88 1.47999H118.5V2.07999Z" fill="#000F08"/>
<path d="M20.36 10.44L16.36 12.74V12.76L20.4 17.4L24.4 15.08L20.36 10.44Z" fill="#000F08"/>
<path d="M20.4 17.4L16.42 19.7L12.42 15.02L16.36 12.74V12.76L20.4 17.4Z" fill="#000F08"/>
<path d="M20.36 10.44L16.36 12.74L12.4 8.13999L16.32 5.79999H16.34L20.36 10.44Z" fill="#000F08"/>
<path d="M12.42 22.04L16.42 19.7L12.42 15.02V22.04Z" fill="#000F08"/>
<path d="M12.4 8.14001L16.36 12.74L12.42 15.02L12.38 8.14001H12.4Z" fill="#000F08"/>
<path d="M12.38 8.14001H12.4L16.32 5.80001H16.34L12.38 1.26001V8.14001Z" fill="#000F08"/>
<path d="M4.40002 17.34L12.42 22.04V15.02L8.40002 12.74L4.44002 10.48L4.40002 17.34Z" fill="#000F08"/>
<path d="M12.38 8.14L12.42 15.02L8.4 12.74L8.38 5.89999L12.38 8.14Z" fill="#000F08"/>
<path d="M12.38 1.26001L8.38 5.90001L12.38 8.14001V1.26001Z" fill="#000F08"/>
<path d="M8.39994 12.74L4.43994 10.48L8.37994 5.89999L8.39994 12.74Z" fill="#000F08"/>
<path d="M0.5 15.08L4.4 17.34L4.44 10.48L0.5 15.08Z" fill="#000F08"/>
</g>
<defs>
<clipPath id="clip0_1297_565">
<rect width="121" height="23" fill="white"/>
</clipPath>
</defs>
</svg>
