<svg width="120" height="18" viewBox="0 0 120 18" fill="none" xmlns="http://www.w3.org/2000/svg">
<g clip-path="url(#clip0_1297_148)">
<path d="M4.32457 16.1447C2.98204 15.4423 1.9554 14.3497 1.16567 13.0229C0.454921 11.6962 0.0600586 10.2134 0.0600586 8.65251C0.0600586 7.16969 0.454921 5.60882 1.16567 4.36013C1.87642 3.03339 2.98204 2.01883 4.32457 1.2384C5.74607 0.457963 7.32552 0.0677459 8.90497 0.0677459C10.8003 -0.0102974 12.6167 0.614049 14.1961 1.62861L12.4587 4.28209C11.4321 3.50165 10.2475 3.03339 8.90497 3.03339C7.87833 3.03339 6.85169 3.26752 5.98299 3.81383C5.19327 4.28209 4.48251 5.06252 4.08765 5.921C3.61382 6.77947 3.3769 7.79403 3.45587 8.8086C3.45587 9.82316 3.69279 10.7597 4.08765 11.6182C5.03532 13.4132 6.85169 14.5058 8.90497 14.5058C10.1685 14.5058 11.4321 14.0375 12.4587 13.2571L14.1961 15.7545C12.6167 16.8471 10.8003 17.3934 8.90497 17.3934C7.32552 17.3153 5.74607 16.9251 4.32457 16.1447Z" fill="#01070D"/>
<path d="M21.8564 3.18949V7.48187H27.9373V9.97926H21.8564V14.2716H29.2008V16.9251H18.5396V0.536011H29.1219V3.18949H21.8564Z" fill="#01070D"/>
<path d="M38.3617 10.2914H37.335V16.9251H34.0972V0.536011H40.0201C40.9678 0.536011 41.9944 0.692097 42.8631 1.08231C43.7318 1.47253 44.4425 2.01884 44.9954 2.79927C45.5482 3.5797 45.864 4.51622 45.7851 5.45274C45.864 6.54535 45.4692 7.63796 44.6795 8.41839C43.8897 9.19882 42.8631 9.82317 41.7575 10.0573L47.2066 16.9251H43.258L38.3617 10.2914ZM37.335 7.87209H39.3093C40.336 7.87209 41.0467 7.63796 41.5995 7.24774C42.1523 6.85752 42.4682 6.15513 42.3893 5.53079C42.3893 4.8284 42.1523 4.12601 41.5995 3.73579C41.0467 3.26753 40.257 3.11144 39.2304 3.11144H37.414L37.335 7.87209Z" fill="#01070D"/>
<path d="M53.9193 16.9251H50.6814V0.536011H53.9193V16.9251Z" fill="#01070D"/>
<path d="M69.7927 1.62861C71.0563 2.25296 72.1619 3.26752 72.8726 4.51621C73.5834 5.76491 73.9782 7.24773 73.8993 8.73055C73.8993 10.2134 73.5834 11.6962 72.8726 12.9449C72.1619 14.1936 71.0563 15.2082 69.7927 15.9105C68.2922 16.6129 66.6338 17.0031 64.9754 17.0031H59.6052V0.614047H64.9754C66.6338 0.536003 68.2922 0.848177 69.7927 1.62861ZM69.003 12.7888C70.0296 11.8523 70.5824 10.4475 70.5824 8.65251C70.5824 6.93556 70.0296 5.60882 69.003 4.59426C67.9763 3.65774 66.4758 3.11143 64.5805 3.11143H62.8431V14.1936H64.5805C66.5548 14.2716 67.9763 13.8034 69.003 12.7888Z" fill="#01070D"/>
<path d="M81.5596 16.9251H78.3218V0.536011H81.5596V16.9251Z" fill="#01070D"/>
<path d="M96.8013 13.179H90.0886L88.746 16.9251H85.1923L91.747 0.536011H95.0639L101.619 16.9251H98.0648L96.8013 13.179ZM95.8536 10.6816L93.4054 3.89188L90.9573 10.6816H95.8536Z" fill="#01070D"/>
<path d="M119.94 0.536011V16.9251H116.939L108.805 5.60883V16.9251H105.646V0.536011H108.647L116.702 11.8523V0.536011H119.94Z" fill="#01070D"/>
</g>
<defs>
<clipPath id="clip0_1297_148">
<rect width="120" height="17.4545" fill="white"/>
</clipPath>
</defs>
</svg>
