<svg width="70" height="27" viewBox="0 0 70 27" fill="none" xmlns="http://www.w3.org/2000/svg">
<g clip-path="url(#clip0_1297_283)">
<path d="M28.007 2.69232H7.02798C5.86882 2.69232 4.75713 3.1528 3.93748 3.97245C3.11782 4.7921 2.65735 5.90379 2.65735 7.06295V19.3007C2.65735 20.4599 3.11782 21.5716 3.93748 22.3912C4.75713 23.2109 5.86882 23.6713 7.02798 23.6713H31.5035C32.0775 23.6713 32.6458 23.5583 33.1761 23.3386C33.7063 23.119 34.1882 22.7971 34.594 22.3912C34.9999 21.9854 35.3218 21.5035 35.5414 20.9733C35.7611 20.443 35.8741 19.8747 35.8741 19.3007V7.06295C35.8741 6.17842 36.1424 5.31469 36.6437 4.58591C37.145 3.85712 37.8556 3.29758 38.6816 2.98123C39.5076 2.66487 40.4102 2.6066 41.27 2.8141C42.1299 3.02159 42.9066 3.4851 43.4974 4.14337L59.7194 22.2203C60.3102 22.8786 61.0869 23.3421 61.9467 23.5496C62.8066 23.7571 63.7092 23.6988 64.5352 23.3824C65.3612 23.0661 66.0718 22.5065 66.5731 21.7778C67.0744 21.049 67.3427 20.1852 67.3427 19.3007V0.0699463" stroke="#152330" stroke-width="10"/>
</g>
<defs>
<clipPath id="clip0_1297_283">
<rect width="70" height="26.3636" fill="white"/>
</clipPath>
</defs>
</svg>
