<svg width="20" height="20" viewBox="0 0 20 20" fill="none" xmlns="http://www.w3.org/2000/svg">
<path d="M17.6747 12.0029C17.8266 11.9237 17.9572 11.809 18.0554 11.6687C18.7385 10.6937 15.9544 8.33004 15.7567 6.90944C15.2222 3.06678 12.2045 1.70984 8.84602 1.70984C4.31892 1.70984 1.70984 4.03109 1.70984 8.67359C1.70984 11.8491 2.53886 12.9129 3.54164 14.5351C4.0921 15.4238 4.32423 16.4637 4.32158 17.5089C4.32005 18.0979 4.31917 18.6868 4.31892 19.2757H12.3014V16.9638C12.3743 16.3722 12.9022 15.9756 13.4978 15.9756H14.1517C14.6794 15.9756 15.1855 15.766 15.5586 15.3928C15.9318 15.0197 16.1414 14.5136 16.1414 13.9859V12.1488L17.1826 12.1223C17.3537 12.1223 17.5222 12.0825 17.6734 12.0029H17.6747Z" fill="#F1EFFF"/>
<path d="M9.33948 7.35247V1.70984" stroke="#3423A6" stroke-width="1.43" stroke-linecap="round" stroke-linejoin="round"/>
<path d="M10 12.6064C11.3264 13.9329 13.9793 15.3057 17.2954 15.3057" stroke="#3423A6" stroke-width="1.43" stroke-linecap="round" stroke-linejoin="round"/>
<path d="M4.31892 18.6099L4.32025 17.5143C4.32423 16.4664 4.09078 15.4238 3.53898 14.5311C2.53753 12.9102 1.70984 11.8464 1.70984 8.67362C1.70984 5.72629 2.76037 3.71543 4.68634 2.63837" stroke="#3423A6" stroke-width="1.43" stroke-linecap="round" stroke-linejoin="round"/>
<path d="M16.1413 12.9513V12.1488L17.1826 12.1223C17.3538 12.1223 17.5225 12.0811 17.6744 12.0021C17.8263 11.9232 17.957 11.8088 18.0554 11.6687C18.7385 10.6937 15.9543 8.33005 15.7567 6.90945C15.445 4.67309 14.2923 3.27901 12.7218 2.50305" stroke="#3423A6" stroke-width="1.43" stroke-linecap="round" stroke-linejoin="round"/>
<path d="M12.3014 16.9637V18.6098" stroke="#3423A6" stroke-width="1.43" stroke-linecap="round" stroke-linejoin="round"/>
<path d="M9.3395 12.6529C11.0373 12.6529 11.9924 11.6979 11.9924 10C11.9924 8.3022 11.0373 7.34717 9.3395 7.34717C7.64167 7.34717 6.68665 8.3022 6.68665 10C6.68665 11.6979 7.64167 12.6529 9.3395 12.6529Z" fill="white"/>
<path d="M9.3395 12.6529C11.0373 12.6529 11.9924 11.6979 11.9924 10C11.9924 8.3022 11.0373 7.34717 9.3395 7.34717C7.64167 7.34717 6.68665 8.3022 6.68665 10C6.68665 11.6979 7.64167 12.6529 9.3395 12.6529Z" stroke="#3423A6" stroke-width="1.43" stroke-linecap="round" stroke-linejoin="round"/>
</svg>
