<svg width="120" height="23" viewBox="0 0 120 23" fill="none" xmlns="http://www.w3.org/2000/svg">
<g clip-path="url(#clip0_1297_280)">
<path d="M113.586 19.3288C113.586 17.5746 115.01 16.1515 116.764 16.1515C118.518 16.1515 119.94 17.5746 119.94 19.3288C119.94 21.083 118.518 22.5053 116.764 22.5053C115.01 22.5053 113.586 21.083 113.586 19.3288Z" fill="#152330"/>
<path d="M12.2546 10.9142C12.2546 8.90184 11.8657 7.40873 11.0878 6.4361C10.3091 5.46415 9.12957 4.97872 7.54362 4.97872H5.85658V17.2855H7.14737C8.90898 17.2855 10.1998 16.7634 11.0216 15.7152C11.8427 14.6691 12.2545 13.0684 12.2545 10.9142H12.2546ZM18.2709 10.7046C18.2709 14.3711 17.2853 17.1964 15.3142 19.1794C13.3431 21.1634 10.5721 22.1554 7.00027 22.1554H0.0599365V0.185284H7.48475C10.9288 0.185284 13.5877 1.08727 15.4612 2.89015C17.3342 4.69398 18.2709 7.29762 18.2709 10.7047V10.7046ZM37.4957 22.1551H43.0184V0.0931237H37.4957V22.1551ZM50.7767 13.9259C50.7767 15.3325 50.9606 16.4054 51.3275 17.1427C51.6952 17.8811 52.3111 18.2497 53.1772 18.2497C54.034 18.2497 54.64 17.8811 54.9929 17.1427C55.346 16.4054 55.5215 15.3325 55.5215 13.9259C55.5215 12.5266 55.3432 11.4711 54.9856 10.7586C54.627 10.0443 54.0157 9.68662 53.1488 9.68662C52.3011 9.68662 51.6953 10.0425 51.3275 10.7503C50.9606 11.4592 50.7767 12.5173 50.7767 13.9259ZM61.1427 13.9259C61.1427 16.6058 60.4403 18.6964 59.0318 20.1951C57.6243 21.6946 55.6539 22.4448 53.1212 22.4448C50.6921 22.4448 48.7586 21.6781 47.3236 20.1445C45.8866 18.611 45.1686 16.5387 45.1686 13.9259C45.1686 11.2542 45.8719 9.17818 47.2804 7.69793C48.6888 6.21781 50.6637 5.47769 53.2066 5.47769C54.7778 5.47769 56.1679 5.82061 57.3723 6.50566C58.5776 7.19044 59.508 8.17159 60.1616 9.44939C60.8162 10.7256 61.1427 12.2185 61.1427 13.9259ZM63.3358 22.1552H68.8595V5.76743H63.3358V22.1552ZM63.3357 3.78523H68.8593V0.092041H63.3357V3.78523ZM80.0499 17.9754C80.7956 17.9754 81.6838 17.7859 82.7199 17.41V21.5333C81.9752 21.8606 81.2672 22.095 80.5942 22.2339C79.9212 22.3746 79.1314 22.4444 78.2278 22.4444C76.3734 22.4444 75.0367 21.9784 74.2157 21.0478C73.3983 20.1174 72.9882 18.6887 72.9882 16.7608V10.0053H71.0539V5.76878H72.9883V1.5838L78.5542 0.615773V5.76878H82.0781V10.0053H78.5541V16.3839C78.5541 17.4449 79.0535 17.9754 80.0499 17.9754ZM92.8336 17.9754C93.5793 17.9754 94.4673 17.7859 95.5034 17.41V21.5333C94.7598 21.8606 94.0509 22.095 93.3779 22.2339C92.7039 22.3746 91.917 22.4444 91.0114 22.4444C89.1571 22.4444 87.8203 21.9784 87.0011 21.0478C86.1819 20.1174 85.7719 18.6887 85.7719 16.7608V10.0053H83.8366V5.76878H85.7719V1.52033L91.3368 0.615773V5.76878H94.8627V10.0053H91.3368V16.3839C91.3368 17.4449 91.8362 17.9754 92.8336 17.9754ZM102.473 11.9295C102.548 11.0322 102.805 10.3748 103.242 9.95458C103.682 9.53532 104.224 9.32583 104.873 9.32583C105.581 9.32583 106.144 9.56117 106.561 10.0355C106.982 10.5071 107.2 11.1387 107.218 11.9295H102.473ZM110.262 7.40981C108.949 6.12267 107.086 5.47823 104.677 5.47823C102.144 5.47823 100.195 6.21835 98.8285 7.69847C97.4631 9.17873 96.7801 11.3023 96.7801 14.0699C96.7801 16.7497 97.5185 18.8165 98.9913 20.2672C100.465 21.718 102.534 22.4443 105.2 22.4443C106.48 22.4443 107.581 22.357 108.504 22.1831C109.422 22.0112 110.31 21.7005 111.171 21.2519L110.323 17.5587C109.696 17.8144 109.101 18.0111 108.538 18.1406C107.725 18.3292 106.833 18.4239 105.863 18.4239C104.798 18.4239 103.958 18.1638 103.342 17.6433C102.726 17.122 102.397 16.4031 102.36 15.4875H112.232V12.9711C112.232 10.5504 111.576 8.696 110.262 7.40981ZM25.601 11.9295C25.6764 11.0322 25.9328 10.3748 26.3705 9.95458C26.809 9.53532 27.3523 9.32583 28.0023 9.32583C28.7085 9.32583 29.2711 9.56117 29.6895 10.0355C30.1096 10.5071 30.3275 11.1387 30.3468 11.9295H25.601ZM33.3907 7.40981C32.077 6.12267 30.2153 5.47823 27.8047 5.47823C25.2708 5.47823 23.3227 6.21835 21.9575 7.69847C20.5923 9.17873 19.9082 11.3023 19.9082 14.0699C19.9082 16.7497 20.6456 18.8165 22.1202 20.2672C23.5931 21.718 25.6626 22.4443 28.3278 22.4443C29.6076 22.4443 30.709 22.357 31.632 22.1831C32.5496 22.0112 33.4376 21.7005 34.3001 21.2519L33.4506 17.5587C32.8245 17.8144 32.2286 18.0111 31.667 18.1406C30.8524 18.3292 29.9615 18.4239 28.9907 18.4239C27.9269 18.4239 27.0857 18.1638 26.4698 17.6433C25.8529 17.122 25.5256 16.4031 25.4879 15.4875H35.3602V12.9711C35.3602 10.5504 34.7037 8.696 33.3908 7.40981" fill="#000F08"/>
</g>
<defs>
<clipPath id="clip0_1297_280">
<rect width="120" height="22.5974" fill="white"/>
</clipPath>
</defs>
</svg>
