<svg width="120" height="29" viewBox="0 0 120 29" fill="none" xmlns="http://www.w3.org/2000/svg">
<g clip-path="url(#clip0_1297_231)">
<path d="M21.0738 0L17.2401 5.19471C17.2401 5.19471 37.0889 5.19471 38.1097 5.19471C39.1758 5.19471 39.1532 5.60302 38.6314 6.30624C38.1097 7.00945 37.225 8.2344 36.7032 8.9603C36.431 9.32325 35.9547 9.9811 37.5653 9.9811C39.2893 9.9811 46.0946 9.9811 46.0946 9.9811C46.0946 9.9811 47.4783 8.12098 48.6352 6.55576C50.2004 4.42344 48.7713 0 43.1683 0C38.1324 0 21.0738 0 21.0738 0Z" fill="#000F08"/>
<path d="M15.6975 16.9451L23.3875 6.48767C23.3875 6.48767 31.9168 6.48767 32.9376 6.48767C33.9811 6.48767 33.9811 6.89599 33.4593 7.5992C32.9376 8.30241 32.0529 9.52737 31.5085 10.2533C31.2363 10.6162 30.7599 11.2967 32.3705 11.2967C34.0945 11.2967 45.1644 11.2967 45.1644 11.2967C44.0983 12.7485 40.6502 16.9678 34.4574 16.9678C29.4215 16.9451 15.6975 16.9451 15.6975 16.9451Z" fill="#000F08"/>
<path d="M59.7505 11.274L55.5766 16.9451H44.5747L48.7486 11.274H59.7505Z" fill="#000F08"/>
<path d="M76.6049 10.0038H49.6786L57.051 0H68.0529L63.8336 5.73913H68.7334L72.9527 0H83.9546L76.6049 10.0038Z" fill="#000F08"/>
<path d="M75.6521 11.274L71.4782 16.9451H60.4763L64.6502 11.274H75.6521Z" fill="#000F08"/>
<path d="M0 13.5199H16.1966L15.3119 14.7222H0V13.5199Z" fill="#000F08"/>
<path d="M0 11.274H17.8526L16.9679 12.4763H0V11.274Z" fill="#000F08"/>
<path d="M0 15.7429H14.5633L13.6786 16.9452H0V15.7429Z" fill="#000F08"/>
<path d="M119.841 14.7222H103.713L104.597 13.5199H119.841V14.7222Z" fill="#000F08"/>
<path d="M119.841 16.9452H102.057L102.941 15.7429H119.841V16.9452Z" fill="#000F08"/>
<path d="M106.231 11.274H119.841V12.4763H105.346L106.231 11.274Z" fill="#000F08"/>
<path d="M99.1758 0L91.8261 10.0038H80.1664C80.1664 10.0038 87.5161 0 87.5388 0H99.1758Z" fill="#000F08"/>
<path d="M79.2363 11.274C79.2363 11.274 78.4423 12.3629 78.034 12.9073C76.6503 14.7674 77.8752 16.9451 82.3894 16.9451C87.5841 16.9451 100.06 16.9451 100.06 16.9451L104.234 11.274H79.2363Z" fill="#000F08"/>
<path d="M0 21.845H38.2231M81.6181 21.845H119.841M0 27.8109H38.2231M81.6181 27.8109H119.841" stroke="#000F08" stroke-width="1.0508" stroke-miterlimit="10"/>
<path d="M0 24.8394H38.2231M81.6181 24.8394H119.841" stroke="#000F08" stroke-width="1.0625" stroke-miterlimit="10"/>
<path d="M40.2419 27.9244H43.8487L44.4159 27.1304H41.7391L43.2363 25.1115H45.6862L46.276 24.3176H43.8261L45.1644 22.5028H47.8412L48.4083 21.7316H44.8015L40.2419 27.9244Z" fill="#000F08"/>
<path fill-rule="evenodd" clip-rule="evenodd" d="M44.6654 27.9244H45.7769L49.5425 25.293L49.5198 27.9244H50.6767V24.6805L55.0321 21.7316H53.9887L50.518 24.1134L50.5633 21.7316H49.4518L49.4064 24.7032L44.6654 27.9244Z" fill="#000F08"/>
<path fill-rule="evenodd" clip-rule="evenodd" d="M56.4386 22.5028H57.2326C57.7997 22.5028 58.4348 22.775 57.8677 23.569C57.2552 24.3856 56.3479 24.6578 55.7808 24.6578H54.8734L56.4386 22.5028ZM51.5161 27.9244H52.4462L54.2609 25.4518H55.1683C56.3252 25.4518 57.7997 24.9754 58.8205 23.5917C59.8639 22.1853 59.0927 21.7316 57.777 21.7316H56.0983L51.5161 27.9244Z" fill="#000F08"/>
<path fill-rule="evenodd" clip-rule="evenodd" d="M56.8242 27.9244H57.7543L59.7732 25.1796H60.3176C60.8167 25.1796 61.1116 25.1796 60.9528 25.7694L60.363 27.9244H61.4065L62.0189 25.4518C62.087 25.0662 62.0643 24.9301 61.8375 24.8393L61.8601 24.8166C62.6995 24.7032 63.6749 24.1588 64.2193 23.4102C65.3082 21.9357 64.242 21.7316 62.949 21.7316H61.3611L56.8242 27.9244ZM61.7467 22.5028H62.6314C63.4707 22.5028 63.6522 22.8658 63.2439 23.4102C62.8129 24 62.0189 24.3856 61.1342 24.3856H60.3403L61.7467 22.5028Z" fill="#000F08"/>
<path d="M62.3818 27.9244H65.9886L66.5557 27.1304H63.879L65.3762 25.1115H67.8261L68.3932 24.3176H65.9433L67.2816 22.5028H69.9811L70.5482 21.7316H66.9414L62.3818 27.9244Z" fill="#000F08"/>
<path d="M74.9944 21.845C74.6541 21.6862 74.2004 21.6182 73.7921 21.6182C72.6352 21.6182 71.2968 22.208 70.4802 23.2968C69.0511 25.225 72.1135 24.8393 71.0927 26.2231C70.5483 26.949 69.6182 27.2439 69.0738 27.2439C68.5974 27.2439 68.1891 27.0624 67.9622 26.949L67.259 27.7656C67.5766 27.9017 67.9396 28.0151 68.3932 28.0151C69.6863 28.0151 71.138 27.4934 72.1135 26.1777C73.6106 24.1361 70.639 24.4083 71.5237 23.2288C72.0001 22.5709 72.7486 22.4121 73.2477 22.4121C73.7241 22.4121 73.9282 22.4802 74.2685 22.6616L74.9944 21.845Z" fill="#000F08"/>
<path d="M79.5992 21.845C79.259 21.6862 78.8053 21.6182 78.397 21.6182C77.2401 21.6182 75.9017 22.208 75.0851 23.2968C73.656 25.225 76.7183 24.8393 75.6975 26.2231C75.1531 26.949 74.2231 27.2439 73.6786 27.2439C73.2023 27.2439 72.7939 27.0624 72.5671 26.949L71.8639 27.7656C72.1815 27.9017 72.5444 28.0151 72.9981 28.0151C74.2911 28.0151 75.7429 27.4934 76.7183 26.1777C78.2155 24.1361 75.2439 24.4083 76.1285 23.2288C76.6049 22.5709 77.3535 22.4121 77.8752 22.4121C78.3516 22.4121 78.5558 22.4802 78.896 22.6616L79.5992 21.845Z" fill="#000F08"/>
</g>
<defs>
<clipPath id="clip0_1297_231">
<rect width="120" height="28.1285" fill="white"/>
</clipPath>
</defs>
</svg>
