<svg width="371" height="472" viewBox="0 0 371 472" fill="none" xmlns="http://www.w3.org/2000/svg">
<path fill-rule="evenodd" clip-rule="evenodd" d="M84.2952 218.066L330.838 311.229L350.52 63.8301L96.7262 28.6349L84.2952 218.066Z" fill="#EFEFEF"/>
<path fill-rule="evenodd" clip-rule="evenodd" d="M66.1433 0.179199L63.6941 99.6989V99.7275L166.58 126.654L173.929 9.15427L66.1433 0.179199Z" fill="white"/>
<path fill-rule="evenodd" clip-rule="evenodd" d="M349.484 289.492L206.53 239.805L213.782 176.66L356.735 201.504L349.484 289.492Z" fill="white"/>
<path fill-rule="evenodd" clip-rule="evenodd" d="M110.389 207.597L172.252 227.829C172.861 228.028 173.193 228.683 172.994 229.292C172.794 229.9 172.139 230.232 171.53 230.033L107.92 209.23L114.272 134.795C114.326 134.157 114.888 133.683 115.526 133.738C116.165 133.792 116.638 134.354 116.584 134.992L110.389 207.597Z" fill="#010101"/>
<path fill-rule="evenodd" clip-rule="evenodd" d="M174.876 150.774C174.876 152.345 173.601 153.619 172.028 153.619C170.456 153.619 169.181 152.345 169.181 150.774C169.181 149.202 170.456 147.928 172.028 147.928C173.601 147.928 174.876 149.202 174.876 150.774Z" fill="#000F08"/>
<path fill-rule="evenodd" clip-rule="evenodd" d="M139.078 148.741C139.078 150.313 137.804 151.587 136.23 151.587C134.657 151.587 133.383 150.313 133.383 148.741C133.383 147.17 134.657 145.896 136.23 145.896C137.804 145.896 139.078 147.17 139.078 148.741Z" fill="#000F08"/>
<path fill-rule="evenodd" clip-rule="evenodd" d="M164.299 198.538C164.299 199.997 163.116 201.18 161.655 201.18C160.195 201.18 159.011 199.997 159.011 198.538C159.011 197.078 160.195 195.896 161.655 195.896C163.116 195.896 164.299 197.078 164.299 198.538Z" fill="#000F08"/>
<path fill-rule="evenodd" clip-rule="evenodd" d="M308.801 84.0016L209.373 71.5795C207.66 71.3685 206.08 72.4678 205.819 74.0517L205.198 82.5328C204.929 84.1624 206.155 85.6784 207.917 85.8956L307.347 98.3177C309.059 98.5287 310.639 97.4294 310.9 95.8447L311.521 87.3644C311.789 85.7348 310.562 84.2181 308.801 84.0016Z" fill="#3423A6"/>
<path fill-rule="evenodd" clip-rule="evenodd" d="M276.566 104.812L209.038 95.6927C207.893 95.5621 206.767 96.7263 206.506 98.3103L205.886 106.791C205.618 108.42 206.364 109.869 207.542 110.003L275.069 119.122C276.215 119.252 277.34 118.089 277.602 116.504L278.223 108.024C278.49 106.394 277.743 104.945 276.566 104.812Z" fill="#3423A6"/>
<path fill-rule="evenodd" clip-rule="evenodd" d="M257.915 125.609L209.038 118.652C207.893 118.523 206.768 119.686 206.507 121.27L205.886 129.751C205.617 131.381 206.364 132.829 207.543 132.963L256.418 139.92C257.565 140.05 258.69 138.886 258.951 137.301L259.572 128.821C259.84 127.192 259.093 125.743 257.915 125.609Z" fill="#3423A6"/>
<path fill-rule="evenodd" clip-rule="evenodd" d="M207.605 240.241C207.364 240.834 206.687 241.12 206.093 240.879C205.5 240.638 205.214 239.961 205.455 239.368C208.679 231.441 211.486 225.775 215.19 220.778C220.497 213.619 226.47 209.982 233.235 211.014C238.673 211.843 242.209 215.43 246.083 222.325C246.584 223.215 248.171 226.154 248.381 226.534C250.674 230.683 252.868 233.808 255.308 235.871C258.452 238.531 261.363 238.801 264.384 236.163C266.989 233.889 268.316 230.611 269.347 225.079C269.492 224.301 269.516 224.164 269.858 222.153C270.215 220.06 270.431 218.916 270.721 217.718C270.967 216.698 272.016 212.126 272.293 210.956C273.013 207.923 273.676 205.388 274.409 202.95C277.435 192.891 281.207 186.196 286.601 183.342C291.219 180.9 295.203 182.242 298.3 186.622C300.693 190.007 302.553 195.107 304.102 201.756C305.207 206.499 307.273 218.864 307.308 219.018C308.95 226.338 313.25 231.97 318.773 232.866C323.92 233.7 329.171 230.588 334.512 224.573C340.575 217.747 345.616 210.016 349.414 201.719C349.867 200.728 352.307 195.05 353.087 193.365C357.509 183.822 362.069 178.586 369.082 177.401C369.714 177.294 370.312 177.72 370.419 178.351C370.526 178.983 370.1 179.581 369.469 179.688C363.435 180.707 359.321 185.431 355.193 194.339C354.43 195.986 351.993 201.658 351.524 202.683C347.631 211.19 342.464 219.114 336.248 226.113C330.43 232.664 324.547 236.151 318.401 235.155C311.763 234.079 306.87 227.671 305.043 219.525C304.989 219.285 302.926 206.932 301.842 202.282C300.355 195.902 298.583 191.041 296.404 187.961C293.935 184.468 291.185 183.541 287.687 185.392C283.01 187.865 279.49 194.114 276.632 203.618C275.914 206.006 275.262 208.5 274.552 211.491C274.277 212.648 273.227 217.226 272.977 218.262C272.703 219.393 272.494 220.499 272.146 222.542C271.801 224.569 271.777 224.709 271.629 225.504C270.509 231.508 269.015 235.199 265.911 237.909C261.943 241.375 257.764 240.987 253.808 237.642C251.096 235.347 248.77 232.035 246.349 227.656C246.13 227.259 244.548 224.33 244.06 223.46C240.506 217.136 237.411 213.997 232.884 213.307C227.138 212.43 221.904 215.618 217.055 222.158C213.498 226.956 210.761 232.483 207.605 240.241Z" fill="#000F08"/>
<path fill-rule="evenodd" clip-rule="evenodd" d="M94.9113 30.3384C87.1358 36.8235 82.1135 47.0725 82.1135 58.6126C82.1135 78.2217 96.6055 94.117 114.483 94.117C128.018 94.117 139.606 85.002 144.44 72.0667L110.909 62.014L94.9113 30.3384Z" fill="#E2F1FF"/>
<path fill-rule="evenodd" clip-rule="evenodd" d="M116.793 23.208C116.029 23.1485 115.261 23.1083 114.483 23.1083C107.127 23.1083 100.347 25.8039 94.9114 30.3386L110.909 62.0142L116.793 23.208Z" fill="#3423A6"/>
<path fill-rule="evenodd" clip-rule="evenodd" d="M116.793 23.208L110.909 62.0142L146.813 60.3374C146.838 59.7661 146.852 59.191 146.852 58.6128C146.852 39.8571 133.591 24.5083 116.793 23.208Z" fill="#F4D81A"/>
<path fill-rule="evenodd" clip-rule="evenodd" d="M110.908 62.014L144.44 72.0659C145.803 68.4202 146.633 64.473 146.812 60.338L110.908 62.014Z" fill="#000F08"/>
<path fill-rule="evenodd" clip-rule="evenodd" d="M254.412 377.451C254.446 377.385 254.467 377.316 254.486 377.246C254.519 377.18 254.54 377.11 254.559 377.04C254.593 376.974 254.613 376.904 254.633 376.834C254.666 376.768 254.686 376.699 254.706 376.628C254.739 376.562 254.76 376.493 254.779 376.422C254.813 376.357 254.833 376.287 254.853 376.217C254.886 376.151 254.907 376.081 254.926 376.011C254.96 375.945 254.98 375.875 254.999 375.805C255.044 375.718 255.077 375.626 255.097 375.533C255.126 375.465 255.155 375.397 255.17 375.326C255.199 375.258 255.228 375.191 255.244 375.12C255.273 375.052 255.302 374.984 255.317 374.913C255.347 374.845 255.375 374.777 255.39 374.706C255.42 374.638 255.448 374.571 255.464 374.5C255.493 374.432 255.522 374.364 255.537 374.293C255.567 374.225 255.595 374.157 255.611 374.087C255.64 374.019 255.668 373.951 255.684 373.88C255.714 373.812 255.742 373.744 255.758 373.674C255.787 373.606 255.816 373.538 255.831 373.467C255.861 373.399 255.889 373.331 255.905 373.26C255.934 373.192 255.962 373.125 255.979 373.054C256.008 372.986 256.036 372.918 256.052 372.848C256.082 372.78 256.109 372.712 256.125 372.641C256.155 372.573 256.183 372.505 256.199 372.434C256.229 372.367 256.256 372.299 256.273 372.228C256.302 372.16 256.33 372.092 256.346 372.022C256.376 371.954 256.403 371.885 256.419 371.815C256.45 371.747 256.477 371.679 256.493 371.609C256.523 371.541 256.551 371.473 256.567 371.402C256.597 371.334 256.624 371.266 256.64 371.196C256.67 371.128 256.698 371.06 256.714 370.989C256.744 370.921 256.772 370.853 256.788 370.783C256.818 370.715 256.845 370.647 256.862 370.576C256.891 370.508 256.919 370.44 256.935 370.37C256.965 370.302 256.993 370.234 257.009 370.163C257.039 370.095 257.066 370.028 257.083 369.957C257.112 369.889 257.139 369.821 257.156 369.75C257.186 369.682 257.213 369.615 257.23 369.544C257.26 369.476 257.287 369.408 257.304 369.337C257.334 369.269 257.361 369.202 257.378 369.131C257.407 369.063 257.434 368.995 257.451 368.925C257.481 368.857 257.508 368.789 257.525 368.719C257.555 368.65 257.582 368.582 257.599 368.512C257.628 368.444 257.655 368.376 257.673 368.306C257.702 368.238 257.729 368.17 257.746 368.099C257.776 368.031 257.802 367.963 257.82 367.893C257.85 367.825 257.876 367.757 257.894 367.686C257.918 367.633 257.932 367.577 257.948 367.522C257.988 367.441 258.021 367.358 258.042 367.274C258.318 366.652 258.061 365.903 257.331 365.724L219.899 356.58C219.278 356.428 218.704 356.828 218.561 357.397C218.53 357.462 218.505 357.53 218.487 357.603C218.456 357.668 218.431 357.738 218.413 357.81C218.381 357.877 218.356 357.944 218.338 358.017C218.306 358.083 218.281 358.151 218.263 358.224C218.232 358.29 218.207 358.359 218.189 358.431C218.157 358.497 218.133 358.565 218.115 358.637C218.083 358.704 218.058 358.772 218.04 358.845C218.008 358.911 217.984 358.979 217.965 359.051C217.934 359.117 217.909 359.186 217.891 359.258C217.86 359.324 217.835 359.393 217.817 359.465C217.785 359.531 217.76 359.599 217.742 359.672C217.71 359.738 217.686 359.806 217.667 359.879C217.636 359.945 217.611 360.013 217.593 360.086C217.562 360.151 217.537 360.22 217.518 360.292C217.487 360.358 217.462 360.427 217.444 360.499C217.412 360.565 217.388 360.633 217.37 360.706C217.338 360.772 217.313 360.841 217.295 360.913C217.264 360.979 217.239 361.047 217.22 361.12C217.189 361.185 217.164 361.254 217.146 361.326C217.114 361.393 217.09 361.461 217.072 361.533C217.04 361.599 217.015 361.668 216.997 361.74C216.966 361.806 216.941 361.875 216.922 361.947C216.891 362.013 216.866 362.081 216.848 362.154C216.817 362.22 216.792 362.288 216.774 362.36C216.742 362.427 216.717 362.495 216.699 362.567C216.668 362.634 216.643 362.702 216.624 362.774C216.593 362.84 216.568 362.909 216.55 362.981C216.519 363.047 216.494 363.115 216.476 363.188C216.444 363.254 216.419 363.322 216.401 363.395C216.37 363.461 216.345 363.529 216.327 363.602C216.295 363.668 216.27 363.736 216.252 363.809C216.221 363.875 216.196 363.943 216.178 364.015C216.146 364.081 216.121 364.15 216.103 364.222C216.072 364.288 216.047 364.357 216.029 364.429C215.997 364.495 215.972 364.563 215.954 364.636C215.922 364.702 215.898 364.77 215.88 364.843C215.848 364.909 215.824 364.977 215.805 365.049C215.774 365.116 215.749 365.184 215.731 365.256C215.699 365.322 215.674 365.391 215.656 365.463C215.624 365.529 215.6 365.598 215.582 365.67C215.55 365.736 215.525 365.804 215.507 365.877C215.476 365.943 215.451 366.011 215.433 366.083C215.401 366.15 215.376 366.218 215.358 366.291C215.326 366.356 215.302 366.425 215.284 366.497C215.252 366.563 215.227 366.632 215.209 366.704C215.178 366.77 215.153 366.838 215.135 366.911C215.103 366.977 215.078 367.045 215.06 367.118C215.028 367.184 215.004 367.252 214.986 367.325C214.954 367.391 214.929 367.459 214.911 367.531C214.816 367.732 214.771 367.961 214.814 368.205L220.745 401.82C220.892 402.649 221.862 403.025 222.525 402.51L234.371 393.308C234.517 393.194 234.725 393.201 234.863 393.327L244.774 402.313C245.176 402.676 245.779 402.698 246.206 402.365L253.691 396.513C253.898 396.351 254.031 396.132 254.088 395.898C254.12 395.831 254.145 395.762 254.162 395.691C254.193 395.624 254.22 395.555 254.237 395.484C254.268 395.417 254.294 395.348 254.312 395.277C254.343 395.21 254.369 395.141 254.386 395.071C254.417 395.003 254.443 394.935 254.46 394.863C254.491 394.797 254.518 394.728 254.535 394.657C254.566 394.589 254.593 394.521 254.61 394.45C254.641 394.383 254.667 394.314 254.684 394.243C254.715 394.176 254.741 394.107 254.758 394.036C254.789 393.969 254.816 393.9 254.833 393.829C254.864 393.762 254.891 393.693 254.908 393.623C254.939 393.555 254.965 393.487 254.982 393.416C255.013 393.349 255.039 393.28 255.056 393.209C255.087 393.142 255.114 393.073 255.131 393.002C255.162 392.935 255.189 392.866 255.206 392.795C255.237 392.728 255.263 392.659 255.28 392.588C255.311 392.521 255.337 392.453 255.355 392.382C255.386 392.315 255.412 392.246 255.429 392.174C255.46 392.108 255.487 392.039 255.504 391.968C255.535 391.901 255.56 391.832 255.578 391.761C255.609 391.694 255.635 391.625 255.653 391.554C255.684 391.487 255.71 391.418 255.727 391.347C255.758 391.281 255.784 391.212 255.802 391.14C255.833 391.073 255.858 391.004 255.876 390.934C255.907 390.867 255.933 390.798 255.95 390.727C255.982 390.66 256.008 390.591 256.025 390.52C256.056 390.453 256.082 390.384 256.1 390.313C256.131 390.246 256.156 390.177 256.174 390.106C256.205 390.039 256.231 389.97 256.248 389.9C256.279 389.832 256.306 389.764 256.323 389.693C256.354 389.626 256.38 389.557 256.398 389.486C256.429 389.419 256.454 389.35 256.472 389.279C256.503 389.212 256.529 389.143 256.546 389.072C256.577 389.005 256.603 388.936 256.621 388.865C256.652 388.798 256.678 388.73 256.696 388.658C256.727 388.592 256.752 388.523 256.769 388.451C256.801 388.385 256.827 388.316 256.844 388.245C256.875 388.178 256.901 388.109 256.919 388.038C256.95 387.971 256.976 387.902 256.993 387.831C257.025 387.764 257.05 387.695 257.068 387.624C257.099 387.557 257.125 387.488 257.142 387.417C257.173 387.351 257.199 387.282 257.217 387.211C257.248 387.144 257.274 387.075 257.291 387.004C257.322 386.937 257.348 386.868 257.366 386.797C257.397 386.73 257.423 386.661 257.44 386.59C257.471 386.523 257.497 386.454 257.515 386.383C257.546 386.316 257.572 386.248 257.589 386.176C257.616 386.118 257.638 386.057 257.654 385.996C257.691 385.921 257.719 385.843 257.738 385.763C257.938 385.334 257.857 384.8 257.478 384.457L252.073 379.556L254.025 378.039C254.231 377.879 254.353 377.671 254.412 377.451Z" fill="#010101"/>
<path fill-rule="evenodd" clip-rule="evenodd" d="M225.645 391.618C225.75 391.618 225.85 391.584 225.938 391.516L237.784 382.359C237.961 382.222 238.18 382.147 238.404 382.147C238.656 382.147 238.898 382.24 239.084 382.409L248.995 391.35C249.085 391.431 249.2 391.475 249.32 391.475C249.429 391.475 249.531 391.44 249.617 391.373L257.104 385.549C257.216 385.462 257.284 385.329 257.289 385.186C257.295 385.042 257.237 384.905 257.13 384.809L246.74 375.436L247.138 375.128L257.439 367.166C257.592 367.047 257.656 366.872 257.616 366.682C257.575 366.492 257.446 366.359 257.257 366.313L219.824 357.213C219.785 357.203 219.745 357.198 219.706 357.198C219.566 357.198 219.432 357.261 219.338 357.374C219.244 357.486 219.208 357.622 219.233 357.767L225.165 391.218C225.208 391.459 225.417 391.618 225.645 391.618Z" fill="#F4F0F0"/>
<path fill-rule="evenodd" clip-rule="evenodd" d="M196.316 350.93L205.674 356.364C205.975 356.538 206.077 356.924 205.902 357.225C205.728 357.526 205.342 357.628 205.041 357.453L195.683 352.02C195.382 351.845 195.28 351.459 195.454 351.158C195.629 350.858 196.015 350.755 196.316 350.93ZM203.323 341.388L211.307 351.074C211.528 351.343 211.49 351.74 211.221 351.961C210.953 352.182 210.555 352.144 210.334 351.875L202.35 342.19C202.128 341.921 202.167 341.524 202.435 341.303C202.704 341.082 203.101 341.12 203.323 341.388ZM217.316 336.95C217.664 336.95 217.946 337.232 217.946 337.58V349.34C217.946 349.688 217.664 349.97 217.316 349.97C216.967 349.97 216.685 349.688 216.685 349.34V337.58C216.685 337.232 216.967 336.95 217.316 336.95Z" fill="#010101"/>
<path fill-rule="evenodd" clip-rule="evenodd" d="M52.4836 428.188L89.9166 367.226L59.0671 361.424L40.5184 460.231C40.5184 460.231 22.6904 462.57 9.00403 454.291C9.00403 454.291 30.7943 346.739 35.1166 340.62L63.3981 339.91C63.3981 339.91 104.301 340.196 116.28 349.989C128.032 359.597 85.2896 437.239 85.2896 437.239" fill="#94C0E9"/>
<path fill-rule="evenodd" clip-rule="evenodd" d="M42.165 340.391C42.2919 340.423 42.3684 340.552 42.3361 340.679C42.3312 340.698 42.3218 340.734 42.3081 340.787C42.2852 340.874 42.2584 340.976 42.2278 341.09C42.1404 341.416 42.0401 341.78 41.9286 342.171C41.61 343.29 41.2647 344.408 40.9049 345.453C40.4016 346.914 39.911 348.111 39.4455 348.955C39.2992 349.22 39.1559 349.449 39.0153 349.641C38.7141 350.051 38.274 350.401 37.7143 350.696L14.3422 456.915C14.3141 457.043 14.1877 457.124 14.0599 457.096C13.9321 457.068 13.8513 456.941 13.8794 456.814L37.1733 350.949C36.6835 351.153 36.125 351.326 35.5069 351.471C34.6699 351.666 33.7754 351.797 32.8813 351.876C32.5685 351.904 32.278 351.923 32.0171 351.935C31.9256 351.939 31.8442 351.943 31.7738 351.945C31.7312 351.946 31.7015 351.947 31.6857 351.947C31.5548 351.949 31.4471 351.845 31.4451 351.714C31.4431 351.583 31.5475 351.475 31.6784 351.473C31.692 351.473 31.7194 351.472 31.7596 351.471C31.8274 351.469 31.9062 351.466 31.995 351.462C32.2497 351.45 32.5336 351.432 32.8396 351.405C33.713 351.328 34.5861 351.2 35.3989 351.01C36.1314 350.838 36.7716 350.626 37.3004 350.373C37.3276 350.247 37.454 350.166 37.5818 350.194C37.5951 350.197 37.6078 350.201 37.62 350.206C38.058 349.959 38.4004 349.678 38.6332 349.361C38.7607 349.187 38.8934 348.975 39.0305 348.726C39.4801 347.911 39.9616 346.737 40.4568 345.299C40.8135 344.263 41.1564 343.152 41.4728 342.042C41.5836 341.653 41.6832 341.292 41.77 340.968C41.8003 340.854 41.8269 340.754 41.8495 340.667C41.8631 340.615 41.8723 340.58 41.8769 340.562C41.9092 340.435 42.0382 340.359 42.165 340.391ZM80.7491 440.015C68.4392 443.901 61.8368 441.551 56.6776 438.01C52.8501 435.383 46.8002 425.919 62.4088 422.64C86.1218 417.659 93.0526 436.131 80.7491 440.015ZM93.4739 363.962C93.5624 364.058 93.556 364.208 93.4596 364.297L90.0771 367.401C89.9808 367.489 89.8309 367.483 89.7423 367.387C89.6538 367.29 89.6602 367.141 89.7566 367.052L93.1391 363.948C93.2355 363.859 93.3854 363.866 93.4739 363.962ZM59.9169 357.596C60.0446 357.624 60.1252 357.75 60.0969 357.878L59.2986 361.476C59.2703 361.603 59.1437 361.684 59.016 361.656C58.8882 361.627 58.8076 361.501 58.8359 361.373L59.6342 357.776C59.6626 357.648 59.7891 357.567 59.9169 357.596Z" fill="#3423A6"/>
<path fill-rule="evenodd" clip-rule="evenodd" d="M10.9923 455.407C20.8086 460.509 32.1363 460.718 37.4575 460.47C38.2466 461.214 39.3418 462.124 40.8417 463.239C46.1466 467.181 44.6787 469.538 42.8316 470.75C41.6926 471.498 40.3138 471.795 38.9572 471.662C19.483 469.751 17.4822 461.064 17.4822 461.064C17.4822 461.064 12.9121 468.097 10.3729 465.342C8.51073 463.321 10.0429 458.066 10.9923 455.407ZM66.2502 422.019C73.831 421.164 79.37 422.879 82.7615 425.574C80.536 428.301 78.112 433.02 76.4249 441.182C76.2636 441.963 76.1081 442.772 75.961 443.617C72.2121 465.16 66.2414 462.397 63.4082 458.041C60.3638 453.36 60.956 445.826 61.854 440.747C62.4101 437.602 63.0838 435.397 63.0838 435.397C63.0838 435.397 55.6409 436.704 55.5774 434.134C55.4921 430.674 63.4115 424.22 66.2502 422.019Z" fill="#010101"/>
<path fill-rule="evenodd" clip-rule="evenodd" d="M75.9239 436.737C76.457 436.86 76.9683 436.904 77.4626 436.885C79.0282 431.296 80.96 427.782 82.7616 425.574C79.3701 422.879 73.8311 421.164 66.2503 422.019C66.0273 422.192 65.7702 422.394 65.4908 422.615C67.2874 431.949 69.7901 434.851 75.9239 436.737Z" fill="#000F08"/>
<path fill-rule="evenodd" clip-rule="evenodd" d="M61.8666 279.555C61.6623 279.568 61.4891 279.41 61.4931 279.205C61.4943 279.147 61.495 279.089 61.495 279.031C61.495 272.48 54.9999 267.168 46.9881 267.168C38.976 267.168 32.4809 272.48 32.4809 279.031C32.4809 279.093 32.4816 279.155 32.4828 279.216C32.4871 279.423 32.3103 279.583 32.1044 279.564C31.9876 279.553 31.8691 279.547 31.7487 279.547C29.8879 279.547 28.3793 280.813 28.3793 282.376C28.3793 283.938 29.8879 285.204 31.7487 285.204C32.5037 285.204 33.1991 284.994 33.7605 284.642C33.936 284.532 34.163 284.577 34.2789 284.749C36.2326 287.647 39.6229 289.804 43.6667 290.579C44.0158 290.646 44.2603 290.962 44.2399 291.317L43.8556 298.231H50.1204L49.7363 291.317C49.7159 290.962 49.9604 290.646 50.3094 290.579C54.3301 289.809 57.705 287.672 59.6638 284.799C59.7764 284.634 59.9939 284.584 60.1657 284.686C60.714 285.012 61.3818 285.204 62.1045 285.204C63.9652 285.204 65.4737 283.938 65.4737 282.376C65.4737 280.813 63.9652 279.547 62.1045 279.547C62.0244 279.547 61.945 279.55 61.8666 279.555Z" fill="#000F08"/>
<path fill-rule="evenodd" clip-rule="evenodd" d="M38.1498 254.656C40.4089 253.257 43.1081 252.84 45.7269 253.052C54.1351 253.731 50.0035 265.78 49.8158 266.315C53.5642 266.926 57.062 268.437 58.9954 270.862C62.0412 274.682 61.4931 279.205 61.4931 279.205C46.6526 278.636 43.0243 269.384 43.0243 269.384C42.2817 276.382 32.4828 279.216 32.4828 279.216C32.4871 279.423 32.3102 279.583 32.1043 279.564C31.9875 279.553 31.869 279.547 31.7486 279.547C30.3429 279.547 29.1381 280.27 28.6329 281.297C27.7482 281.597 26.7358 281.926 25.5755 282.306C21.5727 283.618 19.9886 287.365 19.9092 291.302C19.8673 293.384 19.9931 295.571 19.1197 297.515C18.2906 299.361 16.895 300.981 15.3737 302.294C12.0067 305.198 7.19178 306.791 3.079 304.442C-0.316763 302.503 -0.868151 299.87 1.24902 296.69C3.36524 293.512 6.41245 290.971 6.93042 286.983C7.23917 284.606 6.43993 282.486 5.95821 280.197C5.19167 276.555 6.7328 273.376 9.36558 270.855C13.1139 267.267 19.2164 268.527 23.9251 267.549C27.277 266.852 30.379 265.142 32.495 262.418C34.5347 259.793 35.1282 256.527 38.1498 254.656Z" fill="#000F08"/>
<path fill-rule="evenodd" clip-rule="evenodd" d="M48.36 265.741C48.4131 265.974 48.2259 266.191 47.9876 266.179C46.9644 266.127 44.4515 266.009 43.8591 266.066C43.1104 266.137 43.9328 263.993 45.8199 263.928C47.6681 263.864 48.2046 265.058 48.36 265.741Z" fill="#010101"/>
<path fill-rule="evenodd" clip-rule="evenodd" d="M42.9016 281.876C42.8366 281.691 42.9341 281.488 43.1193 281.423C43.3045 281.358 43.5074 281.456 43.5724 281.641C43.5883 281.686 43.6255 281.776 43.6849 281.894C43.7855 282.093 43.9104 282.293 44.06 282.479C44.4739 282.991 44.9876 283.29 45.6214 283.29C46.2642 283.29 46.7949 283.009 47.2292 282.529C47.3851 282.357 47.5167 282.172 47.6239 281.987C47.687 281.878 47.7269 281.796 47.744 281.755C47.8192 281.574 48.0272 281.488 48.2085 281.563C48.3898 281.638 48.4758 281.846 48.4005 282.027C48.2951 282.281 48.0853 282.643 47.7561 283.006C47.1969 283.623 46.4855 284 45.6214 284C44.7484 284 44.0451 283.591 43.5068 282.925C43.1919 282.535 42.9967 282.147 42.9016 281.876Z" fill="#010101"/>
<path fill-rule="evenodd" clip-rule="evenodd" d="M52.5245 281.853C52.4354 281.679 52.505 281.465 52.6799 281.376C52.8548 281.287 53.0688 281.356 53.1579 281.531C53.1801 281.574 53.2287 281.659 53.3024 281.771C53.427 281.959 53.5745 282.148 53.7432 282.323C54.2098 282.808 54.7397 283.091 55.325 283.091C55.8906 283.091 56.3592 282.788 56.7434 282.261C56.884 282.068 57.0022 281.86 57.0977 281.651C57.1543 281.527 57.1901 281.433 57.2057 281.385C57.2659 281.198 57.4661 281.095 57.653 281.156C57.8398 281.216 57.9425 281.416 57.8823 281.603C57.8586 281.676 57.8131 281.796 57.744 281.947C57.6299 282.196 57.4888 282.445 57.3179 282.679C56.8119 283.373 56.1503 283.802 55.325 283.802C54.5194 283.802 53.8199 283.427 53.2309 282.816C52.8865 282.458 52.6509 282.101 52.5245 281.853Z" fill="#010101"/>
<path fill-rule="evenodd" clip-rule="evenodd" d="M47.3848 286.057C47.2768 285.894 47.3222 285.673 47.4861 285.565C47.6501 285.457 47.8705 285.503 47.9785 285.667C48.0015 285.701 48.0563 285.773 48.1432 285.87C48.2926 286.036 48.4751 286.204 48.6909 286.36C49.6425 287.05 50.8794 287.305 52.448 286.861C52.6368 286.808 52.8333 286.917 52.8868 287.106C52.9403 287.295 52.8306 287.491 52.6417 287.545C50.8562 288.05 49.3958 287.749 48.2733 286.935C47.829 286.613 47.5362 286.287 47.3848 286.057Z" fill="#010101"/>
<path fill-rule="evenodd" clip-rule="evenodd" d="M22.8217 306.11C16.1795 317.026 11.5831 346.814 10.9615 363.428C10.3492 379.798 9.82818 385.168 16.1178 386.641L15.388 391.29C15.388 391.29 23.8885 393.294 26.8404 393.294L27.4307 387.962C27.4307 387.962 35.606 390.207 34.7849 364.856C33.9731 339.784 33.9275 344.46 33.9275 344.46C33.9275 344.46 61.3831 345.247 73.1916 343.919C73.1916 343.919 74.7176 358.17 91.5447 351.679C108.372 345.188 120.476 333.091 120.476 333.091C120.476 333.091 125.947 327.854 123.29 322.838L128.456 319.15C128.456 319.15 124.928 312.782 121.814 309.561L115.91 313.249C115.91 313.249 110.565 305.764 94.3967 322.975L86.0832 331.616C86.0832 331.616 81.9015 298.634 56.7952 298.057C53.4928 297.981 29.4639 295.193 22.8217 306.11Z" fill="#010101"/>
<path fill-rule="evenodd" clip-rule="evenodd" d="M31.1462 323.096C31.277 323.1 31.38 323.209 31.3764 323.34L30.8077 343.558C30.8373 343.572 30.8726 343.589 30.9136 343.607C31.1193 343.698 31.3833 343.79 31.7104 343.877C32.3122 344.036 33.0529 344.157 33.9451 344.224C34.0756 344.233 34.1735 344.347 34.1638 344.477C34.1541 344.608 34.0404 344.706 33.9099 344.696C32.9893 344.627 32.2198 344.502 31.589 344.335C30.9831 344.174 30.6114 344.01 30.4353 343.892C30.3675 343.847 30.3276 343.77 30.3299 343.689L30.9026 323.326C30.9063 323.196 31.0153 323.093 31.1462 323.096ZM69.4136 325.171L73.4233 343.869C73.4507 343.997 73.3692 344.123 73.2412 344.15C73.1133 344.178 72.9873 344.096 72.9599 343.969L68.9502 325.27C68.9228 325.142 69.0043 325.016 69.1323 324.989C69.2602 324.961 69.3862 325.043 69.4136 325.171Z" fill="#B9B3B8"/>
<path fill-rule="evenodd" clip-rule="evenodd" d="M15.3881 391.527L20.9057 392.726L26.8407 393.531L21.882 411.414C21.882 411.414 20.7223 416.891 20.5645 417.207C20.4065 417.522 16.9017 417.766 17.4541 413.979C17.4541 413.979 15.9146 416.81 15.0075 417.214C14.6469 417.374 13.2245 418.118 12.6719 415.436C12.6719 415.436 11.4421 416.632 10.6756 416.288C9.51048 415.767 9.3394 415.244 9.68298 413.574C9.68298 413.574 6.71657 414.918 6.87793 410.824C6.99925 407.75 12.32 398.372 12.32 398.372C12.32 398.372 13.1517 393.893 15.3881 391.527ZM145.839 295.866C146.408 295.891 147.042 296.344 146.998 297.119C146.849 299.718 142.709 301.625 142.709 301.625C142.709 301.625 143.562 302.051 143.846 303.33C144.137 304.64 143.704 305.639 143.704 305.639C143.704 305.639 144.589 305.91 144.761 307.345C144.824 307.873 144.813 308.862 144.27 309.354C144.27 309.354 145.95 310.28 144.953 312.746C144.953 312.746 142.797 316.983 136.409 316.451C136.409 316.451 132.683 318.731 128.456 319.387C128.456 319.387 123.829 311.32 121.814 309.798C121.814 309.798 121.542 304.867 128.306 301.075C128.306 301.075 131.261 299.317 133.361 299.34C134.061 299.348 134.607 299.491 134.909 300.246L144.543 296.101C144.955 295.937 145.396 295.845 145.839 295.866ZM55.5762 297.962C55.8324 297.962 49.3896 303.946 41.485 297.893C47.4566 297.482 52.1536 297.505 55.5762 297.962Z" fill="#000F08"/>
<path fill-rule="evenodd" clip-rule="evenodd" d="M16.6397 407.64C16.7536 407.705 16.7937 407.849 16.7293 407.963C16.7217 407.976 16.7068 408.003 16.6851 408.041C16.6489 408.106 16.607 408.18 16.5597 408.265C16.4246 408.506 16.274 408.777 16.1118 409.071C15.6485 409.911 15.1852 410.768 14.753 411.59C14.6696 411.749 14.5881 411.905 14.5086 412.058C13.6895 413.636 13.1199 414.842 12.8966 415.512C12.8553 415.636 12.7211 415.703 12.5969 415.661C12.4728 415.62 12.4057 415.486 12.4471 415.362C12.6809 414.661 13.2571 413.441 14.0879 411.84C14.1678 411.686 14.2497 411.529 14.3334 411.37C14.7673 410.544 15.2321 409.685 15.6968 408.842C15.8595 408.548 16.0105 408.276 16.1461 408.034C16.1936 407.949 16.2357 407.874 16.272 407.809C16.2939 407.77 16.3089 407.744 16.3168 407.73C16.3812 407.616 16.5257 407.576 16.6397 407.64ZM19.9126 407.06C20.0359 407.103 20.1004 407.239 20.0566 407.362L17.6774 414.059C17.6336 414.182 17.4981 414.246 17.3748 414.203C17.2515 414.159 17.187 414.024 17.2308 413.9L19.61 407.203C19.6538 407.08 19.7893 407.016 19.9126 407.06ZM12.8514 406.407C12.9592 406.481 12.9864 406.628 12.9122 406.736C12.9042 406.748 12.8878 406.772 12.8634 406.81C12.8219 406.873 12.7737 406.95 12.7192 407.039C12.5626 407.294 12.3878 407.599 12.1993 407.951C11.6592 408.962 11.1186 410.155 10.6137 411.524C10.3636 412.202 10.1283 412.908 9.9102 413.641C9.87293 413.767 9.74102 413.838 9.61557 413.801C9.49013 413.764 9.41865 413.632 9.45592 413.506C9.67693 412.763 9.9155 412.047 10.1691 411.36C10.6816 409.971 11.2312 408.758 11.7812 407.728C11.9742 407.367 12.1537 407.055 12.3151 406.791C12.3719 406.699 12.4224 406.619 12.4662 406.551C12.4928 406.51 12.5116 406.482 12.5218 406.468C12.596 406.36 12.7436 406.333 12.8514 406.407ZM12.3979 398.149C12.5215 398.192 12.5868 398.327 12.5438 398.45C12.5416 398.456 12.5359 398.477 12.5296 398.509C12.4779 398.77 12.5198 399.065 12.7289 399.348C12.847 399.508 13.0147 399.655 13.2399 399.787C13.3529 399.853 13.3911 399.998 13.3251 400.111C13.2592 400.224 13.1141 400.262 13.0011 400.196C12.7215 400.033 12.5051 399.843 12.3477 399.63C12.05 399.227 11.9892 398.798 12.0647 398.417C12.0755 398.362 12.087 398.321 12.0962 398.294C12.1393 398.171 12.2743 398.106 12.3979 398.149ZM142.919 301.517C142.979 301.633 142.934 301.776 142.817 301.836C142.802 301.844 142.802 301.844 142.727 301.882C142.625 301.934 142.568 301.964 142.472 302.013C142.198 302.154 141.891 302.311 141.561 302.481C140.616 302.965 139.667 303.449 138.775 303.9C138.722 303.927 138.722 303.927 138.669 303.954C136.675 304.963 135.282 305.652 134.743 305.886C133.463 306.443 132.875 307.125 132.822 307.849C132.784 308.364 133.049 308.901 133.347 309.121C133.864 309.502 134.586 309.426 137.018 308.697C139.023 308.096 142.691 306.167 143.553 305.456C143.654 305.373 143.804 305.387 143.887 305.488C143.97 305.589 143.956 305.738 143.855 305.821C142.943 306.573 139.219 308.532 137.155 309.151L137.055 309.181C137.054 309.181 137.053 309.181 137.053 309.181C137.033 309.189 136.993 309.204 136.936 309.228C136.84 309.267 136.733 309.313 136.618 309.367C136.288 309.52 135.958 309.698 135.652 309.899C134.813 310.447 134.317 311.051 134.31 311.668C134.3 312.491 134.606 312.921 135.134 313.096C135.392 313.182 135.672 313.196 135.924 313.169C135.963 313.164 135.99 313.16 136.004 313.157C136.02 313.155 136.051 313.149 136.097 313.14C136.174 313.125 136.264 313.106 136.366 313.083C136.657 313.019 136.982 312.939 137.332 312.842C138.332 312.564 139.331 312.205 140.262 311.757C141.026 311.389 141.71 310.977 142.295 310.518C142.982 309.979 143.476 309.588 143.809 309.321C143.925 309.228 144.013 309.157 144.076 309.106C144.113 309.075 144.134 309.058 144.142 309.052C144.242 308.967 144.391 308.98 144.476 309.079C144.56 309.179 144.548 309.329 144.448 309.413C144.438 309.422 144.415 309.44 144.376 309.472C144.311 309.525 144.223 309.597 144.105 309.691C143.771 309.958 143.275 310.35 142.588 310.89C141.974 311.372 141.261 311.802 140.468 312.184C139.509 312.645 138.484 313.013 137.459 313.298C137.1 313.398 136.767 313.48 136.468 313.546C136.363 313.569 136.269 313.589 136.188 313.604C136.175 313.607 136.162 313.61 136.151 313.612C136.134 313.627 136.112 313.647 136.088 313.671C136.004 313.752 135.92 313.845 135.842 313.947C135.524 314.367 135.405 314.804 135.576 315.236C135.764 315.711 136.077 316.018 136.513 316.195C136.634 316.244 136.692 316.382 136.643 316.503C136.594 316.625 136.456 316.683 136.334 316.634C135.781 316.409 135.372 316.008 135.135 315.411C134.892 314.798 135.057 314.199 135.465 313.661L135.477 313.646C135.313 313.631 135.147 313.599 134.984 313.545C134.261 313.305 133.824 312.692 133.836 311.663C133.845 310.929 134.32 310.276 135.111 309.697C134.044 309.918 133.529 309.843 133.066 309.502C132.64 309.189 132.299 308.497 132.349 307.814C132.417 306.895 133.126 306.073 134.554 305.452C135.08 305.223 136.472 304.535 138.455 303.532C138.508 303.505 138.508 303.505 138.561 303.478C139.452 303.027 140.4 302.543 141.344 302.059C141.675 301.89 141.981 301.733 142.256 301.592C142.352 301.542 142.409 301.513 142.51 301.461C142.585 301.423 142.585 301.423 142.6 301.415C142.717 301.355 142.86 301.4 142.919 301.517ZM134.91 300.009C135.04 300.009 135.146 300.116 135.146 300.247C135.141 302.278 133.896 304.036 130.831 305.233C130.836 305.949 130.818 306.802 130.759 307.623C130.674 308.814 130.522 309.661 130.264 310.069C130.194 310.179 130.048 310.213 129.937 310.143C129.827 310.073 129.794 309.927 129.864 309.816C130.063 309.5 130.208 308.696 130.287 307.59C130.346 306.755 130.363 305.883 130.356 305.164C130.356 305.12 130.356 305.09 130.355 305.074C130.354 304.974 130.415 304.884 130.509 304.849C133.506 303.719 134.668 302.11 134.672 300.245C134.672 300.115 134.779 300.009 134.91 300.009Z" fill="#371D0A"/>
</svg>
