<svg width="120" height="59" viewBox="0 0 120 59" fill="none" xmlns="http://www.w3.org/2000/svg">
<g clip-path="url(#clip0_1297_255)">
<path d="M97.4154 11.7792C94.7673 13.4076 92.0812 11.7792 90.0723 9.86165C90.6659 10.0291 91.6094 9.69424 92.203 9.30617L104.416 1.0652C107.064 -0.555598 109.75 1.0652 111.759 2.99038C111.158 2.81536 110.222 3.15778 109.621 3.54586L97.4154 11.7792ZM105.611 19.9289C102.97 21.5497 100.277 19.9289 98.2676 18.0113C98.8688 18.1787 99.8047 17.8363 100.406 17.4558L112.657 9.21485C115.305 7.59405 117.991 9.21485 120 11.1324C119.399 10.965 118.463 11.3074 117.862 11.6879L105.611 19.9289ZM110.777 30.2624C104.842 36.1521 94.1281 35.0031 86.8307 27.7057C79.4877 20.3626 78.3767 9.64098 84.2664 3.75131C87.9874 0.0379342 93.664 -0.859973 99.1656 0.806482C95.2391 0.3347 91.3964 1.49133 88.6266 4.26114C83.3761 9.51923 83.9696 18.5668 89.9506 24.5402C95.924 30.5211 104.972 31.1147 110.222 25.8642C112.999 23.0944 114.11 19.206 113.684 15.3252C115.389 20.8268 114.491 26.5034 110.777 30.2624Z" fill="#000F08"/>
<path fill-rule="evenodd" clip-rule="evenodd" d="M2.64807 11.4825V25.1414L2.73177 25.187C3.84274 23.6956 5.25048 22.8434 7.2137 22.8434C11.5282 22.8434 12.5479 25.9556 12.5479 29.6309V38.9372H9.90742V30.1408C9.90742 27.6221 9.68675 25.3621 6.62017 25.3621C2.94483 25.3621 2.73177 28.7711 2.73177 31.5485V38.9753H0V11.4825H2.64807ZM14.9829 23.3075H18.1027L23.6043 34.539L28.6874 23.3075H31.7159L20.1497 47.7717H17.1211L22.1966 37.5219L14.9829 23.3075ZM45.7172 38.9372V36.799H45.6335C44.3551 38.5111 42.3919 39.409 40.2536 39.409C35.688 39.409 32.7888 35.4749 32.7888 31.168C32.7888 26.7241 35.6043 22.8814 40.2993 22.8814C42.4375 22.8814 44.4008 23.863 45.6791 25.5295H45.7628V11.4825H48.4109V38.9372H45.7172ZM35.5587 30.955C35.5587 34.0292 37.3469 36.9283 40.6798 36.9283C44.0964 36.9283 45.8846 34.1509 45.8846 30.993C45.8846 27.8351 43.9214 25.3164 40.6341 25.3164C37.5599 25.3164 35.5587 28.0482 35.5587 30.955ZM55.9214 25.0196H56.0051C56.941 23.7793 57.7552 22.8814 59.4597 22.8814C60.3576 22.8814 61.0805 23.1858 61.8491 23.6119L60.5707 26.0469C60.0609 25.6588 59.6728 25.3621 58.9956 25.3621C56.0507 25.3621 55.9214 29.1135 55.9214 31.168V38.9753H53.2733V23.3075H55.9214V25.0196ZM71.3304 39.409C66.7724 39.409 63.0894 35.7184 63.0894 31.1528C63.0894 26.5796 66.7724 22.889 71.3304 22.889C75.8884 22.889 79.5713 26.5796 79.5713 31.1528C79.5713 35.7184 75.8884 39.409 71.3304 39.409ZM65.7831 31.13C65.7831 34.3259 68.0431 36.9359 71.3304 36.9359C74.6176 36.9359 76.8776 34.3259 76.8776 31.13C76.8776 27.9721 74.6176 25.324 71.3304 25.324C68.0431 25.324 65.7831 27.9721 65.7831 31.13ZM79.9518 49.3164C79.9518 54.3919 76.4972 58.0215 71.3684 58.0215C66.2473 58.0215 62.7926 54.3919 62.7926 49.3164C62.7926 44.2333 66.293 40.6037 71.3684 40.6037C76.4515 40.6037 79.9518 44.2333 79.9518 49.3164ZM67.5333 49.3545C67.5333 51.5764 68.9791 53.9277 71.3684 53.9277C73.7654 53.9277 75.2112 51.5307 75.2112 49.3545C75.2112 47.0945 73.7654 44.7432 71.3684 44.7432C68.9791 44.7432 67.4876 47.0488 67.5333 49.3545ZM86.9144 42.6582C87.896 41.2048 89.5168 40.6037 91.1757 40.6037C95.5739 40.6037 96.8599 43.7235 96.8599 47.4749V57.4661H92.2029V48.799C92.2029 46.8358 92.2866 44.317 89.6842 44.317C86.9144 44.317 86.8687 47.4369 86.8687 49.4001V57.5117H82.2118V41.1211H86.8687V42.6582H86.9144ZM103.861 50.085C103.861 52.1319 104.675 54.4832 107.102 54.4832C108.639 54.4832 109.583 53.5396 110.222 52.2612L114.536 52.9461C113.38 56.1877 110.519 58.0215 107.102 58.0215C102.065 58.0215 98.9524 54.4375 98.9524 49.4838C98.9524 44.5301 101.601 40.6493 106.889 40.6493C112.269 40.6493 114.658 44.6214 114.658 49.5295V50.085H103.861ZM110.268 47.1782C110.009 45.5117 108.944 43.8909 107.148 43.8909C105.314 43.8909 104.249 45.4737 104.036 47.1782H110.268Z" fill="#000F08"/>
</g>
<defs>
<clipPath id="clip0_1297_255">
<rect width="120" height="58.0596" fill="white"/>
</clipPath>
</defs>
</svg>
