<svg width="120" height="27" viewBox="0 0 120 27" fill="none" xmlns="http://www.w3.org/2000/svg">
<g clip-path="url(#clip0_1297_137)">
<path fill-rule="evenodd" clip-rule="evenodd" d="M106.913 18.1961C106.812 19.0976 106.762 19.5476 106.463 20.2499C107.311 20.9006 108.411 21.6028 110.308 21.6028C113.905 21.6028 116.052 19.1965 116.052 16.3429C116.052 11.1847 108.709 12.9877 108.709 8.63072C108.709 6.92804 109.957 5.72559 111.706 5.72559C113.454 5.72559 114.153 7.02837 114.502 7.92987H114.752C114.952 7.02837 115.101 6.47799 115.401 5.92622C114.451 5.22537 113.403 4.87564 111.954 4.87564C108.856 4.87564 106.86 6.67725 106.86 9.28281C106.86 14.7921 114.203 12.939 114.203 17.2458C114.203 19.099 112.954 20.6024 110.906 20.6024C108.908 20.6024 107.71 19.2982 107.211 18.1975H106.913V18.1961ZM118.101 5.8259H118.501C118.602 5.8259 118.702 5.82591 118.751 5.87607C118.801 5.92623 118.801 5.97638 118.801 6.02654C118.801 6.0767 118.801 6.12687 118.751 6.12687C118.751 6.17564 118.7 6.2258 118.65 6.2258C118.6 6.2258 118.55 6.27595 118.451 6.27595H118.101V5.8259ZM118.101 7.02836V6.42644H118.401C118.401 6.42644 118.451 6.42644 118.501 6.4766L118.551 6.52676C118.602 6.57692 118.652 6.67585 118.702 6.72741L118.901 7.02836H119.102L118.852 6.62848L118.703 6.478C118.703 6.42783 118.653 6.42784 118.603 6.37907C118.752 6.37907 118.852 6.32891 118.903 6.27875C118.966 6.21024 119.001 6.12101 119.003 6.02795C119.003 5.97779 118.953 5.87746 118.953 5.8273L118.804 5.67681H117.905V7.02976H118.101V7.02836Z" fill="#01070D"/>
<path d="M118.401 7.77938C119.199 7.77938 119.85 7.12869 119.85 6.37767C119.85 5.5765 119.201 4.92441 118.401 4.92441C117.601 4.92441 116.953 5.5765 116.953 6.37767C116.952 7.12869 117.601 7.77938 118.401 7.77938Z" stroke="#01070D" stroke-width="1.93249" stroke-miterlimit="2.613"/>
<path fill-rule="evenodd" clip-rule="evenodd" d="M46.3299 11.2349C46.3299 9.53222 46.4303 7.82954 46.479 6.12687C46.9779 6.07671 47.6773 6.02654 48.7265 6.02654C50.3247 6.02654 52.3729 6.62847 52.3729 9.08076C52.3729 11.8856 49.8259 12.6868 47.8766 12.6868C47.2774 12.6868 46.7786 12.6366 46.3286 12.5377V11.2349H46.3299ZM44.4322 15.2408C44.4322 17.2444 44.3319 19.2982 44.233 21.3004C44.6329 21.2517 44.9826 21.2001 45.3811 21.2001C45.7308 21.2001 46.1307 21.2517 46.5292 21.3004C46.4303 19.2968 46.3299 17.2444 46.3299 15.2408V13.5381H47.2287C49.2267 15.5919 52.3228 19.85 53.2716 21.3004C53.7217 21.2517 54.1703 21.2001 54.6204 21.2001C55.0704 21.2001 55.5693 21.2517 56.0179 21.3004C54.6692 19.7984 50.7733 14.7406 49.6252 13.3388C51.3725 13.088 54.4197 11.887 54.4197 8.83135C54.4197 6.0767 52.1723 5.1752 49.5751 5.1752C48.675 5.1752 47.7763 5.27553 46.8775 5.27553C46.029 5.27553 45.1303 5.22536 44.2316 5.1752C44.3305 7.17884 44.4308 9.18109 44.4308 11.2363V15.2408H44.4322Z" fill="#01070D"/>
<path fill-rule="evenodd" clip-rule="evenodd" d="M70.2538 13.2385C70.2538 18.3967 67.4071 20.7515 63.7607 20.7515C60.1143 20.7515 57.3179 18.3967 57.3179 13.2385C57.3179 8.0302 60.1143 5.7256 63.7607 5.7256C67.4071 5.7256 70.2538 8.0302 70.2538 13.2385ZM55.0203 13.2385C55.0203 18.5472 58.6165 21.6028 63.7607 21.6028C68.905 21.6028 72.5012 18.5472 72.5012 13.2385C72.5012 7.92988 68.905 4.87566 63.7607 4.87566C58.6165 4.87566 55.0203 7.92988 55.0203 13.2385ZM87.385 21.6028C87.3348 20.5494 87.2861 15.3913 87.2861 12.9877C87.2861 11.1847 87.5355 6.52677 87.6846 5.17523C87.385 5.22539 87.1857 5.27556 86.9363 5.27556C86.6855 5.27556 86.386 5.22539 86.1366 5.17523C86.3358 8.78121 86.3358 13.3389 86.3358 17.4952C83.4892 14.6403 78.2948 8.98186 74.4993 4.87427H74.151C74.2011 5.92485 74.2011 8.17929 74.2011 11.1346C74.2011 14.1888 73.9015 20.1983 73.7023 21.3005C74.0019 21.2517 74.3014 21.2001 74.601 21.2001C74.8504 21.2001 75.1514 21.2517 75.4008 21.3005C75.3005 20.3502 75.2002 15.4414 75.2002 13.4378C75.2002 10.9339 75.2503 9.53224 75.2503 8.67951C79.245 12.9362 83.4906 17.3935 87.0367 21.6014H87.385V21.6028ZM103.817 13.2385C103.817 18.3967 101.02 20.7515 97.3739 20.7515C93.7275 20.7515 90.9311 18.3967 90.9311 13.2385C90.9311 8.0302 93.7275 5.7256 97.3739 5.7256C101.02 5.7256 103.817 8.0302 103.817 13.2385ZM88.6334 13.2385C88.6334 18.5472 92.2297 21.6028 97.3725 21.6028C102.517 21.6028 106.113 18.5472 106.113 13.2385C106.113 7.92988 102.517 4.87566 97.3725 4.87566C92.2297 4.87427 88.6334 7.92988 88.6334 13.2385Z" fill="#01070D"/>
<path fill-rule="evenodd" clip-rule="evenodd" d="M0.230988 10.6845H11.4182C11.669 10.6845 14.6145 10.835 15.8142 9.13234C17.0627 7.42967 20.6087 2.42197 20.6087 2.42197C20.8595 2.57245 20.8595 2.62261 21.0588 2.7717C21.0588 2.7717 15.1148 11.0858 15.1148 11.1346C14.067 12.5377 12.3685 12.8874 11.0197 12.8874H0.0317383C0.0317383 12.2869 0.0818997 11.4355 0.230988 10.6845ZM26.1529 13.1884C26.1529 16.4948 25.0047 19.549 22.8562 21.8021L18.0617 15.1419C17.613 14.5413 16.8132 13.5395 15.5146 13.1884C16.8132 12.7885 17.613 11.7867 18.0617 11.2363L22.8562 4.52593C25.0047 6.77758 26.1529 9.83181 26.1529 13.1884Z" fill="#01070D"/>
<path fill-rule="evenodd" clip-rule="evenodd" d="M1.08093 7.92988H10.67C13.1669 7.92988 13.6169 7.22902 14.2662 6.52817C14.3164 6.52817 18.162 1.06902 18.162 1.06902C18.162 1.06902 18.4114 1.16934 18.711 1.31982C18.711 1.31982 16.4635 4.52593 13.5681 8.53181C13.1181 9.13373 12.2695 10.1342 10.6212 10.1342H0.38147C0.580719 9.28143 0.881682 8.53041 1.08093 7.92988ZM3.22809 4.57469H8.62174C9.57062 4.57469 10.1196 3.6732 10.4693 3.32347C10.4693 3.37363 12.8171 0.0686035 12.8171 0.0686035C10.99 0.0930221 9.18919 0.507697 7.53539 1.28485C5.8816 2.062 4.41302 3.18367 3.22809 4.57469Z" fill="#01070D"/>
<path fill-rule="evenodd" clip-rule="evenodd" d="M2.72787 5.17522H10.0708C11.8181 5.22539 12.8673 3.72335 12.8673 3.72335L15.3642 0.267853L16.0135 0.368172C16.0135 0.368172 12.3183 5.52635 12.2681 5.57651C11.4684 6.82774 10.6198 7.27919 9.57061 7.32935H1.37911C1.53098 6.92807 2.12873 5.92624 2.72787 5.17522ZM0.230988 15.6421H11.4182C11.669 15.6421 14.6145 15.5418 15.8142 17.1943C17.0627 18.8983 20.6087 23.9046 20.6087 23.9046C20.8595 23.7555 20.8595 23.7026 21.0588 23.5535C21.0588 23.5535 15.1148 15.2408 15.1148 15.1906C14.067 13.7889 12.3685 13.4378 11.0197 13.4378H0.0317383C0.0317383 14.0397 0.0818997 14.8911 0.230988 15.6421Z" fill="#01070D"/>
<path fill-rule="evenodd" clip-rule="evenodd" d="M1.08088 18.3967H10.6699C13.1668 18.3967 13.6168 19.0976 14.2661 19.7984C14.3163 19.7984 18.162 25.2576 18.162 25.2576C18.162 25.2576 18.4114 25.1573 18.7109 25.0068C18.7109 25.0068 16.4635 21.8007 13.5681 17.7948C13.118 17.1929 12.2695 16.1924 10.6211 16.1924C10.6211 16.2426 0.382812 16.1924 0.382812 16.1924C0.580668 17.0438 0.881632 17.7962 1.08088 18.3967ZM3.22803 21.7533H8.62169C9.57056 21.7533 10.1195 22.6534 10.4693 23.0045L12.8171 26.2594C10.99 26.2343 9.18944 25.8194 7.53574 25.0423C5.88204 24.2652 4.41338 23.1438 3.22803 21.7533Z" fill="#01070D"/>
<path fill-rule="evenodd" clip-rule="evenodd" d="M2.72779 21.1514H10.0707C11.818 21.1514 12.8672 22.6046 12.8672 22.6046L15.3641 26.0587L16.0134 25.9612C16.0134 25.9612 12.3182 20.8016 12.2681 20.7529C11.4683 19.5016 10.6197 19.0488 9.57053 19H1.37903C1.67999 19.6006 2.12865 20.4003 2.72779 21.1514Z" fill="#01070D"/>
<path fill-rule="evenodd" clip-rule="evenodd" d="M31.7958 15.2909V11.285C31.7958 9.2814 31.6955 7.27916 31.5952 5.32568C31.9951 5.37584 32.3448 5.42461 32.7447 5.42461C33.0944 5.42461 33.4442 5.37445 33.8441 5.32568C33.7443 7.31057 33.6946 9.29765 33.695 11.285V12.5878C33.695 12.6882 33.7451 12.7383 33.7939 12.7383C33.8942 12.7383 33.9444 12.6881 34.1436 12.5377C36.2908 10.6845 38.9381 7.77937 41.0853 5.32568C41.3849 5.37584 41.6844 5.42461 42.0342 5.42461C42.3825 5.42461 42.7838 5.37445 43.1321 5.32568C41.0351 7.17884 37.3887 10.5842 35.7404 12.5377C38.2373 15.3425 40.7843 18.2964 43.3815 21.2517C42.9176 21.1909 42.4505 21.1574 41.9826 21.1514C41.5648 21.1592 41.1479 21.1927 40.7342 21.2517C38.5369 18.5472 35.0409 14.2891 34.0419 13.2887C33.9416 13.1884 33.8413 13.1382 33.7911 13.1382C33.7423 13.1382 33.6922 13.1884 33.6922 13.2385V15.2923C33.6922 17.2458 33.7423 19.2982 33.8413 21.2531C33.4414 21.2015 33.0917 21.1527 32.7419 21.1527C32.342 21.1527 31.9923 21.2015 31.5924 21.2531C31.6955 19.2982 31.7958 17.2444 31.7958 15.2909Z" fill="#01070D"/>
</g>
<defs>
<clipPath id="clip0_1297_137">
<rect width="120" height="26.3205" fill="white"/>
</clipPath>
</defs>
</svg>
