<svg width="20" height="20" viewBox="0 0 20 20" fill="none" xmlns="http://www.w3.org/2000/svg">
<g clip-path="url(#clip0_1297_299)">
<path d="M10 18.2902C15.3057 18.2902 18.2902 15.3057 18.2902 10C18.2902 4.6943 15.3057 1.70984 10 1.70984C4.6943 1.70984 1.70984 4.6943 1.70984 10C1.70984 15.3057 4.6943 18.2902 10 18.2902Z" fill="#F1EFFF"/>
<path d="M10 18.2902C15.3057 18.2902 18.2902 15.3057 18.2902 10C18.2902 4.6943 15.3057 1.70984 10 1.70984C4.6943 1.70984 1.70984 4.6943 1.70984 10C1.70984 15.3057 4.6943 18.2902 10 18.2902Z" stroke="#3423A6" stroke-width="1.43" stroke-linecap="round" stroke-linejoin="round"/>
<path d="M6.33241 13.1582C6.15202 11.3808 6.88951 9.52116 7.90025 7.90027L12.0997 12.0997C10.4788 13.1105 8.61785 13.8493 6.84176 13.6676C6.71113 13.6545 6.58906 13.5966 6.49623 13.5038C6.4034 13.4109 6.34553 13.2889 6.33241 13.1582Z" fill="white"/>
<path d="M13.6676 6.84184C13.848 8.61926 13.1105 10.4789 12.0997 12.0998L7.90027 7.90033C9.52116 6.8896 11.3821 6.15077 13.1582 6.33249C13.4288 6.35902 13.6411 6.57125 13.6676 6.84184Z" fill="white"/>
<path d="M13.6676 6.84184C13.848 8.61926 13.1105 10.4789 12.0997 12.0998L7.90027 7.90033C9.52116 6.8896 11.3821 6.15077 13.1582 6.33249C13.4288 6.35902 13.6411 6.57125 13.6676 6.84184Z" stroke="#3423A6" stroke-width="1.43" stroke-linecap="round" stroke-linejoin="round"/>
<path d="M6.33241 13.1582C6.15202 11.3808 6.88951 9.52116 7.90025 7.90027L12.0997 12.0997C10.4788 13.1105 8.61785 13.8493 6.84176 13.6676C6.71113 13.6545 6.58906 13.5966 6.49623 13.5038C6.4034 13.4109 6.34553 13.2889 6.33241 13.1582Z" stroke="#3423A6" stroke-width="1.43" stroke-linecap="round" stroke-linejoin="round"/>
</g>
<defs>
<clipPath id="clip0_1297_299">
<rect width="20" height="20" fill="white"/>
</clipPath>
</defs>
</svg>
