<svg width="120" height="23" viewBox="0 0 120 23" fill="none" xmlns="http://www.w3.org/2000/svg">
<g clip-path="url(#clip0_1297_561)">
<path d="M11.505 0.00232034C5.1457 0.00231979 0.00622513 5.16179 0.00622458 11.5011C0.00622402 17.8605 5.16569 23 11.505 23C17.8644 23 23.0239 17.8405 23.0239 11.5011C23.0239 5.16179 17.8644 0.0023209 11.505 0.00232034Z" fill="#000F08"/>
<path d="M19.5442 16.6207C19.1042 16.8407 18.2643 17.2006 17.5444 17.2006C17.1844 17.2006 16.8444 17.1006 16.5045 16.8607C14.6447 15.6208 15.2846 14.141 16.5445 11.8412C17.0844 10.8613 17.6444 9.86139 17.8843 8.8215C18.1443 7.70161 18.3843 6.08178 17.4244 4.84191C16.9644 4.26197 16.2845 3.82201 15.3646 3.52204C14.4247 3.20208 13.2048 3.04209 11.745 3.0221L11.265 3.0221C9.80517 3.04209 8.58529 3.20208 7.64539 3.52204C6.72548 3.82201 6.04555 4.26197 5.5856 4.84191C4.6257 6.08178 4.86568 7.70161 5.12565 8.8215C5.36562 9.86139 5.92557 10.8613 6.46551 11.8412C7.74538 14.141 8.36531 15.6208 6.50551 16.8607C6.16554 17.0806 5.82558 17.2006 5.46561 17.2006C4.74569 17.2006 3.90577 16.8407 3.46582 16.6207L3.56581 16.8207C4.48571 18.2005 5.66559 18.9405 6.98546 18.9405C7.5654 18.9405 8.16534 18.8005 8.78527 18.5205C9.4452 18.2205 10.0251 17.7006 10.4251 17.0207C10.8251 16.3407 10.965 15.6008 10.8651 14.9609C10.7251 14.3809 10.4251 13.601 10.0651 12.6811C9.14524 10.3013 7.88537 7.06168 8.98525 5.48185C9.4452 4.82191 10.2651 4.48195 11.505 4.48195C12.7449 4.48195 13.5648 4.82191 14.0247 5.48185C15.1046 7.06168 13.8447 10.3014 12.9448 12.6811C12.5849 13.601 12.2849 14.3809 12.1449 14.9609C12.0249 15.6208 12.1849 16.3607 12.5849 17.0407C12.9848 17.7206 13.5648 18.2605 14.2247 18.5405C14.8446 18.8205 15.4646 18.9605 16.0245 18.9605C17.3444 18.9605 18.5243 18.2205 19.4442 16.8407L19.5442 16.6207Z" fill="white"/>
<path d="M30.6431 3.12207L33.0628 3.12207L33.0628 18.8005L30.6431 18.8005L30.6431 3.12207ZM44.9416 18.8005L42.5218 18.8005L42.5218 17.7806C41.9419 18.4605 40.902 19.0404 39.6421 19.0404C37.2024 19.0404 35.8825 17.4206 35.8825 15.0608L35.8825 8.08156L38.3023 8.08156L38.3023 14.6409C38.3023 15.9608 38.9222 16.8407 40.3021 16.8407C41.342 16.8407 42.2619 16.1807 42.5218 15.1208L42.5218 8.08156L44.9416 8.08156L44.9416 18.8005ZM47.9413 3.12207L50.361 3.12207L50.361 18.8005L47.9413 18.8005L47.9413 3.12207ZM62.2598 18.8005L59.8401 18.8005L59.8401 17.7806C59.2601 18.4605 58.2202 19.0404 56.9604 19.0404C54.5206 19.0404 53.2007 17.4206 53.2007 15.0608L53.2007 8.08157L55.6205 8.08157L55.6205 14.6409C55.6205 15.9608 56.2404 16.8407 57.6203 16.8407C58.6602 16.8407 59.5801 16.1807 59.8401 15.1208L59.8401 8.08157L62.2598 8.08157L62.2598 18.8005ZM65.2395 3.12207L67.6593 3.12207L67.6593 18.8005L65.2395 18.8005L65.2395 3.12207ZM79.478 15.4808C79.1181 17.6006 77.5382 19.0604 74.9585 19.0604C71.9588 19.0604 69.899 16.8007 69.899 13.481C69.899 10.2813 71.9988 7.86159 74.9185 7.86159C77.9382 7.86159 79.578 10.0014 79.578 13.141L79.578 14.001L72.2588 14.001C72.3388 15.8808 73.4187 17.0206 74.9585 17.0206C76.1184 17.0206 76.9783 16.5207 77.2583 15.4808L79.478 15.4808ZM72.3388 12.2411L77.1983 12.2411C77.1783 10.9413 76.4183 9.88138 74.9585 9.88138C73.6186 9.88138 72.6387 10.7013 72.3388 12.2411ZM92.8966 7.86159C95.0964 7.86159 96.3763 9.40143 96.3763 11.8412L96.3763 18.8205L93.9565 18.8205L93.9565 12.2411C93.9565 10.9213 93.3766 10.0414 92.1967 10.0414C91.3368 10.0414 90.5169 10.5813 90.2969 11.6412L90.2969 18.8405L87.8772 18.8405L87.8772 12.2611C87.8772 10.9413 87.2972 10.0614 86.1174 10.0614C85.2574 10.0614 84.4375 10.6013 84.2176 11.6612L84.2176 18.8605L81.7978 18.8605L81.7978 8.14156L84.2176 8.14156L84.2176 9.04147C84.7175 8.36154 85.6974 7.90158 86.8973 7.90158C88.0971 7.90158 89.157 8.50152 89.717 9.32144C90.4569 8.40153 91.4568 7.86159 92.8966 7.86159ZM103.556 19.0404C100.536 19.0404 98.4561 16.7207 98.4561 13.441C98.4561 10.1614 100.536 7.84159 103.556 7.84159C106.575 7.84159 108.655 10.1614 108.655 13.441C108.655 16.7407 106.575 19.0404 103.556 19.0404ZM103.556 9.92138C101.816 9.92138 100.876 11.4212 100.876 13.441C100.876 15.4608 101.816 16.9607 103.556 16.9607C105.295 16.9607 106.235 15.4608 106.235 13.441C106.235 11.4212 105.295 9.92138 103.556 9.92138ZM110.895 8.10156L113.315 8.10156L113.315 9.12146C113.894 8.44153 114.954 7.86159 116.214 7.86159C118.654 7.86159 119.994 9.48142 119.994 11.8412L119.994 18.8205L117.574 18.8205L117.574 12.2411C117.574 10.9213 116.914 10.0414 115.554 10.0414C114.514 10.0414 113.575 10.7013 113.315 11.7612L113.315 18.8005L110.895 18.8005L110.895 8.10156Z" fill="#000F08"/>
</g>
<defs>
<clipPath id="clip0_1297_561">
<rect width="120" height="22.9976" fill="white" transform="translate(120 23) rotate(-180)"/>
</clipPath>
</defs>
</svg>
