<svg width="143" height="20" viewBox="0 0 143 20" fill="none" xmlns="http://www.w3.org/2000/svg">
<path d="M15.1892 1.73062L15.1892 1.73052L15.1798 1.72546C13.6869 0.925689 12.0339 0.5 10.2282 0.5C8.39904 0.5 6.74236 0.924886 5.26883 1.75504C3.77209 2.58396 2.61763 3.71148 1.7614 5.15637C0.898712 6.61216 0.5 8.24894 0.5 10C0.5 11.7771 0.899043 13.3884 1.7614 14.8436C2.61555 16.285 3.76861 17.4395 5.26889 18.2703C6.74676 19.1029 8.40453 19.5 10.2282 19.5C12.0281 19.5 13.6841 19.1022 15.1845 18.272C16.6625 17.4655 17.816 16.3095 18.6696 14.869C19.5297 13.4176 19.9563 11.8074 19.9563 10C19.9563 8.21872 19.53 6.583 18.6696 5.13101C17.8134 3.68614 16.6593 2.55926 15.1892 1.73062ZM14.0171 16.3569L14.0171 16.3568L14.014 16.3586C12.8786 16.9973 11.6206 17.3084 10.2282 17.3084C8.80957 17.3084 7.5518 16.9969 6.41696 16.3586L6.41699 16.3585L6.40997 16.3547C5.27809 15.7416 4.40626 14.8712 3.76595 13.7566L3.766 13.7565L3.76195 13.7497C3.10439 12.646 2.79296 11.3933 2.79296 10C2.79296 8.60843 3.10363 7.38066 3.76195 6.27562L3.762 6.27565L3.76595 6.26878C4.40535 5.15574 5.27745 4.28318 6.41348 3.64338C7.55638 3.02502 8.81706 2.69155 10.2282 2.69155C11.6124 2.69155 12.8725 3.02427 14.0155 3.64229C15.1262 4.28158 16.0008 5.15511 16.667 6.27223C17.3055 7.38507 17.638 8.61605 17.638 10C17.638 11.3856 17.3048 12.6416 16.667 13.7531C15.9994 14.8725 15.1246 15.7442 14.0171 16.3569Z" fill="#F4D81A" stroke="#F4D81A"/>
<path d="M40.1366 1.32965L40.4502 0.626099H39.6799H38.3363H38.0119L37.8797 0.922295L31.1616 15.9727L24.4436 0.922295L24.3113 0.626099H23.987H22.5673H21.797L22.1106 1.32965L30.0204 19.0761L30.1526 19.3726H30.4771H31.7701H32.0946L32.2268 19.0761L40.1366 1.32965Z" fill="#000F08" stroke="#000F08"/>
<path d="M56.6393 9.2896V8.7896H56.1393H44.6548H44.1548V9.2896V10.4305V10.9305H44.6548H56.1393H56.6393V10.4305V9.2896ZM56.6393 1.12622V0.626221H56.1393H44.6548H44.1548V1.12622V2.29242V2.79242H44.6548H56.1393H56.6393V2.29242V1.12622ZM44.6548 17.2065H44.1548V17.7065V18.8727V19.3727H44.6548H56.1393H56.6393V18.8727V17.7065V17.2065H56.1393H44.6548Z" fill="#000F08" stroke="#000F08"/>
<path d="M73.9053 12.9205C75.0064 12.497 75.9154 11.8514 76.5759 10.9551C77.3553 9.89737 77.7635 8.62471 77.7635 7.1092C77.7635 5.13163 77.0795 3.51285 75.6837 2.34043C74.2989 1.17721 72.4218 0.626099 70.1142 0.626099H63.7509H63.2509V1.1261V2.29229V2.79229H63.7509H70.1142C71.9178 2.79229 73.234 3.20655 74.1288 3.94359C74.9851 4.66934 75.4452 5.7101 75.4452 7.1092C75.4452 8.53512 74.9841 9.57522 74.1289 10.3001C73.2376 11.0342 71.9246 11.4261 70.1142 11.4261H63.7509H63.2509V11.9261V18.8733V19.3733H63.7509H65.0438H65.5438V18.8733V13.5676H70.1142C70.556 13.5676 71.06 13.549 71.608 13.479L75.665 19.1637L75.8145 19.3733H76.072H77.5424H78.5139L77.9493 18.5827L73.9053 12.9205Z" fill="#000F08" stroke="#000F08"/>
<path d="M99.0867 1.12596V0.625965H98.5867H97.2937H96.7937V1.12596V8.78934H85.9289V1.12561V0.62561H85.4289H84.136H83.636V1.12561V18.8721V19.3721H84.136H85.4289H85.9289V18.8721V10.9298H96.7937V18.8717V19.3717H97.2937H98.5867H99.0867V18.8717V1.12596Z" fill="#000F08" stroke="#000F08"/>
<path d="M119.387 1.73062L119.387 1.73052L119.377 1.72546C117.884 0.925689 116.231 0.5 114.426 0.5C112.596 0.5 110.94 0.924886 109.466 1.75504C107.969 2.58396 106.815 3.71148 105.959 5.15637C105.096 6.61216 104.697 8.24894 104.697 10C104.697 11.7771 105.096 13.3884 105.959 14.8436C106.813 16.285 107.966 17.4395 109.466 18.2703C110.944 19.1029 112.602 19.5 114.426 19.5C116.225 19.5 117.882 19.1022 119.382 18.272C120.86 17.4655 122.013 16.3095 122.867 14.869C123.727 13.4176 124.154 11.8074 124.154 10C124.154 8.21872 123.727 6.583 122.867 5.13101C122.011 3.68614 120.857 2.55926 119.387 1.73062ZM118.215 16.3569L118.215 16.3568L118.211 16.3586C117.076 16.9973 115.818 17.3084 114.426 17.3084C113.007 17.3084 111.749 16.9969 110.614 16.3586L110.614 16.3585L110.607 16.3547C109.475 15.7416 108.604 14.8712 107.963 13.7566L107.963 13.7565L107.959 13.7497C107.302 12.646 106.99 11.3933 106.99 10C106.99 8.60843 107.301 7.38066 107.959 6.27562L107.959 6.27565L107.963 6.26878C108.603 5.15574 109.475 4.28318 110.611 3.64338C111.754 3.02502 113.014 2.69155 114.426 2.69155C115.81 2.69155 117.07 3.02427 118.213 3.64229C119.324 4.28158 120.198 5.15511 120.864 6.27221C121.503 7.38506 121.835 8.61604 121.835 10C121.835 11.3856 121.502 12.6416 120.864 13.7531C120.197 14.8726 119.322 15.7442 118.215 16.3569Z" fill="#000F08" stroke="#000F08"/>
<path d="M130.252 0.62607L129.752 0.626342V1.12607V18.8725V19.3725H130.252H141.762H142.262V18.8725V17.7064V17.2064H141.762H132.044V1.12537V0.625094L131.543 0.625366L130.252 0.62607Z" fill="#000F08" stroke="#000F08"/>
</svg>
