<svg width="121" height="16" viewBox="0 0 121 16" fill="none" xmlns="http://www.w3.org/2000/svg">
<g clip-path="url(#clip0_1310_4)">
<path d="M53.372 10.1491H61.3014L57.1086 3.40359L49.4134 15.5998H45.9114L55.2711 0.949453C55.678 0.357656 56.3563 0 57.1086 0C57.8361 0 58.5144 0.345234 58.9091 0.924844L68.3059 15.5998H64.8039L63.1515 12.8745H55.1235L53.3722 10.1491H53.372ZM89.751 12.8742V0.147891H86.7791V14.1199C86.7791 14.5022 86.927 14.8723 87.2106 15.1559C87.4942 15.4395 87.8764 15.5998 88.2957 15.5998H101.848L103.6 12.8745H89.7507L89.751 12.8742ZM40.5838 10.5928C43.4696 10.5928 45.8127 8.26219 45.8127 5.37656C45.8127 2.4907 43.4696 0.147656 40.5838 0.147656H27.5823V15.6H30.5532V2.87344H40.3867C41.7678 2.87344 42.8776 3.99586 42.8776 5.37703C42.8776 6.75797 41.7678 7.88016 40.3867 7.88016L32.0085 7.86797L40.8798 15.6H45.196L39.2275 10.5933H40.584L40.5838 10.5928ZM9.29448 15.5998C5.02886 15.6 1.56714 12.147 1.56714 7.88016C1.56714 3.61313 5.02886 0.148125 9.29448 0.148125H18.2757C22.5423 0.148125 26.0014 3.61313 26.0014 7.88016C26.0014 12.147 22.5423 15.5998 18.2755 15.5998H9.29448ZM18.076 12.8745C20.8396 12.8745 23.0778 10.6423 23.0778 7.87992C23.0778 5.11781 20.8396 2.87344 18.076 2.87344H9.49323C6.73065 2.87344 4.4912 5.11781 4.4912 7.88016C4.4912 10.6423 6.73065 12.8745 9.493 12.8745H18.0758H18.076ZM74.5089 15.5998C70.2423 15.5998 66.7768 12.147 66.7768 7.88016C66.7768 3.61313 70.2423 0.148125 74.5089 0.148125H85.1762L83.4371 2.87344H74.7062C71.9439 2.87344 69.6995 5.11781 69.6995 7.88016C69.6995 10.6423 71.9439 12.8745 74.7062 12.8745H85.4225L83.6713 15.5998H74.5089ZM110.851 12.8745C108.57 12.8745 106.633 11.3454 106.042 9.23648H118.743L120.494 6.51117H106.042C106.633 4.41469 108.57 2.87344 110.851 2.87344H119.57L121.333 0.147656H110.653C106.387 0.147656 102.921 3.61289 102.921 7.87969C102.921 12.1467 106.387 15.5995 110.653 15.5995H119.816L121.567 12.8745H110.851H110.851Z" fill="#000F08"/>
</g>
<defs>
<clipPath id="clip0_1310_4">
<rect width="121" height="16" fill="white"/>
</clipPath>
</defs>
</svg>
