<svg width="120" height="60" viewBox="0 0 120 60" fill="none" xmlns="http://www.w3.org/2000/svg">
<path d="M8.79584 40.5424C7.68265 40.5424 6.77917 39.6374 6.77917 38.5214V32.8291C6.77917 31.713 7.68409 30.8081 8.79584 30.8081C9.33098 30.81 9.84363 31.0236 10.2218 31.4023C10.5999 31.781 10.8128 32.2939 10.8139 32.8291V38.5228C10.8139 39.6389 9.90902 40.5424 8.79584 40.5424ZM15.2882 42.7256C14.1736 42.7256 13.2716 41.8207 13.2716 40.7047V30.6501C13.2716 29.5326 14.1736 28.6291 15.2882 28.6291C16.4028 28.6291 17.3063 29.534 17.3063 30.6501V40.7047C17.3063 41.8222 16.4014 42.7256 15.2882 42.7256ZM21.7806 44.8601C20.666 44.8601 19.7639 43.9552 19.7639 42.8391V28.5042C19.7639 27.3867 20.6689 26.4832 21.7806 26.4832C22.8923 26.4832 23.7973 27.3881 23.7973 28.5042V42.8362C23.7973 43.9537 22.8952 44.8572 21.7806 44.8572V44.8601ZM38.8016 21.4473L10.6459 13.0072C9.26409 12.5763 8.01732 13.4381 8.01732 14.7782V28.8647C8.27413 28.8133 8.53537 28.7873 8.79727 28.7871C9.05964 28.7873 9.32136 28.8133 9.57866 28.8647V14.7883C9.57866 14.6935 9.57866 14.4723 9.92338 14.4723C10.017 14.473 10.11 14.488 10.1992 14.5168L38.3563 22.9569C38.9682 23.1408 39.4221 23.7641 39.4221 24.1994V42.2545C39.4221 42.3579 39.4221 42.5676 39.0773 42.5676C38.9841 42.5675 38.8915 42.5525 38.803 42.5231L32.3077 40.5797V42.21L38.3405 44.0241C38.5748 44.0954 38.8181 44.1326 39.063 44.1347C39.3143 44.1461 39.5652 44.1055 39.8 44.0153C40.0348 43.9251 40.2484 43.7873 40.4274 43.6106C40.6064 43.4339 40.7469 43.2221 40.8401 42.9885C40.9333 42.7548 40.9772 42.5045 40.969 42.2531V24.1821C40.969 23.0115 40.011 21.8078 38.7858 21.4415L38.8016 21.4473ZM28.273 47.1008C27.1584 47.1008 26.2563 46.1959 26.2563 45.0798V26.2677C26.2563 25.1517 27.1612 24.2453 28.273 24.2453C29.3847 24.2453 30.2896 25.1502 30.2896 26.2677V45.0956C30.2896 46.2131 29.3876 47.1166 28.273 47.1166V47.1008Z" fill="#000F08"/>
<path d="M50.3431 31.423V36.15H48.8781V23.642H52.3151C53.6521 23.642 54.6881 23.968 55.4151 24.619C56.1421 25.27 56.5181 26.189 56.5181 27.375C56.5181 28.561 56.1101 29.532 55.2921 30.288C54.4741 31.044 53.3721 31.422 51.9921 31.422H50.3441L50.3431 31.423ZM50.3431 24.968V30.096H51.8781C52.8901 30.096 53.6621 29.866 54.1931 29.403C54.7241 28.94 54.9911 28.288 54.9911 27.445C54.9911 25.795 54.0151 24.968 52.0611 24.968H50.3431ZM62.0001 36.36C60.6801 36.36 59.6261 35.942 58.8381 35.108C58.0501 34.274 57.6561 33.168 57.6561 31.79C57.6561 30.29 58.0561 29.117 58.8861 28.275C59.7161 27.433 60.8041 27 62.2001 27C63.5321 27 64.5701 27.4 65.3181 28.23C66.0661 29.06 66.4381 30.187 66.4381 31.63C66.4381 33.056 66.0351 34.196 65.2301 35.054C64.4251 35.912 63.3451 36.34 62.0001 36.34V36.36ZM62.1041 28.214C61.1841 28.214 60.4591 28.527 59.9241 29.152C59.3891 29.777 59.1221 30.639 59.1221 31.738C59.1221 32.796 59.3921 33.631 59.9221 34.241C60.4521 34.851 61.1871 35.157 62.0941 35.157C63.0191 35.157 63.7291 34.857 64.2261 34.257C64.7231 33.657 64.9721 32.807 64.9721 31.702C64.9721 30.586 64.7221 29.725 64.2261 29.12C63.7301 28.515 63.0191 28.213 62.0941 28.213L62.1041 28.214ZM79.7371 27.218L77.0591 36.148H75.5771L73.7371 29.755C73.6671 29.511 73.6211 29.235 73.5971 28.925H73.562C73.529 29.1973 73.4677 29.4654 73.3791 29.725L71.3821 36.125H69.9521L67.2481 27.195H68.7481L70.5981 33.912C70.6561 34.115 70.6981 34.382 70.7201 34.714H70.7901C70.812 34.4357 70.8647 34.1607 70.9471 33.894L73.0051 27.194H74.3131L76.1631 33.927C76.2211 34.142 76.2651 34.41 76.2931 34.73H76.3631C76.3751 34.503 76.4231 34.236 76.5111 33.927L78.3251 27.194H79.7381L79.7371 27.218ZM88.3171 32.042H82.0001C82.0231 33.036 82.3001 33.804 82.8021 34.344C83.3041 34.884 84.0171 35.144 84.9021 35.144C85.9081 35.144 86.8321 34.814 87.6761 34.149V35.492C86.8911 36.062 85.8531 36.347 84.562 36.347C83.3 36.347 82.3091 35.941 81.5881 35.13C80.8671 34.319 80.5061 33.18 80.5061 31.708C80.5061 30.308 80.9001 29.185 81.6881 28.31C82.4761 27.435 83.4541 26.998 84.6231 26.998C85.7921 26.998 86.6961 27.376 87.3361 28.131C87.9761 28.886 88.2961 29.937 88.2961 31.281V32.031L88.3171 32.042ZM86.8501 30.83C86.8441 30.005 86.6461 29.36 86.2531 28.903C85.8601 28.446 85.315 28.203 84.618 28.203C84.2972 28.1976 83.9787 28.259 83.6829 28.3835C83.3871 28.508 83.1205 28.6928 82.9001 28.926C82.4301 29.409 82.1381 30.04 82.0271 30.819L86.8501 30.83ZM95.0501 28.666C94.8001 28.474 94.4501 28.378 93.9681 28.378C93.3681 28.378 92.8481 28.666 92.4381 29.241C92.0281 29.816 91.8231 30.601 91.8231 31.597V36.149H90.3931V27.219H91.8231V29.059H91.8581C92.0611 28.431 92.3731 27.942 92.7911 27.589C93.2091 27.236 93.6771 27.062 94.1961 27.062C94.5681 27.062 94.8521 27.102 95.0511 27.184L95.0501 28.666ZM101.688 36.15V23.642H105.248C106.33 23.642 107.188 23.907 107.821 24.436C108.454 24.965 108.771 25.654 108.771 26.503C108.771 27.203 108.579 27.828 108.195 28.353C107.811 28.878 107.283 29.248 106.608 29.47V29.504C107.451 29.604 108.125 29.921 108.631 30.459C109.137 30.997 109.389 31.696 109.389 32.556C109.389 33.626 109.006 34.492 108.239 35.156C107.472 35.82 106.503 36.15 105.334 36.15H101.688ZM103.154 24.97V29H104.654C105.456 29 106.088 28.806 106.547 28.42C107.006 28.034 107.247 27.488 107.247 26.784C107.247 25.569 106.447 24.961 104.847 24.961L103.154 24.97ZM103.154 30.326V34.826H105.154C106.014 34.826 106.682 34.622 107.156 34.226C107.63 33.83 107.856 33.262 107.856 32.552C107.856 31.075 106.85 30.336 104.838 30.336L103.154 30.326ZM113.21 36.15H111.745V23.642H113.21V36.15Z" fill="#000F08"/>
</svg>
