<svg width="58" height="73" viewBox="0 0 58 73" fill="none" xmlns="http://www.w3.org/2000/svg">
<g clip-path="url(#clip0_1297_551)">
<path fill-rule="evenodd" clip-rule="evenodd" d="M54.1094 63.9222C54.1094 66.3063 53.1496 67.6887 51.2704 68.4245C43.9718 71.2816 35.327 72.7563 27.1051 72.7563C18.8837 72.7563 10.2397 71.2816 2.94069 68.4245C1.06187 67.6887 0.101685 66.3063 0.101685 63.923V0.756348H54.1094V63.9222Z" fill="#000F08"/>
<path fill-rule="evenodd" clip-rule="evenodd" d="M30.9209 13.3465L30.9178 13.3523C30.9201 13.3504 30.9209 13.3488 30.9209 13.3465ZM30.9255 13.3369C30.9234 13.3394 30.9218 13.3423 30.9209 13.3454V13.3465L30.9255 13.3369ZM14.5857 39.2024C7.10818 34.4588 4.63862 32.3602 4.4285 29.248C4.39194 28.6168 4.53395 27.5531 4.79333 26.7915L4.08983 26.3151C3.52565 27.2268 3.16736 28.4294 3.16736 29.5316C3.16736 31.3292 3.7327 32.6893 4.4285 33.7761C5.47874 35.419 6.5844 36.4519 9.30642 38.5258C12.2397 40.7622 14.2413 43.3733 15.3951 46.1038H15.8115V43.0062C19.7773 45.2883 23.2705 47.44 24.99 51.2835H25.4064C24.7333 47.3015 22.5166 44.2312 14.5857 39.2024ZM30.3286 58.6194C31.6906 58.3954 32.9925 57.3175 32.9925 55.6919C32.9925 54.2241 32.3783 52.6131 28.1273 52.6131H20.9522V52.7297C21.1701 52.7974 21.5129 52.9764 21.7385 53.2019C22.2245 53.6853 22.3862 54.4069 22.4081 55.3667V66.2771H28.3536C31.6244 66.2771 33.9904 65.0128 33.9904 62.1084C33.9908 59.7458 32.1828 58.7433 30.3286 58.6194ZM27.2695 53.9131C28.7904 53.9131 29.8218 54.2483 29.8218 55.8989C29.8218 57.6577 28.4386 58.141 26.8619 58.141H25.505V53.9131H27.2695ZM27.4215 64.987H25.505V59.406H27.3345C29.8491 59.406 30.8154 60.1669 30.8154 62.0826C30.8158 64.1542 29.5551 64.987 27.4215 64.987ZM15.6591 66.2763H19.5321L14.5827 59.8497C16.5661 59.3125 18.052 58.2088 18.052 56.2072C18.052 53.8554 16.6677 52.6127 13.0456 52.6127H5.55994V52.7293C5.83511 52.8286 6.14375 53.0091 6.3458 53.2135C6.87073 53.738 7.02659 54.5366 7.02659 55.6203V66.2763H10.1338V60.2196H11.2695L15.6591 66.2763ZM10.1338 53.9131H12.2266C13.97 53.9131 14.8809 54.4319 14.8809 56.3115C14.8809 57.9898 13.6902 58.985 11.7833 58.985H10.1338V53.9131ZM46.5568 54.4842C47.3896 54.9622 47.6413 55.5876 47.6459 55.5945C47.6851 55.6403 47.7744 55.6284 47.7744 55.6284L48.4518 53.2893C48.4518 53.2893 47.238 52.403 44.3462 52.403C39.974 52.403 36.7013 54.6405 36.7013 59.5376C36.7013 65.0556 40.5994 66.4883 44.038 66.4883C47.2376 66.4883 48.4937 65.4546 48.4937 65.4546V63.8521C48.4937 63.8521 47.3646 64.9239 44.9408 64.9239C42.9392 64.9239 40.0017 63.9965 39.9394 59.4595C39.8801 55.2697 41.6789 53.9046 44.0868 53.9046C45.4292 53.905 46.1011 54.2237 46.5568 54.4842Z" fill="white"/>
<path fill-rule="evenodd" clip-rule="evenodd" d="M50.0504 47.945L49.0656 51.2897H48.5599C48.5599 48.4537 45.9992 47.6825 43.3203 47.6825H34.9098C35.1796 49.0807 35.3043 50.7178 35.0953 52.2614H34.6797C33.9031 45.8918 30.3606 42.7357 25.4057 39.3579V42.2562H24.9893C23.6731 39.2648 20.7795 36.4554 18.0401 34.4654C17.3124 33.9366 16.5569 33.3901 15.8111 32.8486V35.9755H15.3951C14.2325 32.8748 12.1243 30.5603 9.11749 27.8064C5.87055 24.8342 4.56015 23.057 3.80008 21.0135C3.34057 19.7766 3.20934 18.7764 3.19317 17.4163C3.16316 14.9868 4.37196 12.7905 5.88017 11.9711V13.1472C5.13087 14.1532 4.74372 15.4244 4.74256 16.7182C4.74064 17.912 5.01927 19.2393 5.60539 20.3716C7.43379 23.9075 13.5932 28.247 17.504 30.9121C29.6675 39.1994 32.0947 40.6464 34.1159 45.0436C34.3407 45.5328 34.5654 46.1935 34.7509 46.9559C36.5089 46.6815 42.8831 45.6955 44.0588 45.5074C44.2843 45.4712 44.7534 45.4104 44.997 45.3954C46.0946 44.6911 46.952 43.7913 47.7029 42.6707L43.0443 42.3047C42.8374 42.7704 42.6074 43.2254 42.3551 43.6682H41.9748C42.0995 43.198 42.2108 42.7243 42.3085 42.2477L41.1162 42.1561V41.8998L42.407 41.7366C42.6385 40.4856 42.7687 39.2179 42.7965 37.9459L36.9237 37.6061C36.8924 38.1803 36.8866 38.7555 36.9064 39.3302H36.5293C36.4084 38.746 36.3092 38.1576 36.2318 37.5661L34.9449 37.4918V37.0919L36.1679 37.0265C36.0143 35.5923 35.9748 34.1482 36.0498 32.7078L32.6139 32.5481C32.777 32.854 32.9437 33.165 33.0634 33.5048C33.8038 35.6072 33.6279 38.0756 33.3835 39.2094H32.9671C32.9056 37.8963 32.4711 36.2888 32.0601 35.3051C31.1099 33.0322 28.9794 31.0206 25.4065 28.6908V31.5963H24.9901C23.8024 27.7791 20.8453 25.6551 16.4484 23.3622C12.8197 21.4695 11.6929 19.1908 11.8992 15.6626L13.1245 16.3992C13.4381 19.7004 15.9327 21.6042 18.5443 21.5842C20.0817 21.5727 21.5218 21.3656 22.9157 21.0816C24.9254 20.669 26.7861 20.3169 28.3378 20.8765V18.928H27.119C26.6815 19.3113 25.7967 19.7539 24.4959 19.777C23.0643 19.802 20.3569 18.9649 20.3569 15.8912C20.3569 13.2215 22.5802 12.7947 24.3905 12.7947C25.3607 12.7947 26.9724 12.7608 27.5173 12.7277C27.923 12.7027 28.2258 12.6396 28.4221 12.4433C28.6276 12.2371 28.6915 12.0262 28.7381 11.7533C28.795 11.4231 28.795 11.0852 28.795 10.5114V8.56179H20.4023V11.9373L17.2273 10.7119V9.90336H18.7471V8.56179H13.0852V5.75819H11.1549C10.1231 5.75819 8.9343 6.49171 8.85041 7.91487C8.76997 9.27953 9.37495 10.4298 10.7577 10.4298H11.0063V12.0639H10.7577C8.33471 12.0639 6.50862 10.2151 6.50862 7.76016C6.50862 5.20363 8.65298 3.25708 11.2441 3.25708H15.3377V6.06145H31.2561V10.2032C31.2561 10.9001 31.2199 11.8391 31.153 12.4318C31.1041 12.8624 30.9536 13.6391 30.1497 14.2633C29.6656 14.6389 28.9343 14.7909 27.7456 14.7948C27.3592 14.7967 26.23 14.7774 24.8773 14.692C23.0635 14.5765 22.5482 15.2874 22.4759 15.9466C22.4607 16.0814 22.4607 16.2174 22.4759 16.3522C23.3248 15.6834 24.5271 15.2131 25.8918 15.6487C28.2936 16.4153 28.9798 16.4858 30.2313 15.4859L30.356 15.7723C30.1597 16.0736 29.9139 16.3397 29.629 16.5593H30.7905V22.9427L34.4022 20.7429H44.5391C44.5391 20.7429 48.8236 23.0181 49.5294 23.3945C50.1532 23.7266 50.396 24.1273 50.493 24.7168C50.5742 25.2106 50.4495 25.8337 50.2105 26.2343C50.0608 26.4844 48.899 28.4237 48.2809 29.4589C50.1395 31.5126 51.169 34.1835 51.1696 36.9534C51.1696 39.6285 50.194 43.0801 47.0302 45.6447C48.4464 46.1139 49.3439 46.9047 50.0504 47.945ZM26.4255 16.9041C25.0005 16.5866 24.2077 16.7659 23.3899 17.5572C23.7897 17.7527 24.2908 17.8585 24.8457 17.8177C25.6443 17.7608 26.1419 17.2728 26.4255 16.9041ZM25.6027 26.1031L29.6151 23.6589C28.827 23.2641 27.9557 23.0101 26.9216 22.9958C25.5404 22.9754 23.2055 23.6212 22.0768 23.7963C22.5825 24.1465 24.3743 25.3091 25.6027 26.1031ZM43.5161 26.3617L44.0707 25.5685L43.2094 24.4032L43.3537 24.145L45.7756 25.4708L45.248 27.096C45.6374 27.2884 45.9965 27.5289 46.4752 27.8518L48.0392 25.2395L43.9895 23.0874H35.0365L27.7706 27.5285C29.1352 28.4906 30.3906 29.5313 31.2834 30.5819C33.2304 27.7029 36.6509 25.8668 40.0379 25.8668C41.147 25.8671 42.4363 25.9861 43.5161 26.3617ZM42.7865 36.6717C42.7444 35.4379 42.5978 34.21 42.3481 33.001L37.6045 32.7801C37.279 34.2487 37.065 35.6796 36.9641 36.9842L42.7865 36.6717ZM44.3836 33.0957C44.5368 34.3399 44.5522 35.5052 44.4729 36.5816L49.1745 36.3299C49.0559 35.2703 48.7585 34.2384 48.2952 33.2781L44.3836 33.0957ZM41.9883 31.5325C41.4976 29.8095 40.9111 28.6111 40.6036 28.0477C40.4054 28.0353 40.2069 28.0292 40.0083 28.0296C39.6796 28.0296 39.3452 28.0739 39.025 28.1069C38.5569 29.301 38.1637 30.5231 37.8478 31.7661L41.9883 31.5325ZM43.2922 28.6403C43.6259 29.5451 43.8957 30.4722 44.0996 31.4147L46.9717 31.2531C45.9796 30.0918 44.7155 29.1942 43.2922 28.6403ZM48.578 40.9531C48.914 40.1226 49.1314 39.3256 49.1899 38.3154L44.3059 38.0337C44.1115 39.2611 43.7849 40.464 43.3318 41.6212L48.578 40.9531ZM36.5304 28.832C34.8956 29.5774 33.7672 30.5884 32.7616 32.0405L36.1036 31.8638C36.2245 30.3537 36.4192 29.3515 36.5304 28.832Z" fill="white"/>
<path fill-rule="evenodd" clip-rule="evenodd" d="M54.6362 66.4441H56.0621V66.6573H55.4675V68.2267H55.23V66.6573H54.6362V66.4441ZM57.7269 68.2267V67.1738C57.7269 67.1211 57.7315 66.8955 57.7315 66.7297H57.7269L57.2332 68.2271H56.998L56.5043 66.7327H56.4997C56.4997 66.8959 56.5043 67.1214 56.5043 67.1738V68.2267H56.2741V66.4437H56.6147L57.1154 67.9516H57.12L57.6199 66.4437H57.9575V68.2267H57.7269Z" fill="#000F08"/>
</g>
<defs>
<clipPath id="clip0_1297_551">
<rect width="58" height="73" fill="white"/>
</clipPath>
</defs>
</svg>
