<svg width="70" height="35" viewBox="0 0 70 35" fill="none" xmlns="http://www.w3.org/2000/svg">
<g clip-path="url(#clip0_1297_158)">
<path d="M0.0349121 0.0423889V34.6371H35.3742L69.965 0.0462834H0.0349121V0.0423889Z" fill="#01070D"/>
<path d="M44.7972 31.1009V33.681H45.1867V32.5613H45.6247L46.3306 33.681H46.7688L46.0142 32.5613C46.3912 32.5146 46.6957 32.2953 46.6957 31.8311C46.6957 31.3225 46.3844 31.1009 45.7708 31.1009H44.7972ZM45.1867 31.4416H45.7221C45.9854 31.4416 46.2819 31.4845 46.2819 31.8067C46.2819 32.2095 45.9817 32.2449 45.6491 32.2449H45.1867V31.4416ZM45.6735 30.1516C44.4381 30.1516 43.3854 31.1034 43.3854 32.3909C43.3854 33.6877 44.4381 34.6546 45.6735 34.6546C46.8917 34.6546 47.9128 33.6879 47.9128 32.3909C47.9128 31.1034 46.8917 30.1516 45.6735 30.1516ZM45.6735 30.5167C46.6813 30.5167 47.4746 31.3309 47.4746 32.3909C47.4746 33.469 46.6813 34.2651 45.6735 34.2651C44.6484 34.2651 43.8236 33.469 43.8236 32.3909C43.8236 31.3309 44.6484 30.5167 45.6735 30.5167Z" fill="#01070D"/>
<path fill-rule="evenodd" clip-rule="evenodd" d="M41.9372 16.5955H40.4215V11.0521H41.9372C43.9608 11.0521 45.5715 11.7188 45.5715 13.7884C45.5715 15.9257 43.9608 16.5955 41.9372 16.5955ZM25.6232 20.5585C24.821 20.5585 24.0686 20.4121 23.4182 20.1675L25.6014 13.2821H25.6482L27.7862 20.1862C27.1421 20.4168 26.4091 20.5585 25.6256 20.5585H25.6232ZM41.5353 6.54852H34.6522V22.9155L28.6391 6.54852H22.679L17.5414 20.2322C16.9985 16.7832 13.4257 15.5892 10.617 14.6989C8.76559 14.103 6.79498 13.2276 6.81289 12.2578C6.82847 11.4649 7.87141 10.7296 9.92848 10.8395C11.3149 10.9096 12.5378 11.0217 14.9656 12.1955L17.3568 8.02998C15.1416 6.89824 12.072 6.18789 9.56084 6.18243H9.54526C6.61583 6.18243 4.17477 7.13736 2.6606 8.70061C1.60831 9.79418 1.03894 11.1775 1.01324 12.7174C0.97429 14.8266 1.75085 16.3237 3.37641 17.5208C4.75194 18.5287 6.50679 19.1775 8.05679 19.6636C9.96898 20.2532 11.5299 20.768 11.512 21.8655C11.4964 22.2651 11.3476 22.6397 11.0587 22.9357C10.5828 23.4303 9.85137 23.6134 8.83958 23.6359C6.88923 23.6749 5.44282 23.3711 3.13884 22.0096L1.01324 26.2336C3.3102 27.5413 6.02933 28.3062 8.80453 28.3062H9.1636C11.5782 28.2595 13.5285 27.5702 15.0871 26.3177L15.3395 26.0973L14.6509 27.9479H20.9016L21.9515 24.7552C23.0498 25.1268 24.3007 25.3355 25.6248 25.3355C26.917 25.3355 28.1359 25.1408 29.2147 24.7856L30.2242 27.9479H40.423V21.3351H42.6483C48.0227 21.3351 51.2053 18.5996 51.2053 14.0088C51.2053 8.89923 48.1146 6.55553 41.5345 6.55553" fill="white"/>
</g>
<defs>
<clipPath id="clip0_1297_158">
<rect width="70" height="34.697" fill="white"/>
</clipPath>
</defs>
</svg>
