<svg width="120" height="18" viewBox="0 0 120 18" fill="none" xmlns="http://www.w3.org/2000/svg">
<g clip-path="url(#clip0_1297_173)">
<path fill-rule="evenodd" clip-rule="evenodd" d="M29.1942 5.43277C27.9049 5.43277 26.7997 5.89325 25.8788 6.63001V5.61696H22.7476V17.4972H25.9709V9.94543C26.4314 9.30077 27.5365 8.47191 28.9179 8.47191C29.3784 8.47191 29.8389 8.56401 30.2073 8.6561V5.61696C29.8389 5.52486 29.4705 5.43277 29.1942 5.43277Z" fill="#152330"/>
<path fill-rule="evenodd" clip-rule="evenodd" d="M1.47352 13.8116C2.30238 14.5484 3.59171 15.0088 4.69685 15.0088C5.52571 15.0088 6.26247 14.5484 6.26247 13.9958C6.26247 12.1539 0.460476 12.7985 0.460476 9.02264C0.460476 6.72026 2.67076 5.33884 4.97314 5.33884C6.53876 5.33884 8.19647 5.89141 9.02533 6.53607L7.5518 8.83845C6.90714 8.47007 6.17038 8.0096 5.24942 8.0096C4.32847 8.0096 3.68381 8.37798 3.68381 9.02264C3.68381 10.5883 9.4858 9.94359 9.4858 14.0879C9.4858 16.3903 7.27552 17.7717 4.78895 17.7717C3.13124 17.7717 1.38143 17.2191 0 16.2061L1.47352 13.8116Z" fill="#152330"/>
<path fill-rule="evenodd" clip-rule="evenodd" d="M21.3661 11.4171C21.3661 8.10169 19.0637 5.33884 15.7483 5.33884C12.2487 5.33884 9.94629 8.28588 9.94629 11.5092C9.94629 15.2851 12.617 17.6796 16.1167 17.6796C17.9586 17.6796 19.8005 16.9428 20.9977 15.5614L19.1558 13.7195C18.6032 14.3642 17.4981 15.1009 16.2088 15.1009C14.551 15.1009 13.1696 13.9037 12.9854 12.246H21.1819C21.3661 12.0618 21.3661 11.7855 21.3661 11.4171ZM13.2617 10.0357C13.4459 8.93055 14.551 7.9175 15.8404 7.9175C17.1297 7.9175 18.0507 8.93055 18.2349 10.0357H13.2617Z" fill="#152330"/>
<path fill-rule="evenodd" clip-rule="evenodd" d="M44.2057 5.61707L38.7721 17.4973H36.5618L31.1282 5.61707H34.3515L37.6669 12.8926L40.8903 5.61707H44.2057Z" fill="#152330"/>
<path fill-rule="evenodd" clip-rule="evenodd" d="M46.8764 -0.000732422C48.0737 -0.000732422 48.9946 0.920219 48.9946 2.02536C48.9946 3.2226 48.0737 4.05146 46.8764 4.05146C45.6792 4.05146 44.8503 3.1305 44.8503 2.02536C44.8503 0.828124 45.6792 -0.000732422 46.8764 -0.000732422Z" fill="#152330"/>
<path d="M48.5341 5.61697H45.3108V17.4972H48.5341V5.61697Z" fill="#152330"/>
<path fill-rule="evenodd" clip-rule="evenodd" d="M61.6116 15.0088C60.2302 16.8507 58.4804 17.6796 56.2701 17.6796C52.5863 17.6796 49.9155 14.9167 49.9155 11.5092C49.9155 8.0096 52.6784 5.33884 56.2701 5.33884C58.3883 5.33884 60.1381 6.35188 61.2432 7.73331L59.125 9.66731C58.4804 8.83845 57.5594 8.28588 56.4543 8.28588C54.6124 8.28588 53.231 9.7594 53.231 11.5092C53.231 13.3511 54.5203 14.7325 56.4543 14.7325C57.7436 14.7325 58.7567 13.9958 59.3092 13.1669L61.6116 15.0088Z" fill="#152330"/>
<path fill-rule="evenodd" clip-rule="evenodd" d="M73.1236 15.5614C71.9263 16.9428 70.0844 17.6796 68.2425 17.6796C64.7429 17.6796 62.0721 15.2851 62.0721 11.5092C62.0721 8.19379 64.2824 5.33884 67.8741 5.33884C71.0975 5.33884 73.4919 8.10169 73.4919 11.4171C73.4919 11.7855 73.4919 12.0618 73.3998 12.3381H65.1113C65.2955 13.9958 66.6769 15.193 68.3346 15.193C69.6239 15.193 70.7291 14.4563 71.2817 13.8116L73.1236 15.5614ZM70.1765 10.0357C70.0844 9.02264 69.1635 7.9175 67.782 7.9175C66.4927 7.9175 65.3876 8.93055 65.2034 10.0357H70.1765Z" fill="#152330"/>
<path fill-rule="evenodd" clip-rule="evenodd" d="M74.6892 17.4954V5.61513H77.7284V6.62818C78.6493 5.89141 79.7544 5.43094 81.0438 5.43094C82.7015 5.43094 84.175 6.1677 85.1881 7.36494C85.9248 8.28589 86.4774 9.48313 86.4774 11.5092V17.5875H83.2541V11.2329C83.2541 10.0357 82.9778 9.39103 82.5173 9.02265C82.0568 8.56217 81.5043 8.28589 80.6754 8.28589C79.3861 8.28589 78.2809 9.11475 77.7284 9.75941V17.4954H74.6892Z" fill="#152330"/>
<path fill-rule="evenodd" clip-rule="evenodd" d="M94.6739 5.34067C90.8059 5.34067 87.7667 8.37981 87.7667 12.2478C87.7667 14.2739 88.5956 16.1158 89.8849 17.4051C90.3454 17.8656 91.1742 17.8656 91.7268 17.4972C92.4636 16.8526 93.5687 16.4842 94.6739 16.4842C95.8711 16.4842 96.792 16.8526 97.6209 17.4972C98.1735 17.9577 98.9102 17.8656 99.4628 17.313C100.752 16.0237 101.581 14.2739 101.581 12.2478C101.489 8.4719 98.4498 5.34067 94.6739 5.34067ZM94.5818 15.8395C92.4636 15.8395 91.0821 14.2739 91.0821 12.3399C91.0821 10.4059 92.4636 8.84028 94.5818 8.84028C96.6999 8.84028 98.0814 10.4059 98.0814 12.3399C98.0814 14.2739 96.6999 15.8395 94.5818 15.8395Z" fill="#152330"/>
<path fill-rule="evenodd" clip-rule="evenodd" d="M100.752 5.61707H103.883L106.462 12.4321L109.041 5.61707H111.711L114.198 12.4321L116.777 5.61707H120L115.303 17.4973H112.909L110.33 10.7744L107.843 17.4973H105.449L100.752 5.61707Z" fill="#152330"/>
</g>
<defs>
<clipPath id="clip0_1297_173">
<rect width="120" height="17.7966" fill="white"/>
</clipPath>
</defs>
</svg>
