<svg width="120" height="28" viewBox="0 0 120 28" fill="none" xmlns="http://www.w3.org/2000/svg">
<g clip-path="url(#clip0_1297_263)">
<path d="M46.9333 1.36006C47.0133 1.20006 46.9333 0.933392 46.8533 0.773392C46.6933 0.613392 46.5067 0.506725 46.2667 0.506725H40.32L33.0133 25.1201L30.2133 13.1467L38.6933 1.60006C38.7733 1.52006 38.7733 1.44006 38.7733 1.33339L38.9333 0.826728C39.0133 0.666728 38.8533 0.480061 38.7733 0.480061H38.6933H32.6667L26.2133 9.89339L29.0133 1.33339C29.0933 0.986727 28.9333 0.560061 28.5067 0.480061C28.4267 0.480061 28.3467 0.480061 28.3467 0.480061H22.4L17.2267 18.0534C17.3067 14.9867 15.0133 12.7201 13.6533 11.1734C12.56 9.97339 11.8667 9.04006 12.0533 8.10672C12.2133 6.74672 13.3333 5.73339 14.6933 5.73339C16.2133 5.65339 16.8267 6.08006 17.76 6.50672C17.84 6.58672 18.0267 6.58673 18.1067 6.58673C18.1867 6.58673 18.2667 6.58672 18.3733 6.50672C18.5333 6.42672 18.72 6.24006 18.8 6.08006L20.16 1.41339L19.2267 0.986726L19.0667 0.906725H18.9333C17.84 0.400058 16.56 0.133392 15.28 0.240058C10.0267 0.240058 5.25333 3.97339 4.50667 8.56006C4 11.7867 6.02667 14.0801 7.57333 15.6801L7.73333 15.8401C8.82667 17.0401 9.6 17.8667 9.44 18.9867C9.17333 20.4267 7.73333 21.2801 6.37333 21.4401C4.85333 21.5201 3.92 21.0934 2.72 20.5867C2.56 20.5067 2.29333 20.4267 2.05333 20.5067C1.81333 20.5867 1.62667 20.7734 1.54667 21.0134L0.186667 25.5201L0 26.1334C0 26.1334 2.64 27.4934 5.6 27.4934C10.1067 27.4934 13.92 25.7867 16.2133 21.6267L14.8533 26.2134C14.7733 26.3734 14.8533 26.6401 14.9333 26.8001C15.0933 26.9601 15.28 27.0667 15.52 27.0667H21.4667L22.9867 21.9734L24.7733 19.3334L26.1333 26.4534C26.2133 26.8001 26.48 27.0401 26.8 27.0401H39.36L46.9333 1.36006Z" fill="#152330"/>
<path d="M62.88 2.45336C61.68 1.17336 60.08 0.426695 58.2933 0.506695H48.3733L47.9467 1.8667C47.9467 2.0267 47.9467 2.13336 48.0267 2.29336L48.2933 2.72003C48.56 3.1467 48.64 3.65336 48.4533 4.16003L42 25.9734C41.92 26.32 42.08 26.7467 42.4267 26.8267C42.5067 26.8267 42.5067 26.8267 42.5867 26.8267H48.3467L50.1333 20.72H52.7733C59.0667 20.8 62.1867 16.4 63.6267 11.6267C64.2133 9.68003 64.48 8.24003 64.48 7.30669C64.5866 5.33336 64.08 3.81336 62.88 2.45336ZM58.1333 8.05336C58.0533 9.33336 57.6267 10.8534 57.04 12.1334C56.2667 13.7334 55.6 15.0134 53.6533 15.2H51.9467L54.5867 6.21336H56.8C57.1467 6.21336 57.3867 6.29336 57.6533 6.56003C57.9733 6.88003 58.1333 7.38669 58.1333 8.05336Z" fill="#152330"/>
<path d="M71.2 11.5468H67.3066L62.9066 26.4801C62.8266 26.6401 62.9866 26.8268 63.1733 26.9068H63.2533H66.9066C72.7733 26.9068 74.8 19.6001 74.96 16.5601C75.0933 13.1468 73.2266 11.5468 71.2 11.5468ZM71.8933 16.5601C71.8133 18.4268 70.3733 24.2934 67.5733 24.2934H66.64L69.6 14.0268H70.4533C71.28 14.0801 71.9733 14.8534 71.8933 16.5601Z" fill="#152330"/>
<path d="M79.3601 1.09338C79.3601 1.01338 79.3601 0.826717 79.2001 0.826717C79.2001 0.826717 79.2001 0.826717 79.1201 0.826717H77.6801L76.6667 4.29338H74.9334L75.8667 1.06672C75.8667 0.986716 75.8667 0.800049 75.7067 0.800049C75.7067 0.800049 75.7067 0.800049 75.6267 0.800049H74.1867L71.7334 9.12005C71.7334 9.20005 71.7334 9.38672 71.8934 9.38672C71.8934 9.38672 71.8934 9.38672 71.9734 9.38672H73.4134L74.5067 5.65338H76.2134L75.2001 9.12005C75.2001 9.20005 75.2001 9.38672 75.3601 9.38672C75.3601 9.38672 75.3601 9.38672 75.4401 9.38672H76.8801L79.3601 1.09338Z" fill="#152330"/>
<path d="M84.4533 0.853394H80.8V1.0134L78.4266 9.25339C78.4266 9.33339 78.4266 9.52006 78.5866 9.52006C78.5866 9.52006 78.5866 9.52006 78.6666 9.52006H82.32L82.6666 8.32006C82.6666 8.24006 82.6666 8.16006 82.5866 8.05339H82.5066H80.5333L81.2 5.84006H82.9866L83.3333 4.64006C83.3333 4.56006 83.3333 4.37339 83.1733 4.37339C83.1733 4.37339 83.1733 4.37339 83.0933 4.37339H81.5733L82.16 2.34673H84.3733L84.72 1.14673C84.6133 0.933395 84.6133 0.853394 84.4533 0.853394Z" fill="#152330"/>
<path d="M73.0667 2.29345L73.4134 1.09345C73.4134 1.01345 73.4134 0.826782 73.2534 0.826782C73.2534 0.826782 73.2534 0.826782 73.1734 0.826782H69.0134L68.6667 2.02678C68.6667 2.10678 68.6667 2.29345 68.8267 2.29345C68.8267 2.29345 68.8267 2.29345 68.9067 2.29345H70.0001L67.9734 9.25345C67.9734 9.33345 67.9734 9.52011 68.1334 9.52011C68.1334 9.52011 68.1334 9.52011 68.2134 9.52011H69.6534L71.7867 2.29345H73.0667Z" fill="#152330"/>
<path d="M81.12 11.5468H78.5867L74.1867 26.4801C74.1067 26.6401 74.1867 26.8268 74.4534 26.9068H74.5334H77.0667L81.4667 11.9734C81.5467 11.8134 81.3867 11.6268 81.2 11.5468C81.2267 11.5468 81.12 11.5468 81.12 11.5468Z" fill="#152330"/>
<path d="M102 11.9734C102.08 11.8134 102 11.6268 101.84 11.5468H101.76H99.2L97.4133 17.7334H94.3466L96.0533 11.9734C96.1333 11.8134 96.0533 11.6268 95.7867 11.5468H95.7333H93.2L88.8 26.4801C88.72 26.6401 88.8 26.8268 89.0666 26.9068H89.1466H91.68L93.6266 20.2934H96.6933L94.9066 26.4801C94.8266 26.6401 94.9066 26.8268 95.0666 26.9068H95.1466H97.68L102 11.9734Z" fill="#152330"/>
<path d="M110.907 11.5468H104.373L99.9733 26.4801C99.8933 26.6401 99.9733 26.8268 100.24 26.9068H100.32H106.853L107.44 24.7734C107.52 24.6134 107.44 24.4267 107.173 24.3467H107.093H103.627L104.827 20.3467H107.893L108.56 18.2134C108.64 18.0534 108.56 17.8668 108.293 17.7868H108.213H105.493L106.587 14.0534H110.48L111.067 11.9201C111.173 11.7868 111.093 11.6268 110.907 11.5468Z" fill="#152330"/>
<path d="M85.4667 15.7068C85.6267 14.6934 86.48 13.9201 87.4934 13.8401C88.08 13.8401 88.6934 13.9201 89.2 14.1868C89.4667 14.2668 89.7067 14.1868 89.8667 13.9201C89.8667 13.9201 89.8667 13.9201 89.8667 13.8401L90.4534 11.8134C89.68 11.4668 88.8534 11.3068 87.92 11.3068C85.2 11.3068 82.48 13.3334 82.0534 16.0534C81.7867 17.9201 82.9067 19.2001 83.76 20.2134C84.4267 20.9868 84.96 21.6534 84.8534 22.5068C84.5867 23.7868 83.6534 24.3734 82.64 24.4534C81.8667 24.5334 81.44 24.4534 80.6134 24.1068C80.3467 24.0268 80.1067 24.0268 80.0267 24.2668C80.0267 24.2668 80.0267 24.3468 79.9467 24.3468L79.28 26.6401C80.2134 26.9868 81.2267 27.1468 82.24 27.1468C85.2 27.1468 87.76 24.9334 88.2667 22.1334C88.5334 20.2668 87.4134 18.9068 86.56 17.8934C85.7867 17.2268 85.28 16.5601 85.4667 15.7068Z" fill="#152330"/>
<path d="M114.987 15.7068C115.147 14.6934 116 13.9201 117.013 13.8401C117.6 13.8401 118.213 13.9201 118.72 14.1868C118.987 14.2668 119.227 14.1868 119.387 13.9201C119.387 13.9201 119.387 13.9201 119.387 13.8401L119.973 11.8134C119.2 11.4668 118.373 11.3068 117.44 11.3068C114.72 11.3068 112 13.3334 111.573 16.0534C111.307 17.9201 112.427 19.2001 113.28 20.2134C113.947 20.9868 114.48 21.6534 114.373 22.5068C114.107 23.7868 113.173 24.3734 112.16 24.4534C111.387 24.5334 110.96 24.4534 110.133 24.1068C109.867 24.0268 109.627 24.0268 109.547 24.2668C109.547 24.2668 109.547 24.3468 109.467 24.3468L108.8 26.6401C109.733 26.9868 110.747 27.1468 111.76 27.1468C114.72 27.1468 117.28 24.9334 117.787 22.1334C118.053 20.2668 116.933 18.9068 116.08 17.8934C115.413 17.2268 114.827 16.5601 114.987 15.7068Z" fill="#152330"/>
</g>
<defs>
<clipPath id="clip0_1297_263">
<rect width="120" height="27.7333" fill="white"/>
</clipPath>
</defs>
</svg>
