<svg width="120" height="26" viewBox="0 0 120 26" fill="none" xmlns="http://www.w3.org/2000/svg">
<path d="M12.5727 1.17614V2.35708H10.4604V3.12517H12.5727V5.47746H13.3984V3.12517H15.5635V2.35708H13.3984V0H12.5727V1.17614Z" fill="#000F08"/>
<path d="M5.6696 4.17169V5.8855H2.47241V6.96083H5.6696V10.4412H6.85534V6.96083H10.1005V5.8855H6.85534V2.45789H5.6696V4.17169Z" fill="#000F08"/>
<path d="M19.0679 4.17169V5.8855H15.8707V7.01363H19.0679V10.4412H20.3017V7.01363H23.4988V5.8855H20.3017V2.45789H19.0679V4.17169Z" fill="#000F08"/>
<path d="M12.2655 10.0092V11.9294H8.70825V13.36H12.2655V17.2005H13.7057V13.36H17.2629V11.9294H13.7057V8.08896H12.2655V10.0092Z" fill="#000F08"/>
<path d="M22.726 10.9789V12.1839H20.5609V13.1584H22.726V15.5635H23.8061V13.1584H25.9712V12.1839H23.8061V9.77878H22.726V10.9789Z" fill="#000F08"/>
<path d="M2.11225 11.0845V12.2367H0V13.0528H2.11225V15.3571H2.93795V13.0528L5.10301 12.976V12.2367H2.93795V9.9324H2.11225V11.0845Z" fill="#000F08"/>
<path d="M5.6696 16.5092V18.223H2.47241V19.3511H5.6696V22.7787H6.90334V19.3511H10.1005V18.223H6.90334V14.7954H5.6696V16.5092Z" fill="#000F08"/>
<path d="M19.0679 16.5092V18.223H15.8707V19.2983H19.0679V22.7787H20.3017V19.2983H23.4988V18.223H20.3017V14.7954H19.0679V16.5092Z" fill="#000F08"/>
<path d="M12.4719 20.8633V22.0635H10.3069V23.038H12.4719V25.4431H13.5521V23.038H15.7171V22.0635H13.5521V19.6584H12.4719V20.8633Z" fill="#000F08"/>
<path d="M79.0463 5.1174V19.7112H77.3997V5.1174H79.0463ZM38.131 7.16725V11.8238H42.5619V13.36H38.131V18.3766H36.4844V13.36H32.0535V11.8238H36.4844V7.16725H38.131ZM89.6652 10.3644C89.9628 10.3788 90.3421 10.4268 90.5149 10.47C90.6829 10.5132 90.9613 10.6141 91.1294 10.6957C91.3022 10.7725 91.5806 10.9405 91.7486 11.0701C91.9214 11.1997 92.1615 11.4398 92.2863 11.603C92.4111 11.7662 92.5887 12.0638 92.6847 12.2607C92.7808 12.4575 92.9056 12.8031 92.9632 13.0288C93.0208 13.2544 93.088 13.7104 93.1408 14.6417H87.4473L87.4809 14.8338C87.4953 14.9394 87.5577 15.165 87.6057 15.333C87.6585 15.501 87.793 15.7651 87.8986 15.9139C88.0042 16.0627 88.1626 16.2403 88.2442 16.3027C88.3306 16.3651 88.5034 16.4708 88.6331 16.538C88.7579 16.6004 88.9787 16.682 89.1227 16.7204C89.2667 16.7588 89.6508 16.7924 89.9964 16.7924C90.3373 16.7924 90.8269 16.7588 91.0813 16.7156C91.3358 16.6724 91.6958 16.586 91.8782 16.5284C92.0607 16.4708 92.3007 16.3796 92.4063 16.3267C92.5119 16.2739 92.6223 16.2259 92.6511 16.2259C92.6833 16.2259 92.7023 16.4944 92.7038 17.6085L92.7039 17.7621L92.4207 17.8917C92.2623 17.9637 91.9359 18.079 91.6862 18.151C91.4366 18.2182 90.9805 18.3046 90.6685 18.3382C90.2412 18.3814 89.9532 18.3814 89.5068 18.3382C89.1803 18.3046 88.7051 18.2182 88.4506 18.1462C88.1962 18.0742 87.8266 17.9301 87.6345 17.8245C87.4377 17.7189 87.1065 17.4741 86.8952 17.2773C86.6792 17.0804 86.4104 16.7588 86.2856 16.562C86.1608 16.3652 86.0071 16.0291 85.9351 15.8179C85.8631 15.6067 85.7767 15.237 85.7431 15.0018C85.7047 14.7378 85.6951 14.3681 85.7143 14.0801C85.7287 13.8112 85.7911 13.408 85.8487 13.1824C85.9063 12.9567 86.0455 12.5871 86.156 12.3615C86.2664 12.1358 86.4728 11.8142 86.6072 11.6462C86.7464 11.4782 87.0201 11.2189 87.2169 11.0701C87.4137 10.9213 87.7449 10.7341 87.9514 10.6477C88.153 10.5613 88.5034 10.4604 88.7243 10.4172C88.9883 10.3692 89.3051 10.35 89.6652 10.3644ZM106.77 10.2876V12.8607C106.77 14.2769 106.755 15.9715 106.693 17.8197L106.28 17.9445C106.054 18.0117 105.598 18.1174 105.262 18.1702C104.835 18.247 104.427 18.2758 103.875 18.2758C103.438 18.2758 102.934 18.2518 102.752 18.223C102.569 18.1894 102.209 18.0982 101.955 18.0165C101.681 17.9301 101.326 17.7621 101.105 17.6181C100.889 17.4789 100.591 17.2341 100.438 17.066C100.289 16.9028 100.078 16.6148 99.9768 16.4324C99.876 16.2499 99.7368 15.9139 99.6696 15.6931C99.5688 15.3714 99.54 15.1218 99.516 14.5409C99.5016 14.0753 99.516 13.6624 99.5544 13.4368C99.588 13.24 99.6744 12.9087 99.7464 12.6975C99.8136 12.4863 99.972 12.1502 100.097 11.9534C100.217 11.7566 100.476 11.4446 100.673 11.2621C100.894 11.0605 101.182 10.8541 101.417 10.7389C101.628 10.6381 101.935 10.5132 102.108 10.4652C102.276 10.422 102.694 10.3692 103.035 10.3548C103.491 10.3356 103.755 10.3548 104.038 10.4124C104.254 10.4604 104.576 10.5661 104.763 10.6525C104.945 10.7341 105.104 10.8061 105.109 10.8013C105.117 10.8013 105.122 10.7045 105.123 10.5811L105.123 10.2876H106.77ZM55.8067 10.2876L55.8067 13.4887L55.8061 13.8229C55.8025 15.3255 55.7818 16.8001 55.7299 17.8197L55.3171 17.9445C55.0914 18.0117 54.6162 18.1174 54.2609 18.1798C53.7185 18.271 53.4736 18.2806 52.6911 18.2614C51.9663 18.2422 51.6734 18.2134 51.3518 18.1318C51.1214 18.0694 50.7277 17.9205 50.4733 17.7957C50.2044 17.6613 49.8828 17.4501 49.7004 17.2917C49.5324 17.138 49.2923 16.8644 49.1771 16.6868C49.0571 16.5044 48.8987 16.2163 48.8315 16.0483C48.7643 15.8803 48.6635 15.5443 48.6155 15.309C48.5482 14.9634 48.5338 14.709 48.553 14.1041C48.577 13.5232 48.6107 13.24 48.6923 12.9519C48.7547 12.7407 48.8987 12.3951 49.0091 12.1838C49.1195 11.9726 49.3403 11.651 49.5036 11.4734C49.6716 11.2909 49.9452 11.0509 50.1132 10.9357C50.2813 10.8253 50.5597 10.6765 50.7325 10.6093C50.9005 10.5421 51.2078 10.4508 51.4142 10.4124C51.6206 10.374 52.0047 10.3404 52.2639 10.3404C52.5279 10.3404 52.9024 10.3788 53.104 10.4172C53.3008 10.4604 53.6129 10.5661 53.8001 10.6525C53.9825 10.7341 54.1409 10.8061 54.1457 10.8013C54.1505 10.8013 54.1601 10.6861 54.1601 10.5469V10.2876H55.8067ZM65.4415 6.65359L65.4417 9.09307C65.4434 10.5976 65.4575 10.6938 65.5327 10.6717C65.5855 10.6525 65.8351 10.5853 66.0896 10.5132C66.392 10.4316 66.7568 10.3788 67.1457 10.3548C67.5873 10.3356 67.8466 10.35 68.173 10.4124C68.4514 10.4652 68.7827 10.5805 69.0755 10.7245C69.3299 10.8493 69.666 11.0605 69.8244 11.1997C69.978 11.3341 70.2228 11.6174 70.3621 11.8286C70.5061 12.0398 70.6837 12.3759 70.7605 12.5823C70.8421 12.7839 70.9429 13.1632 70.9909 13.4272C71.0485 13.7728 71.063 14.0705 71.0437 14.5409C71.0293 14.8914 70.9765 15.3282 70.9285 15.5106C70.8853 15.6931 70.7701 16.0051 70.6789 16.2019C70.5877 16.3988 70.4053 16.7012 70.2757 16.8692C70.1508 17.0372 69.8964 17.2869 69.714 17.4261C69.5364 17.5653 69.2099 17.7573 68.9987 17.8533C68.7875 17.9541 68.437 18.079 68.2258 18.1366C67.8946 18.2278 67.6833 18.2422 66.7328 18.247C65.8351 18.2518 65.5423 18.2326 65.187 18.1558C64.947 18.103 64.5486 18.0021 64.3085 17.9349C64.0685 17.8677 63.8573 17.7909 63.8381 17.7717C63.8189 17.7525 63.7949 15.2466 63.7853 12.1983L63.7661 6.65359H65.4415ZM114.863 10.494L114.859 13.0672L114.859 13.2695C114.859 13.3023 114.859 13.3347 114.859 13.3666L114.859 13.7292C114.86 15.3268 114.87 15.634 114.933 15.8798L114.94 15.906C114.946 15.9277 114.953 15.9492 114.959 15.9715C115.022 16.1635 115.137 16.3892 115.233 16.5044C115.324 16.61 115.516 16.754 115.66 16.8212C115.8 16.8884 116.068 16.9652 116.251 16.9892C116.448 17.018 116.726 17.018 116.923 16.9892C117.105 16.9652 117.374 16.8884 117.513 16.8212C117.657 16.754 117.849 16.61 117.941 16.5044C118.037 16.3892 118.157 16.1635 118.214 15.9715C118.222 15.9465 118.229 15.9225 118.236 15.8968L118.24 15.8772C118.3 15.6242 118.312 15.167 118.314 12.3226L118.315 12.0931C118.315 12.054 118.315 12.0145 118.315 11.9745L118.315 11.3425C118.315 11.2981 118.315 11.2533 118.315 11.2081L118.315 10.494H120L119.99 13.2736C119.986 15.5928 119.982 15.9905 119.915 16.2528L119.909 16.276C119.906 16.2875 119.903 16.2988 119.899 16.31L119.892 16.3327L119.885 16.3555C119.827 16.5236 119.707 16.778 119.616 16.9172C119.525 17.0612 119.366 17.2581 119.256 17.3637C119.15 17.4693 118.92 17.6373 118.752 17.7381C118.584 17.8389 118.257 17.9781 118.032 18.0502C117.773 18.1318 117.427 18.1942 117.105 18.2182C116.817 18.2326 116.356 18.2326 116.073 18.2134C115.752 18.1942 115.401 18.1318 115.147 18.0502C114.916 17.9781 114.595 17.8389 114.422 17.7381C114.254 17.6373 114.028 17.4693 113.918 17.3637C113.812 17.2581 113.649 17.0612 113.558 16.9172C113.471 16.778 113.351 16.5236 113.294 16.3555L113.29 16.3442L113.282 16.3218C113.275 16.2994 113.268 16.2771 113.262 16.2536L113.256 16.2297C113.191 15.965 113.186 15.5112 113.174 13.2736L113.154 10.494H114.863ZM103.472 11.8814C103.289 11.8814 103.011 11.9198 102.857 11.9582C102.699 12.0014 102.459 12.0974 102.319 12.1742C102.18 12.2511 101.979 12.4095 101.868 12.5295C101.758 12.6495 101.614 12.8607 101.542 13.0047C101.47 13.144 101.379 13.4032 101.335 13.5808C101.292 13.7536 101.259 14.0945 101.259 14.3345C101.259 14.5745 101.292 14.9154 101.335 15.0882C101.379 15.2658 101.46 15.5058 101.523 15.6259C101.585 15.7459 101.743 15.9571 101.873 16.0915C102.003 16.2307 102.214 16.394 102.339 16.4564C102.468 16.5236 102.699 16.6148 102.857 16.658C103.035 16.7108 103.328 16.7396 103.668 16.7396C103.956 16.7396 104.365 16.7156 104.566 16.6868C104.773 16.658 104.969 16.6148 104.998 16.5956C105.041 16.5716 105.065 15.9523 105.08 14.4689L105.094 12.3711C104.576 12.107 104.288 11.9966 104.115 11.9534C103.947 11.9102 103.659 11.8766 103.472 11.8814ZM51.8894 11.9582C51.7358 12.0014 51.4958 12.0974 51.3566 12.1742C51.2174 12.2511 51.0157 12.4095 50.9053 12.5295C50.7949 12.6495 50.6461 12.8607 50.5789 13.0047C50.5069 13.144 50.4157 13.4032 50.3725 13.5808C50.3293 13.7536 50.2957 14.0705 50.2957 14.2817C50.2957 14.4929 50.3197 14.805 50.3485 14.973C50.3821 15.141 50.4685 15.4194 50.5501 15.5875C50.6461 15.7891 50.7997 15.9955 50.9965 16.1779C51.1886 16.3555 51.4142 16.5044 51.611 16.5812C51.851 16.6772 52.0431 16.706 52.5375 16.73C52.888 16.7444 53.3296 16.7252 53.5648 16.6916C53.7905 16.658 54.0017 16.6148 54.0353 16.5956C54.0737 16.5716 54.1025 15.9043 54.1265 14.4737L54.1601 12.3903C53.7377 12.1598 53.5024 12.0542 53.3584 12.0062C53.2192 11.9534 52.8928 11.9054 52.6383 11.8958C52.3215 11.8814 52.0863 11.9006 51.8894 11.9582ZM67.0161 11.8814C66.8192 11.8862 66.56 11.9102 66.4496 11.9342C66.3344 11.9582 66.0704 12.0398 65.8543 12.1166L65.4703 12.2511V16.5092C66.2768 16.7204 66.4496 16.7348 66.9873 16.7204C67.5153 16.706 67.6881 16.682 67.9426 16.586C68.1106 16.5188 68.3458 16.394 68.4562 16.3027C68.5714 16.2163 68.7347 16.0531 68.8211 15.9427C68.9075 15.8323 69.0323 15.6019 69.0947 15.4338C69.1619 15.2658 69.2387 14.9442 69.2675 14.7186C69.3107 14.4113 69.3107 14.2001 69.2627 13.8737C69.2243 13.5808 69.1427 13.3168 69.0227 13.0672C68.9267 12.8607 68.7587 12.6063 68.6531 12.5007C68.5474 12.3951 68.3554 12.2463 68.2258 12.1742C68.101 12.0974 67.8562 12.0014 67.6833 11.9582C67.5153 11.9102 67.2129 11.8766 67.0161 11.8814ZM89.0939 11.9534C88.9403 11.9966 88.6907 12.107 88.537 12.1983C88.3834 12.2895 88.1674 12.4671 88.0522 12.5919C87.9418 12.7215 87.793 12.9327 87.7257 13.0672C87.6585 13.2016 87.6009 13.3312 87.6009 13.36C87.6009 13.392 88.1888 13.4109 89.2773 13.4127L91.2878 13.4128C91.235 13.0335 91.187 12.8463 91.1486 12.7455C91.1054 12.6495 90.9805 12.4671 90.8701 12.3471C90.7357 12.1983 90.5725 12.0926 90.3853 12.0206C90.2268 11.9678 89.9388 11.9102 89.742 11.8958C89.5116 11.8862 89.2763 11.9054 89.0939 11.9534Z" fill="#000F08"/>
</svg>
