<svg width="120" height="25" viewBox="0 0 120 25" fill="none" xmlns="http://www.w3.org/2000/svg">
<g clip-path="url(#clip0_1297_259)">
<path d="M25.3041 1.13042C25.7524 1.75874 25.7075 2.5659 25.9304 3.282L25.572 3.59719C20.2375 3.72988 15.4836 4.00056 10.1479 4.40311C10.4169 5.43441 11.8524 6.19706 11.4474 7.49821C8.84756 12.8335 6.69515 18.3933 4.40843 23.9103C4.05078 24.2234 3.55637 24.0422 3.24282 23.7731C2.56998 23.0109 0.911181 22.5189 1.44887 21.2627C3.82623 15.6575 6.20278 10.0977 9.07292 4.71871C6.06846 4.80812 3.24282 5.21149 0.193441 5.43481L0.0599365 5.34704L1.13614 2.92477C9.02801 1.75874 17.0073 1.041 25.3041 1.13042Z" fill="#152330"/>
<path d="M19.2046 7.22871C19.3846 7.81131 19.3397 8.61928 19.0262 9.15697C18.5779 9.7853 17.905 10.2781 17.1424 10.323C16.2911 10.4565 15.4836 10.0531 15.1255 9.24761C14.8557 8.57478 14.6773 7.58799 15.0806 6.87025C15.3484 6.28765 16.0217 5.97246 16.6047 5.79405C17.6801 5.74914 18.7563 6.15251 19.2046 7.22871ZM14.4074 11.1293C14.9908 11.9368 16.4247 12.6089 16.1568 13.73C14.9002 16.1514 13.6451 18.5267 12.7935 21.0817C14.2273 20.3664 15.5734 18.9767 16.8297 17.7641C18.8012 15.7472 20.64 13.6859 22.3891 11.5792C23.2852 11.8021 24.0928 12.6089 24.6313 13.238C23.6453 15.2549 22.5246 17.2721 21.6268 19.3351L28.6666 12.4296C29.4734 12.9236 30.7296 13.6859 30.7741 14.6719C29.6085 16.2845 28.7124 18.0348 27.9942 19.7846L34.9875 13.5503C35.8853 13.4605 36.6014 14.5816 37.1848 15.3006C35.9302 17.4967 34.0464 19.4682 34.182 22.1604C34.4049 22.7421 35.0324 22.7421 35.4374 22.6976C35.123 23.3231 34.4947 23.8645 33.8219 23.9984C32.9706 24.2233 32.2529 23.8649 31.5797 23.4607C29.8331 21.1727 32.1631 18.9309 33.1058 16.9137C30.5941 18.5267 28.3968 21.127 26.3803 23.2815C25.4825 22.8777 24.7652 22.115 24.003 21.5773L24.0479 20.8604C24.9889 19.291 25.8418 17.6763 26.8278 16.1514L26.5579 16.1967C24.2708 18.3018 21.8963 20.4999 19.9668 22.9671C18.9808 23.1459 18.2635 22.3396 17.5025 21.8897L17.3669 21.6227C18.128 19.7846 19.1164 18.0348 19.8325 16.2404C17.3224 18.5725 14.9451 21.2626 12.1203 22.8315C11.0441 22.9671 10.5064 21.8003 9.69798 21.2189L9.52039 20.8604C10.7309 17.4971 11.8969 14.0443 14.0036 11.0836L14.4074 11.1293ZM89.7366 15.9718C88.3011 17.4967 86.9114 19.2012 87.5846 21.3524C87.8075 21.9812 88.435 22.4278 89.1095 22.3833C91.2603 22.0706 92.2479 19.6479 92.6941 17.8997C92.1103 17.9891 91.6183 17.8099 91.1264 17.6306C90.4519 17.3179 90.0056 16.5552 89.7366 15.9718ZM63.101 14.9389C61.7582 15.9718 60.7253 17.3179 60.4126 18.8432C60.277 19.6483 60.4126 20.4105 60.9498 20.994C61.3083 21.3982 61.846 21.5317 62.4294 21.488C64.5834 21.0821 65.8364 18.7081 66.1969 16.779L65.2991 16.7353C64.3128 16.8239 63.417 15.7032 63.101 14.9389ZM48.7997 13.4173C50.4136 14.4012 51.264 16.1515 51.9369 17.6306C52.5652 16.1057 53.1931 14.4923 53.6863 12.9674C52.072 13.1025 50.323 13.1025 48.7997 13.4173ZM52.2953 2.16125L48.0807 11.892C50.0976 11.9814 52.252 11.7564 54.3587 11.667C55.9277 8.30409 57.3166 4.85135 59.2004 1.57865C60.1415 0.862546 60.8143 2.29639 61.5328 2.74427L61.6664 3.10436C60.2766 5.88427 58.8877 8.66378 57.6763 11.5315C61.0833 11.9365 66.1965 10.2777 67.8553 13.9982C67.9888 14.2689 67.8096 14.6253 67.9888 14.8503C70.3205 13.5961 72.1601 11.2183 73.5499 9.15656C74.5359 9.42439 73.7279 10.3226 74.0439 11.0832C74.0876 11.6217 74.5359 12.1145 74.9841 12.3399C75.3863 12.475 76.0154 12.25 76.1489 12.742C75.3426 14.7625 73.9982 16.5548 73.1902 18.5264C72.7881 19.514 72.0691 20.5432 72.5174 21.668C72.8775 22.16 73.5503 21.9808 73.9986 21.7995C77.8996 18.8844 79.0207 14.4004 81.0837 10.5006C81.1274 10.4128 80.9918 10.3679 80.9918 10.3222L78.3475 10.4557C78.1666 9.9629 78.6602 9.55953 79.0203 9.24679L81.7104 8.97611C82.6045 7.3173 83.2337 5.56827 84.2654 3.90947C85.2089 4.22465 86.1487 5.25554 86.4174 6.1966C86.1924 7.09439 85.5216 7.8554 85.3403 8.66337C88.3464 8.57355 91.4848 8.21346 94.6228 8.3486C94.9359 8.79688 94.9817 9.33457 95.0711 9.82899C91.4848 9.96249 88.0762 10.0523 84.5336 10.1874C82.7413 13.7745 81.0372 17.4506 79.6486 21.2181C79.5572 21.668 79.6486 22.2053 80.1863 22.3388C81.8451 22.2053 83.1875 20.8596 84.2188 19.5136C85.2081 16.6879 86.8669 13.0123 90.2739 12.2496C91.6636 12.0263 92.8725 12.5203 93.8144 13.5038C94.5334 14.3563 94.9355 15.2998 94.8477 16.4646C96.8189 15.8812 98.3883 14.3126 100.003 12.8767C100.945 13.0576 101.439 14.133 102.02 14.7621L101.841 15.5668C101.033 16.8676 100.361 18.301 99.7343 19.6924C102.02 17.7629 104.487 15.4329 106.729 13.4161C107.582 13.7292 108.255 14.7164 108.255 15.5668C107.088 17.4506 106.146 19.4221 105.742 21.6219C105.742 22.1596 105.563 22.7414 106.1 23.1015L106.641 22.9663C109.688 19.2445 111.751 15.0295 115.427 11.6662C116.056 12.4746 116.861 13.55 116.685 14.6253C114.127 17.5424 118.97 20.5432 115.785 23.2807C114.665 24.4018 112.96 24.4018 111.526 23.9523C110.989 23.729 110.361 23.504 110.047 22.9667C110.318 22.2478 110.63 21.4435 111.257 20.9495C111.393 21.7999 111.438 22.8312 112.378 23.2811C112.96 23.5044 113.589 23.1917 113.86 22.6524C114.575 20.7245 112.514 19.6034 112.916 17.5865C113.006 16.7345 113.366 15.882 113.543 15.1198C111.123 17.7641 109.463 20.7249 107.446 23.5485C106.773 24.2234 105.877 24.4447 104.979 24.3128C104.218 24.2234 103.545 23.7735 103.232 23.1023C102.56 21.2189 103.007 18.931 104.129 17.2722L103.77 17.362C101.661 19.3809 99.509 21.4876 97.5815 23.5485C96.6854 23.415 95.9684 22.5193 95.4291 21.8003C96.1918 19.6483 97.3129 17.6764 98.4781 15.7032C97.2692 16.3303 95.9688 17.0035 94.6228 17.4971C93.8605 20.3228 91.7518 23.5485 88.6596 24.2675C87.4507 24.5823 85.9238 24.2675 85.0276 23.1464C84.4903 22.5646 84.3552 21.8003 84.042 21.1275C82.3375 22.7863 80.2308 24.3132 77.8535 23.3697C76.8242 22.7426 76.7328 21.5317 76.8242 20.4563C75.4781 22.2943 73.5948 23.5485 71.3085 23.415C70.4564 23.3236 69.5141 23.0565 69.1561 22.1608C68.5727 18.8857 70.8149 16.2409 72.5635 13.6859C72.43 13.3258 72.3402 12.9674 72.1609 12.6546C70.7712 13.8639 69.4255 15.3451 67.8104 16.1057C67.3642 19.3352 65.2559 23.1464 61.759 23.9107C60.5469 23.9531 59.4715 23.7298 58.5737 23.0112C57.1399 21.8003 56.8704 19.7851 57.3632 17.9891C57.9466 15.9722 59.4262 14.0885 61.2217 12.7881L61.0846 12.6546L57.0954 12.7428C55.3908 16.3764 53.6875 20.0068 52.3864 23.7739C52.2537 24.0887 51.8932 24.0887 51.6703 23.9992C49.3386 23.3701 51.1758 21.0401 50.4597 19.5152C50.0996 17.4979 49.1137 15.479 47.1417 14.402L46.9617 14.4935C45.6168 17.5878 44.3173 20.7698 42.8818 23.7743H42.5234C41.6701 22.968 39.9235 22.1155 40.5494 20.6804L43.6445 13.5973C43.2411 13.3266 42.1657 13.6426 42.3433 12.7432C42.8818 12.0279 44.1372 12.655 44.4512 11.803L49.5178 0.234993C49.7877 -0.034874 50.1454 -0.034874 50.4156 0.234993C51.0407 0.862505 51.9818 1.26588 52.2953 2.16121V2.16125Z" fill="#152330"/>
<path fill-rule="evenodd" clip-rule="evenodd" d="M117.703 23.1023C117.703 22.547 118.154 22.0955 118.714 22.0955C119.268 22.0955 119.722 22.5466 119.722 23.1023C119.722 23.6608 119.269 24.1127 118.714 24.1127C118.154 24.1127 117.703 23.6608 117.703 23.1023ZM117.485 23.1023C117.485 23.7804 118.035 24.3307 118.714 24.3307C119.388 24.3307 119.94 23.7804 119.94 23.1023C119.94 22.4278 119.388 21.8774 118.714 21.8774C118.035 21.8774 117.485 22.4278 117.485 23.1023ZM118.499 22.6119H118.685C118.843 22.6087 119.019 22.6193 119.019 22.8075C119.019 22.9953 118.843 23.0039 118.685 23.0039H118.499V22.6119ZM118.24 23.7963H118.499V23.2219H118.685L119.033 23.7963H119.306L118.939 23.2023C119.132 23.1794 119.276 23.0618 119.276 22.8177C119.276 22.547 119.117 22.3943 118.78 22.3943H118.241V23.7963H118.24Z" fill="#152330"/>
</g>
<defs>
<clipPath id="clip0_1297_259">
<rect width="120" height="24.4156" fill="white"/>
</clipPath>
</defs>
</svg>
