<svg width="95" height="32" viewBox="0 0 95 32" fill="none" xmlns="http://www.w3.org/2000/svg">
<path d="M60.0713 30.6863C59.2124 30.6863 58.3535 30.3479 57.7028 29.6972L44.1946 15.8767L57.7028 2.05615C58.3535 1.37944 59.2124 1.06711 60.0973 1.06711C61.9973 1.06711 63.4028 2.60272 63.4028 4.37259C63.4028 5.20546 63.0905 6.06437 62.4658 6.71505L53.4864 15.8767L62.4658 25.0383C63.0905 25.689 63.4028 26.5479 63.4028 27.3808C63.3768 29.1507 61.9713 30.6863 60.0713 30.6863Z" fill="#01070D"/>
<path d="M40.3946 30.6863C38.5727 30.6863 37.0891 29.2027 37.0891 27.3808V4.39862C37.0891 2.5767 38.5727 1.09314 40.3946 1.09314C42.2165 1.09314 43.7001 2.5767 43.7001 4.39862V27.3808C43.7261 29.2027 42.2425 30.6863 40.3946 30.6863Z" fill="#01070D"/>
<path d="M81.9603 30.6603C73.3973 30.6603 66.8124 24.8822 66.8124 15.8767C66.8124 7.78218 72.4603 1.06711 81.9603 1.06711C84.6672 1.06711 87.5562 1.76985 89.8726 3.1493C90.9137 3.77396 91.4863 4.86711 91.4863 6.01231C91.4863 7.73012 90.1069 9.31779 88.1809 9.31779C87.5822 9.31779 87.0096 9.16163 86.4631 8.8493C85.2137 8.14656 83.6781 7.59999 82.0124 7.59999C76.8069 7.59999 73.5795 11.1657 73.5795 15.8767C73.5795 20.9 77.1192 24.1274 82.0124 24.1274C83.7562 24.1274 85.8644 23.4767 87.1918 22.5657V19.5466H84.9795C83.1576 19.5466 81.674 18.063 81.674 16.2411C81.674 14.4192 83.1576 12.9356 84.9795 12.9356H90.4973C92.3192 12.9356 93.8028 14.4192 93.8028 16.2411V23.8671C93.8028 24.8562 93.3863 25.8192 92.6836 26.4959C89.9507 29.1767 86.0987 30.6603 81.9603 30.6603Z" fill="#01070D"/>
<path d="M8.19866 4.58081C8.19866 6.50683 6.63702 8.09451 4.68496 8.09451C2.75894 8.09451 1.17126 6.53286 1.17126 4.58081C1.17126 2.65478 2.73291 1.06711 4.68496 1.06711C6.61099 1.06711 8.19866 2.65478 8.19866 4.58081Z" fill="#01070D"/>
<path d="M29.6453 4.58081C29.6453 6.50683 28.0836 8.09451 26.1316 8.09451C24.2056 8.09451 22.6439 6.50683 22.6439 4.58081C22.6439 2.65478 24.2056 1.06711 26.1576 1.06711C28.0836 1.06711 29.6453 2.65478 29.6453 4.58081Z" fill="#01070D"/>
<path d="M15.4083 30.6863C7.65215 30.6863 1.35352 24.3876 1.35352 16.6315V14.3931C1.35352 12.5712 2.83708 11.0876 4.659 11.0876C6.48091 11.0876 7.96448 12.5712 7.96448 14.3931V16.7096C7.96448 20.7959 10.385 24.1274 15.3823 24.1274C20.0412 24.1274 22.8001 20.7959 22.8001 16.7096V14.3931C22.8001 12.5712 24.2837 11.0876 26.1056 11.0876C27.9275 11.0876 29.4111 12.5712 29.4111 14.3931V16.6315C29.4631 24.3876 23.1645 30.6863 15.4083 30.6863Z" fill="#01070D"/>
</svg>
