<svg width="120" height="29" viewBox="0 0 120 29" fill="none" xmlns="http://www.w3.org/2000/svg">
<g clip-path="url(#clip0_1297_557)">
<path d="M105.391 9.59831C106.059 9.59831 106.609 9.25095 106.684 8.80218L107.343 1.34259C107.343 0.605286 106.479 0 105.393 0C104.308 0 103.446 0.605283 103.446 1.34272L104.105 8.80218C104.177 9.25082 104.727 9.59831 105.394 9.59831H105.391ZM101.36 11.9283C101.695 11.3504 101.669 10.7009 101.316 10.4124L95.1849 6.11141C94.5474 5.74222 93.5915 6.1866 93.0491 7.1274C92.5047 8.067 92.6012 9.1164 93.237 9.48572L100.026 12.6468C100.451 12.8041 101.029 12.5014 101.362 11.9239L101.36 11.9283ZM109.426 11.9243C109.761 12.5018 110.337 12.8047 110.762 12.6472L117.551 9.48612C118.191 9.11694 118.282 8.0674 117.742 7.1278C117.197 6.18793 116.24 5.74262 115.604 6.11181L109.472 10.4128C109.121 10.7009 109.095 11.351 109.429 11.9287L109.426 11.9243ZM105.391 18.9165C106.059 18.9165 106.609 19.2609 106.684 19.7101L107.343 27.1686C107.343 27.9082 106.479 28.5121 105.393 28.5121C104.308 28.5121 103.446 27.9082 103.446 27.1686L104.105 19.7101C104.177 19.2609 104.727 18.9165 105.394 18.9165H105.391ZM109.426 16.586C109.761 16.0069 110.337 15.7067 110.762 15.8658L117.551 19.0248C118.191 19.3944 118.282 20.4449 117.742 21.3853C117.197 22.3221 116.24 22.7686 115.604 22.3999L109.472 18.1029C109.121 17.8125 109.095 17.1621 109.429 16.5848H109.426M101.36 16.5852C101.695 17.1621 101.669 17.8125 101.316 18.1034L95.1849 22.4003C94.5474 22.769 93.5915 22.3225 93.0491 21.3857C92.5047 20.4453 92.6012 19.3948 93.237 19.0252L100.026 15.8662C100.451 15.7071 101.029 16.0073 101.362 16.5865H101.36" fill="#000F08"/>
<path d="M66.7161 18.0893C66.7161 18.3182 66.6957 18.5543 66.633 18.7617C66.373 19.6229 65.4813 20.3511 64.3658 20.3511C63.4356 20.3511 62.6968 19.8228 62.6968 18.7068C62.6968 16.9989 64.5767 16.5272 66.7166 16.5391L66.7161 18.0892V18.0893ZM70.0726 15.1129C70.0726 12.2966 68.8692 9.81853 64.8031 9.81853C62.7159 9.81853 61.0593 10.4048 60.1551 10.9273L60.8174 13.1914C61.6437 12.6697 62.9607 12.2378 64.2071 12.2378C66.2696 12.2321 66.6074 13.4058 66.6074 14.1569V14.3347C62.1115 14.3281 59.2695 15.8848 59.2695 19.056C59.2695 20.9938 60.717 22.8087 63.2332 22.8087C64.7793 22.8087 66.0742 22.1916 66.8492 21.2021H66.9257C66.9257 21.2021 67.4385 23.3504 70.2694 22.5284C70.1217 21.635 70.0731 20.6813 70.0731 19.5345L70.0727 15.1129M0.0227051 5.9832C0.0227051 5.9832 2.96063 18.0216 3.42976 19.9753C3.97702 22.2557 4.96334 23.0953 7.8057 22.5284L9.64005 15.0651C10.1052 13.2104 10.4165 11.8881 10.7162 10.0033H10.7684C10.9788 11.908 11.2773 13.2161 11.6601 15.0713C11.6601 15.0713 12.4064 18.4597 12.7893 20.2388C13.1726 22.0174 14.2394 23.1391 17.0239 22.5284L21.3951 5.98267H17.8669L16.3739 13.1365C15.9725 15.218 15.6087 16.8464 15.3278 18.7502H15.2779C15.0228 16.8631 14.6979 15.3012 14.2903 13.2727L12.7371 5.98267H9.06045L7.39818 13.0889C6.92772 15.2489 6.48653 16.9924 6.20704 18.8329H6.1562C5.86927 17.0998 5.4873 14.9077 5.07393 12.8178C5.07393 12.8178 4.08708 7.73477 3.73999 5.98267L0.0227051 5.9832ZM28.0689 18.0893C28.0689 18.3182 28.0485 18.5543 27.9849 18.7617C27.7254 19.6229 26.8332 20.3511 25.7176 20.3511C24.7873 20.3511 24.0496 19.8228 24.0496 18.7068C24.0496 16.9989 25.929 16.5272 28.0693 16.5391L28.0689 18.0892V18.0893ZM31.425 15.1129C31.425 12.2966 30.2216 9.81853 26.1563 9.81853C24.0685 9.81853 22.4107 10.4048 21.507 10.9273L22.1684 13.1914C22.9946 12.6697 24.3117 12.2378 25.5585 12.2378C27.6224 12.2321 27.9602 13.4058 27.9602 14.1569V14.3347C23.4625 14.3281 20.6218 15.8848 20.6218 19.056C20.6218 20.9938 22.0685 22.8087 24.5828 22.8087C26.131 22.8087 27.4251 22.1916 28.2011 21.2021H28.2766C28.2766 21.2021 28.7909 23.3504 31.6212 22.5284C31.4732 21.635 31.425 20.6813 31.425 19.5345V15.1129ZM37.0261 19.0163V5.9832H33.6656V22.529H37.0261V19.0163ZM80.9873 5.9832V18.1887C80.9873 19.8723 81.3047 21.0505 81.9814 21.7716C82.5745 22.402 83.5488 22.8101 84.7173 22.8101C85.7112 22.8101 86.6884 22.6204 87.1495 22.4494L87.1061 19.8241C86.763 19.9079 86.3691 19.9758 85.8298 19.9758C84.6847 19.9758 84.3018 19.2422 84.3018 17.7316V13.0615H87.2282V9.89532H84.3018V5.9832H80.9873ZM72.3134 10.0992V22.529H75.7799V16.1647C75.7799 15.8207 75.8007 15.521 75.8551 15.2468C76.1116 13.913 77.131 13.0615 78.5954 13.0615C78.9968 13.0615 79.2841 13.1051 79.5954 13.1493V9.89532C79.3342 9.84328 79.1569 9.81893 78.8319 9.81893C77.5383 9.81893 76.0665 10.6537 75.4488 12.4442H75.3551V10.0992H72.3134ZM39.3791 10.0992V22.529H42.7565V15.2401C42.7565 14.8981 42.7967 14.5364 42.9151 14.2228C43.195 13.489 43.878 12.6295 44.9679 12.6295C46.3314 12.6295 46.9681 13.7816 46.9681 15.4444V22.528H50.3428V15.1504C50.3428 14.8241 50.3874 14.4307 50.4839 14.143C50.761 13.3077 51.4967 12.6286 52.51 12.6286C53.8916 12.6286 54.5548 13.7605 54.5548 15.7177V22.5276H57.9317V15.2065C57.9317 11.346 55.9713 9.81773 53.7581 9.81773C52.7788 9.81773 52.0051 10.063 51.3053 10.4918C50.7177 10.8538 50.1907 11.3667 49.7308 12.041H49.6809C49.1473 10.7014 47.8916 9.8184 46.2553 9.8184C44.1531 9.8184 43.2083 10.884 42.6353 11.7877H42.5849V10.0988H39.3791" fill="#000F08"/>
<path d="M119.254 21.9247H119.305C119.372 21.9247 119.416 21.8968 119.416 21.8553C119.416 21.808 119.375 21.7823 119.312 21.7823C119.291 21.7823 119.268 21.7867 119.254 21.7867V21.9259V21.9246L119.254 21.9247ZM119.246 22.2598H119.066V21.6749C119.107 21.6669 119.202 21.6527 119.324 21.6527C119.456 21.6527 119.515 21.6713 119.558 21.7006C119.595 21.7262 119.622 21.7698 119.622 21.8288C119.622 21.8888 119.566 21.9396 119.485 21.9619V21.9693C119.551 21.987 119.588 22.0352 119.607 22.1197C119.625 22.2041 119.636 22.2385 119.647 22.2602H119.444C119.426 22.2385 119.416 22.1868 119.404 22.1351C119.392 22.0759 119.364 22.0462 119.304 22.0462H119.245L119.246 22.2598ZM119.32 21.4843C119.062 21.4843 118.868 21.6944 118.868 21.9621C118.868 22.223 119.063 22.4358 119.327 22.4358C119.593 22.4402 119.788 22.2231 119.788 21.9579C119.788 21.6938 119.593 21.4843 119.324 21.4843H119.32ZM119.332 21.3256C119.691 21.3256 119.978 21.6085 119.978 21.9577C119.978 22.3111 119.691 22.5944 119.327 22.5944C118.962 22.5944 118.672 22.3107 118.672 21.9579C118.672 21.6085 118.963 21.3257 119.327 21.3257H119.331" fill="#000F08"/>
</g>
<defs>
<clipPath id="clip0_1297_557">
<rect width="120" height="28.512" fill="white"/>
</clipPath>
</defs>
</svg>
