<svg width="100" height="41" viewBox="0 0 100 41" fill="none" xmlns="http://www.w3.org/2000/svg">
<g clip-path="url(#clip0_1297_162)">
<path d="M51.1628 3.09199e-07C54.7637 -0.150037 58.3646 0.450113 61.7404 1.57539C66.7667 3.45086 71.3428 6.67667 74.6437 10.8777C76.069 12.7532 77.3443 14.7787 78.3196 16.9542C78.4696 17.3293 78.6197 17.7044 78.5446 18.1545C78.4696 18.8297 77.8695 19.3548 77.1943 19.4299C76.5191 19.5049 75.7689 19.1298 75.5439 18.4546C73.6684 13.9535 70.3676 10.0525 66.3166 7.35184C63.841 5.70143 60.9902 4.42611 58.0645 3.75094C54.2386 2.85071 50.2626 2.85071 46.5116 3.75094C40.9602 5.02626 36.009 8.10203 32.5581 12.4531C31.0578 14.2536 29.8575 16.2791 28.9572 18.4546C28.7322 18.9797 28.2821 19.3548 27.7569 19.4299C27.2318 19.5049 26.7067 19.3548 26.3316 18.9797C25.8815 18.5296 25.7314 17.8545 25.9565 17.3293C28.5071 11.2528 33.1583 6.22656 38.9347 3.22581C42.6857 1.27532 46.9617 0.150038 51.1628 3.09199e-07Z" fill="#01070D"/>
<path d="M46.4366 18.5296C46.4366 18.2295 46.7367 18.0045 47.0367 18.0045C47.4118 18.0045 47.7869 18.0045 48.162 18.0045C48.4621 18.0045 48.7622 18.1545 48.7622 18.4546C48.7622 21.9055 48.7622 25.4313 48.7622 28.9572C50.1875 27.3818 51.6129 25.8064 53.0382 24.231C53.3383 23.931 53.5634 23.5559 53.9385 23.4809C54.5386 23.4809 55.1388 23.4809 55.6639 23.4809C55.8889 23.4809 56.114 23.6309 56.039 23.931C55.964 24.081 55.8139 24.231 55.6639 24.3811C54.1635 25.8815 52.5881 27.4568 51.0877 28.9572C52.5881 30.6076 54.0135 32.3331 55.5139 34.0585C55.7389 34.2836 55.964 34.5086 56.114 34.7337C56.264 34.9587 56.039 35.1838 55.8139 35.1838C55.3638 35.1838 54.8387 35.1838 54.3136 35.1838C54.0885 35.1838 53.7884 35.1838 53.5634 35.1088C53.3383 34.9587 53.1883 34.7337 52.9632 34.5086C51.5379 32.7082 50.1125 30.9077 48.6871 29.1823C48.6871 30.9077 48.6871 32.7082 48.6871 34.4336C48.6871 34.6586 48.6871 34.8837 48.5371 35.0337C48.237 35.3338 47.8619 35.1838 47.4868 35.2588C47.1868 35.2588 46.8117 35.3338 46.5866 35.1088C46.4366 35.0337 46.4366 34.8087 46.4366 34.6586C46.4366 29.1823 46.4366 23.8559 46.4366 18.5296Z" fill="#01070D"/>
<path d="M39.985 23.4059C40.6602 23.1808 41.4854 23.1058 42.1606 23.4059C42.3856 23.5559 42.6857 23.781 42.6107 24.081C42.5357 24.4561 42.3856 24.8312 42.2356 25.2063C42.1606 25.5064 41.8605 25.5814 41.5604 25.5064C40.9603 25.4314 40.4351 25.2063 39.835 25.2063C39.3849 25.2063 39.0098 25.4314 38.7097 25.7314C38.2596 26.1816 38.0345 26.7817 37.8845 27.4569C37.8095 27.907 37.8095 28.3571 37.8095 28.8072C37.8095 30.7577 37.8095 32.6332 37.8095 34.5837C37.8095 34.8837 37.5094 35.1088 37.2093 35.1088C36.8342 35.1088 36.4591 35.1088 36.009 35.1088C35.7089 35.1088 35.4089 34.8837 35.4089 34.5837C35.4089 30.9828 35.4089 27.4569 35.4089 23.931C35.4089 23.5559 35.784 23.4059 36.084 23.4059C36.4591 23.4059 36.9843 23.2558 37.2843 23.7059C37.5094 24.1561 37.5844 24.6062 37.7345 25.1313C38.4096 24.3811 39.0848 23.7059 39.985 23.4059Z" fill="#01070D"/>
<path d="M0 23.7059C0.0750188 23.5559 0.225056 23.4809 0.450113 23.4809C0.975244 23.4809 1.50038 23.4809 2.02551 23.4809C2.32558 23.4809 2.47562 23.7059 2.55064 24.006C3.07577 26.1065 3.6009 28.2821 4.12603 30.3826C4.27607 31.0578 4.50112 31.6579 4.57614 32.3331C4.65116 32.9332 4.72618 33.5334 4.8012 34.1335C4.95124 33.3083 5.02626 32.4081 5.25131 31.5829C5.92648 29.0323 6.60165 26.4816 7.27682 23.931C7.35184 23.6309 7.57689 23.4059 7.87697 23.4059C8.47712 23.4059 9.07727 23.4059 9.67742 23.4059C9.97749 23.4059 10.3526 23.5559 10.4276 23.931C10.9527 25.8065 11.4029 27.6069 11.928 29.4824C12.2281 30.6827 12.6032 31.883 12.8282 33.0833C12.9032 33.4584 12.9032 33.7584 12.9782 34.1335C13.2033 32.183 13.6534 30.3076 14.1035 28.4321C14.4786 26.9317 14.7787 25.4314 15.0788 23.931C15.1538 23.6309 15.4539 23.4809 15.7539 23.4809C16.2041 23.4809 16.7292 23.4809 17.1793 23.4809C17.4794 23.4809 17.6294 23.7809 17.5544 24.081C16.5791 27.6069 15.6039 31.2078 14.7037 34.7337C14.6287 35.0338 14.4036 35.2588 14.1035 35.2588C13.3533 35.2588 12.6032 35.2588 11.853 35.2588C11.5529 35.2588 11.3278 35.1088 11.2528 34.8837C10.5776 32.4081 9.90248 30.0075 9.30233 27.5319C9.07727 26.7067 9.00225 25.8065 8.85221 24.9062C8.70218 25.6564 8.70218 26.4816 8.47712 27.2318C7.80195 29.7074 7.12678 32.2581 6.45161 34.8087C6.37659 35.1838 5.92648 35.3338 5.55139 35.2588C4.87622 35.2588 4.20105 35.2588 3.45086 35.2588C3.22581 35.2588 3.00075 35.0338 3.00075 34.8087C1.95049 31.2078 0.975244 27.6819 0 24.156C0 24.006 0 23.856 0 23.7059Z" fill="#01070D"/>
<path d="M87.0968 23.4809C87.6219 23.4809 88.072 23.4809 88.5971 23.4809C88.8972 23.4809 89.1973 23.7059 89.2723 24.006C90.1725 26.2566 90.9977 28.5821 91.898 30.8327C92.048 31.2828 92.198 31.8079 92.273 32.2581C92.6481 30.9077 93.0983 29.5574 93.5484 28.2821C93.9985 26.8567 94.4486 25.4314 94.9737 23.931C95.0487 23.7059 95.2738 23.4809 95.5739 23.4809C95.949 23.4809 96.3991 23.4809 96.8492 23.4809C97.0743 23.4809 97.3743 23.4809 97.5244 23.6309C97.6744 23.7059 97.5994 23.931 97.5994 24.006C96.174 27.982 94.8237 31.958 93.3983 35.934C93.1733 36.6091 92.9482 37.2843 92.5731 37.8845C92.048 38.7847 91.1478 39.4599 90.0975 39.7599C89.7224 39.835 89.4223 40.135 89.0472 39.985C88.7472 39.91 88.6721 39.6099 88.5221 39.4599C88.4471 39.3098 88.222 39.0848 88.2971 38.8597C88.2971 38.6347 88.5221 38.4846 88.7472 38.4096C89.1973 38.2596 89.5724 38.1095 89.9475 37.8095C90.7727 37.1343 91.2978 36.084 91.4478 35.0338C91.2978 34.5836 91.0727 34.1335 90.9227 33.6834C89.5724 30.6076 88.2971 27.5319 86.9467 24.4561C86.8717 24.2311 86.7217 24.081 86.7217 23.856C86.5716 23.5559 86.8717 23.4809 87.0968 23.4809Z" fill="#01070D"/>
<path d="M25.2063 24.9812C24.4561 25.1313 23.856 25.5814 23.4809 26.1815C22.8807 27.2318 22.8057 28.5071 22.8057 29.6324C22.8807 30.6827 23.0308 31.8079 23.7059 32.7082C24.2311 33.3833 25.0563 33.6834 25.8815 33.6834C26.6317 33.6834 27.4569 33.4584 27.982 32.8582C28.6572 32.108 28.8822 31.0578 28.9572 30.1575C29.0323 29.1823 29.0323 28.207 28.8072 27.3068C28.5822 26.5566 28.2071 25.7314 27.4569 25.2813C26.7817 24.9062 25.9565 24.8312 25.2063 24.9812ZM25.5064 23.2558C26.7817 23.1808 28.2071 23.4809 29.2573 24.2311C30.2326 24.9062 30.9077 25.9565 31.2078 27.0818C31.5829 28.4321 31.5829 29.8575 31.2078 31.2828C30.9077 32.5581 30.1575 33.7584 29.0323 34.4336C27.832 35.1838 26.4066 35.4088 24.9813 35.2588C23.781 35.1088 22.6557 34.5836 21.8305 33.7584C20.8552 32.7832 20.4051 31.3578 20.3301 30.0075C20.1801 28.5071 20.4051 26.8567 21.3053 25.5814C21.9055 24.6061 22.9557 23.856 24.006 23.5559C24.5311 23.4058 25.0563 23.3308 25.5064 23.2558Z" fill="#01070D"/>
<path d="M64.141 24.9062C63.3909 24.9812 62.7157 25.3563 62.4156 26.0315C61.8155 27.2318 61.7404 28.6572 61.8155 30.0075C61.8905 30.9077 61.9655 31.8079 62.3406 32.5581C62.6407 33.0833 63.0908 33.5334 63.6909 33.6084C64.5912 33.8334 65.6414 33.6084 66.3166 32.9332C66.9167 32.2581 67.1418 31.2828 67.2168 30.3826C67.2918 29.3323 67.2918 28.2821 67.0668 27.3068C66.9167 26.6316 66.6167 25.9565 66.0915 25.5064C65.5664 24.9812 64.8162 24.8312 64.141 24.9062ZM67.2168 18.3796C67.2168 18.0795 67.5169 17.9295 67.7419 17.9295C68.117 17.9295 68.4921 17.9295 68.9422 17.9295C69.2423 17.9295 69.5424 18.1545 69.5424 18.4546C69.5424 23.856 69.5424 29.1823 69.5424 34.5836C69.5424 34.8837 69.3173 35.1088 69.0173 35.1088C68.7172 35.1088 68.4171 35.1088 68.117 35.1088C67.892 35.1088 67.6669 34.9587 67.5919 34.7337C67.4419 34.3586 67.4419 33.9835 67.2918 33.6834C66.8417 34.2836 66.3166 34.8087 65.6414 35.0337C64.6662 35.4088 63.5409 35.4088 62.5657 35.1838C61.5154 34.9587 60.6902 34.2085 60.165 33.3083C59.4149 31.883 59.3398 30.2325 59.3398 28.7322C59.3398 27.3818 59.6399 25.9565 60.4651 24.9062C61.1403 24.006 62.1906 23.4809 63.3158 23.3308C64.2911 23.1808 65.4164 23.3308 66.2416 23.931C66.6167 24.231 66.9167 24.6061 67.2168 24.9812C67.2168 22.8057 67.2168 20.5551 67.2168 18.3796Z" fill="#01070D"/>
<path d="M78.0945 24.9812C77.7194 25.0563 77.4193 25.2063 77.1193 25.4314C76.5191 25.8815 76.219 26.6317 76.069 27.3068C75.844 28.4321 75.844 29.5574 75.994 30.6827C76.069 31.5079 76.2941 32.4081 76.8942 33.0082C77.4193 33.5334 78.0945 33.6834 78.8447 33.6834C79.5949 33.6834 80.3451 33.4584 80.8702 32.8582C81.4704 32.108 81.6204 31.1328 81.6954 30.2326C81.7704 29.1823 81.7704 28.057 81.4704 27.0067C81.2453 26.3316 80.9452 25.7314 80.3451 25.3563C79.6699 24.9062 78.8447 24.8312 78.0945 24.9812ZM77.1193 23.4809C78.1695 23.1808 79.2948 23.1808 80.3451 23.4058C81.3203 23.6309 82.2205 24.156 82.8207 24.9812C83.4208 25.8064 83.7959 26.8567 83.871 27.832C84.021 28.6572 83.946 29.4073 83.946 30.2326C83.946 31.6579 83.946 33.0833 83.946 34.5086C83.946 34.6587 83.871 34.8087 83.7209 34.9587C83.4959 35.1088 83.1958 35.0338 82.8957 35.0338C82.5956 35.0338 82.2205 35.0338 82.0705 34.7337C81.9205 34.3586 81.8455 33.9835 81.7704 33.5334C81.3953 34.0585 80.9452 34.5086 80.3451 34.8087C79.4449 35.2588 78.3946 35.2588 77.4944 35.0338C76.2941 34.8087 75.2438 34.1335 74.5686 33.0833C73.8184 31.958 73.5184 30.4576 73.5184 29.1073C73.5184 27.7569 73.7434 26.3316 74.4936 25.2063C75.0938 24.4561 76.069 23.7809 77.1193 23.4809Z" fill="#01070D"/>
<path d="M97.9745 32.3331C97.3743 32.5581 96.9992 33.2333 97.1493 33.8335C97.2993 34.5836 98.1245 35.0338 98.8747 34.8087C99.5499 34.5836 99.925 33.9085 99.6999 33.2333C99.5499 32.4831 98.6497 32.033 97.9745 32.3331ZM98.0495 32.033C98.4246 31.958 98.7997 31.958 99.0998 32.108C99.6249 32.3331 100.075 32.9332 100 33.6084C100.075 34.3586 99.3998 35.0338 98.7247 35.1088C97.8995 35.2588 97.0743 34.7337 96.9242 33.9085C96.6992 33.0833 97.2243 32.183 98.0495 32.033Z" fill="#01070D"/>
<path d="M98.1996 32.9332C98.1996 33.0833 98.1996 33.2333 98.1996 33.4584C98.3496 33.4584 98.4996 33.4584 98.6497 33.3833C98.7997 33.3083 98.7997 33.1583 98.7247 33.0083C98.6497 32.8582 98.4246 32.9332 98.1996 32.9332ZM97.7495 32.6332C98.1996 32.6332 98.6497 32.5581 99.0248 32.7832C99.3248 33.0083 99.1748 33.5334 98.7997 33.6084C98.8747 33.9085 99.0248 34.1335 99.1748 34.3586C99.0248 34.3586 98.8747 34.3586 98.7247 34.3586C98.5747 34.1335 98.4996 33.9085 98.4246 33.6834C98.3496 33.6834 98.2746 33.6834 98.1996 33.6834C98.1996 33.9085 98.1996 34.1335 98.1996 34.3586C98.0495 34.3586 97.8995 34.3586 97.7495 34.3586C97.7495 33.7584 97.7495 33.2333 97.7495 32.6332Z" fill="#01070D"/>
</g>
<defs>
<clipPath id="clip0_1297_162">
<rect width="100" height="40.06" fill="white"/>
</clipPath>
</defs>
</svg>
